<svg width="247" height="50" viewBox="0 0 247 50" fill="none" xmlns="http://www.w3.org/2000/svg">
<path d="M85.51 17H88.74V33.26H86.05V21.01L80.01 29.77L79.26 30.87H77.48L76.73 29.77L70.69 21.01V33.26H68V17H71.23L78.38 27.38L85.53 17H85.51Z" fill="white"/>
<path d="M110.02 17L110.14 17.12V33.26H107.42L97.1304 21.17V33.26H94.4404V17H97.1304L107.42 29.07V17H110.02Z" fill="white"/>
<path d="M121.66 17C122.78 17 123.84 17.21 124.82 17.64C125.8 18.07 126.66 18.65 127.4 19.39C128.13 20.12 128.72 20.98 129.15 21.97C129.58 22.96 129.79 24.01 129.79 25.13C129.79 26.25 129.58 27.31 129.15 28.29C128.72 29.27 128.14 30.14 127.4 30.88C126.67 31.62 125.81 32.2 124.82 32.63C123.84 33.05 122.78 33.26 121.66 33.26C120.54 33.26 119.48 33.05 118.5 32.63C117.52 32.21 116.65 31.63 115.91 30.88C115.17 30.14 114.59 29.27 114.16 28.29C113.74 27.31 113.53 26.25 113.53 25.13C113.53 24.01 113.74 22.95 114.16 21.97C114.58 20.99 115.16 20.13 115.91 19.39C116.65 18.66 117.51 18.07 118.5 17.64C119.49 17.21 120.54 17 121.66 17ZM121.66 30.55C122.41 30.55 123.11 30.41 123.77 30.13C124.43 29.85 125 29.46 125.49 28.97C125.98 28.48 126.37 27.9 126.65 27.25C126.93 26.6 127.07 25.89 127.07 25.14C127.07 24.39 126.93 23.69 126.65 23.03C126.37 22.37 125.98 21.8 125.49 21.31C125 20.82 124.42 20.43 123.77 20.15C123.12 19.87 122.41 19.73 121.66 19.73C120.91 19.73 120.21 19.87 119.55 20.15C118.89 20.43 118.32 20.82 117.83 21.31C117.34 21.8 116.95 22.38 116.67 23.03C116.39 23.69 116.25 24.39 116.25 25.14C116.25 25.89 116.39 26.59 116.67 27.25C116.95 27.91 117.34 28.48 117.83 28.97C118.32 29.46 118.9 29.85 119.55 30.13C120.21 30.41 120.91 30.55 121.66 30.55Z" fill="white"/>
<path d="M148.4 24.9501C148.41 25.9301 148.27 26.8701 147.97 27.7601C147.67 28.6501 147.23 29.4601 146.66 30.1801C146.09 30.9001 145.41 31.5201 144.61 32.0301C143.81 32.5401 142.94 32.8901 141.99 33.1001C141.04 33.3001 140.09 33.3401 139.16 33.2101C138.23 33.0801 137.34 32.8001 136.52 32.3701C135.7 31.9401 134.97 31.3801 134.32 30.7001C133.67 30.0101 133.16 29.2201 132.78 28.3301C132.4 27.4201 132.2 26.5001 132.16 25.5501C132.12 24.6001 132.24 23.6901 132.51 22.8101C132.78 21.9301 133.2 21.1101 133.75 20.3501C134.3 19.5901 134.99 18.9401 135.8 18.3901C136.61 17.8601 137.48 17.4801 138.4 17.2701C139.32 17.0601 140.24 16.9901 141.15 17.0901C142.06 17.1901 142.94 17.4401 143.79 17.8401C144.63 18.2401 145.4 18.7901 146.09 19.4901L144.57 21.8801C144.01 21.1501 143.36 20.6101 142.64 20.2601C141.92 19.9101 141.17 19.7401 140.41 19.7301C139.65 19.7301 138.92 19.8701 138.21 20.1601C137.5 20.4501 136.88 20.8701 136.35 21.4101C135.82 21.9501 135.42 22.6001 135.14 23.3601C134.87 24.1201 134.79 24.9501 134.92 25.8601C135.03 26.7501 135.3 27.5201 135.74 28.1701C136.18 28.8201 136.71 29.3401 137.33 29.7301C137.95 30.1201 138.64 30.3801 139.38 30.5001C140.12 30.6201 140.85 30.6101 141.56 30.4401C142.27 30.2701 142.94 29.9701 143.56 29.5101C144.18 29.0601 144.69 28.4401 145.08 27.6601H138.85V24.9401H148.41L148.4 24.9501Z" fill="white"/>
<path d="M158.87 17C159.99 17 161.05 17.21 162.03 17.64C163.01 18.07 163.87 18.65 164.61 19.39C165.34 20.12 165.93 20.98 166.36 21.97C166.79 22.96 167 24.01 167 25.13C167 26.25 166.79 27.31 166.36 28.29C165.93 29.27 165.35 30.14 164.61 30.88C163.88 31.62 163.02 32.2 162.03 32.63C161.05 33.05 159.99 33.26 158.87 33.26C157.75 33.26 156.69 33.05 155.71 32.63C154.73 32.21 153.86 31.63 153.12 30.88C152.38 30.14 151.8 29.27 151.37 28.29C150.95 27.31 150.74 26.25 150.74 25.13C150.74 24.01 150.95 22.95 151.37 21.97C151.79 20.99 152.37 20.13 153.12 19.39C153.86 18.66 154.72 18.07 155.71 17.64C156.7 17.21 157.75 17 158.87 17ZM158.87 30.55C159.62 30.55 160.32 30.41 160.98 30.13C161.64 29.85 162.21 29.46 162.7 28.97C163.19 28.48 163.58 27.9 163.86 27.25C164.14 26.6 164.28 25.89 164.28 25.14C164.28 24.39 164.14 23.69 163.86 23.03C163.58 22.37 163.19 21.8 162.7 21.31C162.21 20.82 161.63 20.43 160.98 20.15C160.33 19.87 159.62 19.73 158.87 19.73C158.12 19.73 157.42 19.87 156.76 20.15C156.1 20.43 155.53 20.82 155.04 21.31C154.55 21.8 154.16 22.38 153.88 23.03C153.6 23.69 153.46 24.39 153.46 25.14C153.46 25.89 153.6 26.59 153.88 27.25C154.16 27.91 154.55 28.48 155.04 28.97C155.53 29.46 156.11 29.85 156.76 30.13C157.42 30.41 158.12 30.55 158.87 30.55Z" fill="white"/>
<path d="M177.24 17C178.36 17 179.42 17.21 180.4 17.63C181.38 18.05 182.25 18.63 182.99 19.38C183.73 20.12 184.31 20.98 184.74 21.97C185.17 22.96 185.37 24.01 185.37 25.13C185.37 26.25 185.16 27.31 184.74 28.29C184.32 29.27 183.74 30.13 182.99 30.87C182.25 31.6 181.38 32.19 180.4 32.62C179.42 33.05 178.36 33.26 177.24 33.26H169.13V17H177.24ZM177.24 30.55C177.99 30.55 178.69 30.41 179.35 30.13C180.01 29.85 180.58 29.46 181.07 28.97C181.56 28.48 181.95 27.9 182.24 27.25C182.53 26.6 182.67 25.89 182.67 25.14C182.67 24.39 182.53 23.69 182.24 23.03C181.95 22.37 181.56 21.8 181.07 21.31C180.58 20.82 180 20.43 179.35 20.15C178.7 19.87 177.99 19.73 177.24 19.73H171.83V30.55H177.24Z" fill="white"/>
<path d="M195.23 17C196.35 17 197.41 17.21 198.39 17.64C199.37 18.07 200.23 18.65 200.97 19.39C201.7 20.12 202.29 20.98 202.72 21.97C203.15 22.96 203.36 24.01 203.36 25.13C203.36 26.25 203.15 27.31 202.72 28.29C202.29 29.27 201.71 30.14 200.97 30.88C200.24 31.62 199.38 32.2 198.39 32.63C197.41 33.05 196.35 33.26 195.23 33.26C194.11 33.26 193.05 33.05 192.07 32.63C191.09 32.21 190.22 31.63 189.48 30.88C188.74 30.14 188.16 29.27 187.73 28.29C187.31 27.31 187.1 26.25 187.1 25.13C187.1 24.01 187.31 22.95 187.73 21.97C188.15 20.99 188.73 20.13 189.48 19.39C190.22 18.66 191.08 18.07 192.07 17.64C193.06 17.21 194.11 17 195.23 17ZM195.23 30.55C195.98 30.55 196.68 30.41 197.34 30.13C198 29.85 198.57 29.46 199.06 28.97C199.55 28.48 199.94 27.9 200.22 27.25C200.5 26.6 200.64 25.89 200.64 25.14C200.64 24.39 200.5 23.69 200.22 23.03C199.94 22.37 199.55 21.8 199.06 21.31C198.57 20.82 197.99 20.43 197.34 20.15C196.69 19.87 195.98 19.73 195.23 19.73C194.48 19.73 193.78 19.87 193.12 20.15C192.46 20.43 191.89 20.82 191.4 21.31C190.91 21.8 190.52 22.38 190.24 23.03C189.96 23.69 189.82 24.39 189.82 25.14C189.82 25.89 189.96 26.59 190.24 27.25C190.52 27.91 190.91 28.48 191.4 28.97C191.89 29.46 192.47 29.85 193.12 30.13C193.78 30.41 194.48 30.55 195.23 30.55Z" fill="white"/>
<path d="M222.99 17H226.22V33.26H223.53V21.01L217.49 29.77L216.74 30.87H214.96L214.21 29.77L208.17 21.01V33.26H205.48V17H208.71L215.86 27.38L223.01 17H222.99Z" fill="white"/>
<path d="M243.89 17.03H246.09V19.72H234.73C234.17 19.72 233.69 19.92 233.29 20.32C232.89 20.72 232.69 21.2 232.69 21.76C232.69 22.32 232.89 22.8 233.29 23.2C233.69 23.6 234.17 23.8 234.73 23.8H241.36C242.02 23.8 242.63 23.93 243.21 24.18C243.79 24.43 244.29 24.77 244.71 25.19C245.13 25.61 245.47 26.11 245.72 26.69C245.97 27.27 246.1 27.89 246.1 28.54C246.1 29.19 245.98 29.81 245.72 30.39C245.46 30.97 245.13 31.47 244.71 31.89C244.29 32.31 243.79 32.65 243.21 32.9C242.63 33.15 242.01 33.28 241.36 33.28H230V30.59H241.36C241.92 30.59 242.4 30.39 242.8 29.99C243.2 29.59 243.4 29.11 243.4 28.55C243.4 27.99 243.2 27.51 242.8 27.11C242.4 26.71 241.92 26.51 241.36 26.51H234.73C234.07 26.51 233.46 26.39 232.88 26.14C232.3 25.89 231.8 25.55 231.38 25.13C230.96 24.71 230.62 24.21 230.37 23.63C230.12 23.05 230 22.44 230 21.78C230 21.12 230.12 20.51 230.37 19.93C230.62 19.35 230.96 18.85 231.38 18.43C231.8 18.01 232.3 17.67 232.88 17.42C233.46 17.17 234.07 17.04 234.73 17.04H243.89V17.03Z" fill="white"/>
<g clip-path="url(#clip0_2005_1535)">
<path d="M57.53 41.16L34.18 0.07L32.14 0.05L24.94 0H23.92L23.84 0.13L0 40.76L1.01 42.54L4.57 48.8L4.92 49.41L5 49.55L5.04 49.63H5.26H5.72H6.12L50.54 49.88H52.4L57.01 42.03L57.53 41.15V41.16ZM31.92 32.09L25.73 32.05L28.86 26.71L31.92 32.09ZM33.15 1.83L54.98 40.26L21.05 40.02L24.7 33.81L42.17 33.93L44.21 33.94L25.94 1.78L33.15 1.83ZM24.41 2.65L41.17 32.15L33.97 32.1L24.33 15.13L23.3 16.89L5.6 47.04L2.04 40.78L24.41 2.65ZM24.29 18.67L27.85 24.94L17.97 41.77H19.15L54.96 42.02L51.38 48.12L7.15 47.87L24.28 18.66L24.29 18.67Z" fill="white"/>
</g>
<defs>
<clipPath id="clip0_2005_1535">
<rect width="57.53" height="49.9" fill="white"/>
</clipPath>
</defs>
</svg>
