<svg width="23" height="21" viewBox="0 0 23 21" fill="none" xmlns="http://www.w3.org/2000/svg">
<path fill-rule="evenodd" clip-rule="evenodd" d="M8.32136 20.1802C8.11765 20.3729 7.85489 20.4658 7.59087 20.4386C7.32684 20.4113 7.08315 20.2661 6.91336 20.0348L0.247365 10.9485C0.159568 10.8345 0.0927278 10.7018 0.0507778 10.558C0.00882775 10.4143 -0.00738552 10.2624 0.00309217 10.1114C0.0135699 9.96046 0.0505273 9.81339 0.111789 9.67887C0.173051 9.54435 0.25738 9.42511 0.359816 9.32815C0.462252 9.2312 0.580726 9.15849 0.708268 9.11431C0.835809 9.07012 0.969842 9.05536 1.10248 9.07088C1.23512 9.0864 1.36369 9.13189 1.48062 9.20468C1.59755 9.27747 1.70048 9.37609 1.78336 9.49472L8.44936 18.581C8.61903 18.8124 8.70085 19.1108 8.67685 19.4107C8.65285 19.7106 8.52498 19.9874 8.32136 20.1802Z" fill="#3E3E3E"/>
<path fill-rule="evenodd" clip-rule="evenodd" d="M8.32136 0.263064C8.52498 0.4559 8.65285 0.732681 8.67685 1.03256C8.70085 1.33244 8.61903 1.63087 8.44936 1.86225L1.78336 10.9485C1.70048 11.0672 1.59755 11.1658 1.48062 11.2386C1.36369 11.3114 1.23512 11.3569 1.10248 11.3724C0.969841 11.3879 0.835809 11.3731 0.708267 11.329C0.580726 11.2848 0.462252 11.2121 0.359816 11.1151C0.25738 11.0182 0.173051 10.8989 0.111789 10.7644C0.0505272 10.6299 0.0135697 10.4828 0.00309207 10.3318C-0.00738561 10.1808 0.00882766 10.029 0.0507777 9.88525C0.0927277 9.74149 0.159568 9.60871 0.247365 9.49473L6.91337 0.408444C7.08315 0.177177 7.32684 0.0319491 7.59087 0.00468741C7.85489 -0.0225743 8.11765 0.0703612 8.32136 0.263064Z" fill="#3E3E3E"/>
<path fill-rule="evenodd" clip-rule="evenodd" d="M1.01563 10.2216C1.01563 9.92035 1.12098 9.63145 1.30852 9.41845C1.49605 9.20545 1.75041 9.08579 2.01563 9.08579L21.0156 9.08579C21.2808 9.08579 21.5352 9.20545 21.7227 9.41845C21.9103 9.63145 22.0156 9.92035 22.0156 10.2216C22.0156 10.5228 21.9103 10.8117 21.7227 11.0247C21.5352 11.2377 21.2808 11.3574 21.0156 11.3574L2.01563 11.3574C1.75041 11.3574 1.49605 11.2377 1.30852 11.0247C1.12098 10.8117 1.01563 10.5228 1.01563 10.2216Z" fill="#3E3E3E"/>
</svg>
