<svg width="10" height="10" viewBox="0 0 10 10" fill="none" xmlns="http://www.w3.org/2000/svg">
<path fill-rule="evenodd" clip-rule="evenodd" d="M6.21242 1.05441C6.30409 0.978065 6.42233 0.941243 6.54114 0.952045C6.65995 0.962846 6.76962 1.02038 6.84602 1.11201L9.84572 4.71201C9.88523 4.75717 9.9153 4.80978 9.93418 4.86674C9.95306 4.9237 9.96035 4.98385 9.95564 5.04367C9.95092 5.10349 9.93429 5.16176 9.90673 5.21506C9.87916 5.26835 9.84121 5.3156 9.79511 5.35401C9.74902 5.39242 9.6957 5.42123 9.63831 5.43874C9.58092 5.45624 9.5206 5.46209 9.46091 5.45594C9.40123 5.44979 9.34337 5.43177 9.29075 5.40293C9.23813 5.37409 9.19181 5.33502 9.15452 5.28801L6.15482 1.68801C6.07847 1.59634 6.04165 1.4781 6.05245 1.35929C6.06325 1.24048 6.12079 1.13082 6.21242 1.05441Z" fill="#F56A00"/>
<path fill-rule="evenodd" clip-rule="evenodd" d="M6.21242 8.94564C6.12079 8.86924 6.06325 8.75958 6.05245 8.64077C6.04165 8.52196 6.07847 8.40372 6.15482 8.31205L9.15452 4.71205C9.19181 4.66504 9.23813 4.62597 9.29075 4.59713C9.34337 4.56829 9.40123 4.55027 9.46091 4.54412C9.5206 4.53797 9.58092 4.54382 9.63831 4.56132C9.6957 4.57883 9.74902 4.60763 9.79511 4.64605C9.84121 4.68446 9.87916 4.73171 9.90673 4.785C9.93429 4.8383 9.95092 4.89657 9.95564 4.95639C9.96035 5.01621 9.95306 5.07636 9.93418 5.13332C9.9153 5.19028 9.88523 5.24288 9.84572 5.28804L6.84602 8.88804C6.76962 8.97967 6.65995 9.03721 6.54114 9.04801C6.42233 9.05882 6.30409 9.02199 6.21242 8.94564Z" fill="#F56A00"/>
<path fill-rule="evenodd" clip-rule="evenodd" d="M9.5 5.00005C9.5 5.1194 9.45259 5.23386 9.3682 5.31825C9.28381 5.40264 9.16935 5.45005 9.05 5.45005L0.499999 5.45005C0.380651 5.45005 0.266192 5.40264 0.181801 5.31825C0.0974092 5.23386 0.0499992 5.1194 0.0499992 5.00005C0.0499992 4.8807 0.0974092 4.76624 0.181801 4.68185C0.266192 4.59746 0.380651 4.55005 0.499999 4.55005L9.05 4.55005C9.16935 4.55005 9.28381 4.59746 9.3682 4.68185C9.45259 4.76624 9.5 4.8807 9.5 5.00005Z" fill="#F56A00"/>
</svg>
