<svg width="23" height="19" viewBox="0 0 23 19" fill="none" xmlns="http://www.w3.org/2000/svg">
<path fill-rule="evenodd" clip-rule="evenodd" d="M13.6943 0.732085C13.898 0.56242 14.1607 0.480595 14.4248 0.504598C14.6888 0.5286 14.9325 0.656465 15.1023 0.860084L21.7683 8.86009C21.8561 8.96044 21.9229 9.07735 21.9648 9.20392C22.0068 9.33049 22.023 9.46417 22.0125 9.5971C22.0021 9.73003 21.9651 9.85952 21.9038 9.97796C21.8426 10.0964 21.7582 10.2014 21.6558 10.2867C21.5534 10.3721 21.4349 10.4361 21.3074 10.475C21.1798 10.5139 21.0458 10.5269 20.9131 10.5133C20.7805 10.4996 20.6519 10.4595 20.535 10.3955C20.4181 10.3314 20.3151 10.2445 20.2323 10.1401L13.5663 2.14009C13.3966 1.93637 13.3148 1.67361 13.3388 1.40959C13.3628 1.14556 13.4906 0.901867 13.6943 0.732085Z" fill="#3E3E3E"/>
<path fill-rule="evenodd" clip-rule="evenodd" d="M13.6943 18.2681C13.4906 18.0983 13.3628 17.8547 13.3388 17.5906C13.3148 17.3266 13.3966 17.0638 13.5663 16.8601L20.2323 8.86013C20.3151 8.75567 20.4181 8.66885 20.535 8.60476C20.6519 8.54067 20.7805 8.50062 20.9131 8.48695C21.0458 8.47329 21.1798 8.48629 21.3074 8.52519C21.4349 8.56409 21.5534 8.6281 21.6558 8.71347C21.7582 8.79883 21.8426 8.90382 21.9038 9.02226C21.9651 9.14069 22.0021 9.27018 22.0125 9.40311C22.023 9.53604 22.0068 9.66972 21.9648 9.79629C21.9229 9.92287 21.8561 10.0398 21.7683 10.1401L15.1023 18.1401C14.9325 18.3437 14.6888 18.4716 14.4248 18.4956C14.1607 18.5196 13.898 18.4378 13.6943 18.2681Z" fill="#3E3E3E"/>
<path fill-rule="evenodd" clip-rule="evenodd" d="M21 9.5C21 9.76522 20.8946 10.0196 20.7071 10.2071C20.5196 10.3946 20.2652 10.5 20 10.5L0.999998 10.5C0.734781 10.5 0.480427 10.3946 0.29289 10.2071C0.105354 10.0196 -1.96265e-06 9.76522 -1.95106e-06 9.5C-1.93947e-06 9.23478 0.105354 8.98043 0.292891 8.79289C0.480427 8.60536 0.734781 8.5 0.999998 8.5L20 8.5C20.2652 8.5 20.5196 8.60536 20.7071 8.79289C20.8946 8.98043 21 9.23478 21 9.5Z" fill="#3E3E3E"/>
</svg>
