<svg width="23" height="21" viewBox="0 0 23 21" fill="none" xmlns="http://www.w3.org/2000/svg">
<path fill-rule="evenodd" clip-rule="evenodd" d="M13.6943 0.263044C13.898 0.0703413 14.1607 -0.0225945 14.4248 0.00466724C14.6888 0.031929 14.9325 0.177156 15.1023 0.408424L21.7683 9.49471C21.8561 9.60869 21.9229 9.74147 21.9648 9.88523C22.0068 10.029 22.023 10.1808 22.0125 10.3318C22.0021 10.4828 21.9651 10.6299 21.9038 10.7644C21.8426 10.8989 21.7582 11.0181 21.6558 11.1151C21.5534 11.212 21.4349 11.2847 21.3074 11.3289C21.1798 11.3731 21.0458 11.3879 20.9131 11.3724C20.7805 11.3568 20.6519 11.3113 20.535 11.2386C20.4181 11.1658 20.3151 11.0672 20.2323 10.9485L13.5663 1.86223C13.3966 1.63085 13.3148 1.33242 13.3388 1.03254C13.3628 0.732661 13.4906 0.45588 13.6943 0.263044Z" fill="#3E3E3E"/>
<path fill-rule="evenodd" clip-rule="evenodd" d="M13.6943 20.1802C13.4906 19.9873 13.3628 19.7106 13.3388 19.4107C13.3148 19.1108 13.3966 18.8124 13.5663 18.581L20.2323 9.4947C20.3151 9.37607 20.4181 9.27745 20.535 9.20466C20.6519 9.13187 20.7805 9.08638 20.9131 9.07086C21.0458 9.05534 21.1798 9.0701 21.3074 9.11429C21.4349 9.15847 21.5534 9.23118 21.6558 9.32813C21.7582 9.42508 21.8426 9.54433 21.9038 9.67885C21.9651 9.81337 22.0021 9.96044 22.0125 10.1114C22.023 10.2624 22.0068 10.4142 21.9648 10.558C21.9229 10.7017 21.8561 10.8345 21.7683 10.9485L15.1023 20.0348C14.9325 20.2661 14.6888 20.4113 14.4248 20.4385C14.1607 20.4658 13.898 20.3729 13.6943 20.1802Z" fill="#3E3E3E"/>
<path fill-rule="evenodd" clip-rule="evenodd" d="M21 10.2216C21 10.5228 20.8946 10.8117 20.7071 11.0247C20.5196 11.2377 20.2652 11.3574 20 11.3574L0.999998 11.3574C0.734781 11.3574 0.480427 11.2377 0.29289 11.0247C0.105354 10.8117 -1.96265e-06 10.5228 -1.95106e-06 10.2216C-1.93947e-06 9.92037 0.105354 9.63148 0.292891 9.41848C0.480427 9.20548 0.734781 9.08581 0.999998 9.08581L20 9.08582C20.2652 9.08582 20.5196 9.20548 20.7071 9.41848C20.8946 9.63148 21 9.92037 21 10.2216Z" fill="#3E3E3E"/>
</svg>
