<svg width="10" height="10" viewBox="0 0 10 10" fill="none" xmlns="http://www.w3.org/2000/svg">
<path fill-rule="evenodd" clip-rule="evenodd" d="M6.16261 1.05441C6.25429 0.978065 6.37252 0.941243 6.49134 0.952045C6.61015 0.962846 6.71981 1.02038 6.79621 1.11201L9.79591 4.71201C9.83542 4.75717 9.8655 4.80978 9.88438 4.86674C9.90325 4.9237 9.91055 4.98385 9.90584 5.04367C9.90112 5.10349 9.88449 5.16176 9.85692 5.21506C9.82935 5.26835 9.79141 5.3156 9.74531 5.35401C9.69921 5.39242 9.6459 5.42123 9.58851 5.43874C9.53111 5.45624 9.4708 5.46209 9.41111 5.45594C9.35142 5.44979 9.29357 5.43177 9.24095 5.40293C9.18833 5.37409 9.14201 5.33502 9.10471 5.28801L6.10501 1.68801C6.02866 1.59634 5.99184 1.4781 6.00264 1.35929C6.01344 1.24048 6.07098 1.13082 6.16261 1.05441Z" fill="#F56A00"/>
<path fill-rule="evenodd" clip-rule="evenodd" d="M6.16261 8.94564C6.07098 8.86924 6.01344 8.75958 6.00264 8.64077C5.99184 8.52196 6.02866 8.40372 6.10501 8.31205L9.10471 4.71205C9.14201 4.66504 9.18833 4.62597 9.24095 4.59713C9.29357 4.56829 9.35142 4.55027 9.41111 4.54412C9.4708 4.53797 9.53111 4.54382 9.58851 4.56132C9.6459 4.57883 9.69921 4.60763 9.74531 4.64605C9.79141 4.68446 9.82935 4.73171 9.85692 4.785C9.88449 4.8383 9.90112 4.89657 9.90584 4.95639C9.91055 5.01621 9.90325 5.07636 9.88438 5.13332C9.8655 5.19028 9.83542 5.24288 9.79591 5.28804L6.79621 8.88804C6.71981 8.97967 6.61015 9.03721 6.49134 9.04801C6.37252 9.05882 6.25429 9.02199 6.16261 8.94564Z" fill="#F56A00"/>
<path fill-rule="evenodd" clip-rule="evenodd" d="M9.4502 4.99999C9.4502 5.11934 9.40278 5.23379 9.31839 5.31819C9.234 5.40258 9.11954 5.44999 9.0002 5.44999L0.450194 5.44999C0.330847 5.44999 0.216388 5.40258 0.131996 5.31819C0.0476046 5.23379 0.00019455 5.11934 0.00019455 4.99999C0.00019455 4.88064 0.0476046 4.76618 0.131996 4.68179C0.216388 4.5974 0.330847 4.54999 0.450194 4.54999L9.0002 4.54999C9.11954 4.54999 9.234 4.5974 9.31839 4.68179C9.40278 4.76618 9.4502 4.88064 9.4502 4.99999Z" fill="#F56A00"/>
</svg>
