<svg width="21" height="21" viewBox="0 0 21 21" fill="none" xmlns="http://www.w3.org/2000/svg">
<g clip-path="url(#clip0_2136_422)">
<path d="M16.4807 15.7176V15.9922C16.4807 17.2423 16.4807 18.4924 16.4807 19.742C16.4807 20.2336 16.3186 20.393 15.8221 20.393C11.7521 20.393 7.68212 20.393 3.61211 20.393C3.10894 20.393 2.95312 20.2403 2.95312 19.7447C2.95312 14.3728 2.95312 9.00046 2.95312 3.62855C2.95312 3.15842 3.11341 2.99457 3.58086 2.99457C8.89339 2.99367 14.2059 2.99367 19.5184 2.99457C19.989 2.99457 20.1457 3.15485 20.1462 3.62766C20.1466 7.44452 20.1462 11.2618 20.1462 15.0787C20.1462 15.5653 19.993 15.7167 19.5028 15.7171C18.5876 15.718 17.6723 15.7171 16.757 15.7171C16.6762 15.7171 16.5959 15.7171 16.4811 15.7171L16.4807 15.7176ZM19.1867 3.96072H3.91259V19.43H15.5333C15.5333 19.3237 15.5333 19.2353 15.5333 19.1473C15.5333 17.9048 15.5328 16.6628 15.5333 15.4202C15.5333 14.9282 15.694 14.7711 16.1923 14.7706C17.1075 14.7702 18.0223 14.7706 18.9376 14.7706C19.0171 14.7706 19.0961 14.7706 19.1867 14.7706V3.96072Z" fill="#3E3E3E"/>
<path d="M1.67581 3.88212V19.5192C1.75394 19.5286 1.82002 19.5313 1.88386 19.5456C2.08299 19.5898 2.19907 19.7143 2.19907 19.9202C2.19907 20.1269 2.08076 20.2778 1.88252 20.2889C1.48249 20.3113 1.07977 20.3104 0.679738 20.2903C0.478827 20.28 0.366763 20.13 0.35962 19.9237C0.352923 19.7251 0.484184 19.5786 0.692685 19.542C0.749833 19.5322 0.807428 19.5268 0.87663 19.5179V3.88703C0.799838 3.87007 0.721259 3.85667 0.644913 3.8348C0.45695 3.78122 0.356494 3.65219 0.360513 3.45842C0.364531 3.26466 0.470344 3.10839 0.659646 3.09723C1.06683 3.07357 1.47668 3.07223 1.88386 3.09455C2.0812 3.10527 2.19728 3.26153 2.19862 3.46691C2.19996 3.66201 2.09102 3.78524 1.9044 3.83614C1.83341 3.85578 1.75974 3.8656 1.67581 3.88212Z" fill="#3E3E3E"/>
<path d="M19.1975 0.90556C19.2051 0.874754 19.2118 0.85377 19.2154 0.831893C19.264 0.542135 19.4123 0.384085 19.627 0.393461C19.8636 0.40373 20.0052 0.592586 20.007 0.904667C20.0087 1.18014 20.0083 1.45516 20.007 1.73063C20.0052 2.04227 19.8828 2.21148 19.6493 2.2338C19.4453 2.25345 19.2122 2.10879 19.2136 1.78153C19.2136 1.76099 19.2002 1.74046 19.1899 1.71144H3.83989C3.82784 1.78421 3.81891 1.8552 3.80417 1.92485C3.76131 2.12978 3.62469 2.228 3.42468 2.23559C3.23805 2.24229 3.06214 2.10835 3.05411 1.91815C3.03759 1.51722 3.03803 1.11495 3.055 0.714472C3.06259 0.53142 3.25323 0.384085 3.42869 0.39614C3.62514 0.40998 3.76355 0.510436 3.80507 0.714918C3.81668 0.772513 3.82382 0.831 3.83543 0.906007H19.198L19.1975 0.90556Z" fill="#3E3E3E"/>
<path d="M7.13574 9.69222H8.10413C8.11619 9.77347 8.12779 9.85071 8.1394 9.93018C9.26272 9.42746 9.64847 9.47032 10.2637 10.1418C10.516 9.98421 10.7463 9.78196 11.0147 9.68329C11.8848 9.36317 12.7353 9.83598 12.8001 10.7499C12.8751 11.8134 12.8175 12.8867 12.8175 13.9734H11.8656C11.8612 13.8913 11.8536 13.8127 11.8536 13.7341C11.8527 12.968 11.8536 12.2018 11.8527 11.4357C11.8527 11.3169 11.8509 11.1977 11.846 11.0789C11.8201 10.4762 11.4477 10.2744 10.933 10.595C10.6477 10.7727 10.4575 10.9901 10.4731 11.3839C10.5066 12.2375 10.4834 13.093 10.4834 13.9694H9.49845C9.49443 13.8962 9.4864 13.818 9.4864 13.7403C9.48551 12.9371 9.48818 12.134 9.48372 11.3303C9.48283 11.1526 9.473 10.9722 9.44086 10.7986C9.39621 10.557 9.2587 10.4539 9.01716 10.4597C8.63052 10.4691 8.3738 10.7039 8.15369 10.9856C8.11529 11.0347 8.1269 11.1281 8.1269 11.2008C8.12512 12.0415 8.12601 12.8818 8.12601 13.7225V13.9779H7.13574V9.69222Z" fill="#3E3E3E"/>
<path d="M13.223 7.13664H12.6546C12.6162 6.71652 12.8484 6.34104 13.2159 6.21156C13.6449 6.06021 14.1383 6.1879 14.3668 6.51025C14.5852 6.81786 14.562 7.31166 14.2918 7.60945C14.0981 7.82376 13.878 8.0144 13.6681 8.21397C13.6159 8.26353 13.5596 8.30862 13.5257 8.40729H14.5048V8.96806C14.445 8.9752 14.3945 8.98591 14.3441 8.98591C13.7655 8.98725 13.1868 8.98681 12.597 8.98681C12.5203 8.55507 12.7497 8.27871 13.0185 8.02511C13.24 7.81617 13.4824 7.6282 13.6945 7.41033C13.7869 7.31568 13.8516 7.17593 13.8842 7.04512C13.9257 6.8768 13.8619 6.73437 13.6668 6.69553C13.4819 6.65892 13.3226 6.75402 13.2708 6.93216C13.2525 6.996 13.2404 7.06164 13.223 7.13664Z" fill="#3E3E3E"/>
</g>
<defs>
<clipPath id="clip0_2136_422">
<rect width="19.787" height="20" fill="white" transform="translate(0.359375 0.393066)"/>
</clipPath>
</defs>
</svg>
