<svg width="16" height="17" viewBox="0 0 16 17" fill="none" xmlns="http://www.w3.org/2000/svg">
<path d="M8 2C5.51562 2 3.5 3.91844 3.5 6.28125C3.5 9 6.5 13.3084 7.60156 14.7966C7.64729 14.8594 7.70722 14.9105 7.77646 14.9457C7.84571 14.981 7.9223 14.9994 8 14.9994C8.0777 14.9994 8.15429 14.981 8.22354 14.9457C8.29278 14.9105 8.35271 14.8594 8.39844 14.7966C9.5 13.3091 12.5 9.00219 12.5 6.28125C12.5 3.91844 10.4844 2 8 2Z" stroke="#F56A00" stroke-linecap="round" stroke-linejoin="round"/>
<path d="M8 8C8.82843 8 9.5 7.32843 9.5 6.5C9.5 5.67157 8.82843 5 8 5C7.17157 5 6.5 5.67157 6.5 6.5C6.5 7.32843 7.17157 8 8 8Z" stroke="#F56A00" stroke-linecap="round" stroke-linejoin="round"/>
</svg>
