<svg width="28" height="25" viewBox="0 0 28 25" fill="none" xmlns="http://www.w3.org/2000/svg">
<g clip-path="url(#clip0_498_2122)">
<path d="M8.32098 3.66087C8.35987 3.91824 8.54333 4.0641 8.80589 4.03363C9.07946 4.00187 9.21948 3.82489 9.21495 3.51825C9.06455 2.47648 8.91868 1.40877 8.75013 0.344958C8.70929 0.0875939 8.5012 -0.0323366 8.24124 0.00785629C7.9748 0.0486975 7.83801 0.23929 7.87108 0.493413C8.00916 1.55075 8.1615 2.60678 8.32098 3.66152V3.66087Z" fill="#AA9A8D"/>
<path d="M1.04022 7.33452C1.7598 7.623 2.47744 7.91537 3.19962 8.19672C3.5445 8.33091 3.86475 8.12282 3.85567 7.6768C3.79149 7.61068 3.69555 7.43565 3.55098 7.37471C2.58959 6.96759 1.62042 6.57928 0.648663 6.19809C0.368609 6.08789 0.130045 6.20069 0.0328036 6.44573C-0.0611959 6.683 0.050307 6.92351 0.322582 7.04279C0.559201 7.14652 0.800359 7.23922 1.04022 7.33516V7.33452Z" fill="#AA9A8D"/>
<path d="M4.71385 14.2495C4.55308 14.0498 4.29766 14.0265 4.05261 14.2061C3.78293 14.4031 3.52297 14.6132 3.26042 14.8193C2.71782 15.2453 2.17716 15.6731 1.63326 16.0971C1.45174 16.2384 1.3545 16.4277 1.45109 16.6326C1.51981 16.7778 1.68058 16.8789 1.79597 16.9962C1.95934 16.9256 2.07019 16.9022 2.15058 16.84C2.97648 16.1995 3.80108 15.5571 4.61855 14.9056C4.84804 14.7227 4.87462 14.4479 4.7145 14.2489L4.71385 14.2495Z" fill="#AA9A8D"/>
<path d="M15.392 6.46014C16.2011 5.83456 17.0075 5.20508 17.8049 4.56459C17.9203 4.47189 17.9832 4.31436 18.0966 4.1484C17.976 4.00383 17.8976 3.82297 17.7757 3.78601C17.6253 3.74128 17.3958 3.75814 17.2746 3.8489C16.4474 4.468 15.6371 5.11044 14.8274 5.75287C14.605 5.9292 14.5758 6.2125 14.7314 6.41217C14.8877 6.61313 15.1535 6.6436 15.3914 6.45949L15.392 6.46014Z" fill="#AA9A8D"/>
<path d="M4.97191 4.67868C5.18649 4.96197 5.43802 5.02032 5.66426 4.8563C5.88662 4.69553 5.90996 4.42715 5.7064 4.1445C5.37967 3.69006 5.0497 3.23757 4.70482 2.79674C4.61925 2.68783 4.47274 2.62689 4.3165 2.51733C4.17324 2.62689 3.98199 2.6995 3.94699 2.81748C3.89902 2.97826 3.91328 3.21228 4.00209 3.34907C4.30095 3.80869 4.64064 4.24174 4.97256 4.67932L4.97191 4.67868Z" fill="#AA9A8D"/>
<path d="M2.95062 11.116C2.92469 10.8346 2.74252 10.6842 2.46571 10.7102C1.85439 10.7666 1.24371 10.8366 0.635633 10.9195C0.376324 10.9546 0.24278 11.1341 0.255745 11.3993C0.267414 11.6424 0.480048 11.8155 0.717964 11.8148C1.35586 11.7416 1.96654 11.6806 2.57527 11.5976C2.83587 11.562 2.97525 11.3798 2.95126 11.1166L2.95062 11.116Z" fill="#AA9A8D"/>
<path d="M12.4414 4.07948C12.6683 4.17802 12.8913 4.12227 12.997 3.89926C13.2731 3.31582 13.5208 2.7194 13.7781 2.12688C13.795 2.08863 13.7944 2.04326 13.8177 1.91684C13.7308 1.82803 13.6323 1.66337 13.4884 1.59465C13.2881 1.49935 13.0618 1.56159 12.962 1.77617C12.6897 2.36156 12.4297 2.95278 12.1905 3.55243C12.0985 3.78257 12.2171 3.98159 12.4427 4.07948H12.4414Z" fill="#AA9A8D"/>
<path d="M8.21727 7.7124C7.47889 8.13637 7.00565 8.77233 6.77227 9.58656C6.6867 9.88606 6.817 10.1376 7.07437 10.207C7.32979 10.2763 7.5515 10.1538 7.63836 9.85754C7.8134 9.25853 8.16152 8.80474 8.69181 8.47542C8.81433 8.39893 8.88629 8.2401 8.93621 8.17722C8.94204 7.7124 8.56669 7.51209 8.21727 7.7124Z" fill="#AA9A8D"/>
<path d="M24.6924 14.6037C24.5381 14.4961 24.4026 14.321 24.3294 14.1479C24.1096 13.6293 23.847 13.1023 23.3595 12.8443C23.3375 12.8326 23.318 12.8203 23.2973 12.8086C22.8617 12.5545 22.7339 12.2232 22.7002 11.8213V15.1729C22.7002 15.7887 22.7002 16.3955 22.7002 17.0023C22.7002 17.0671 22.6801 17.141 22.7048 17.1948C22.7547 17.3031 22.8085 17.4237 22.8954 17.4982C23.6085 18.105 24.0059 18.8745 24.0545 19.8048C24.1316 21.2951 23.1553 22.6371 21.744 23.0189C20.2731 23.4169 18.7581 22.7622 18.0593 21.4261C17.3727 20.1133 17.7008 18.481 18.8592 17.5235C19.0213 17.3899 19.0712 17.2583 19.0706 17.06V10.5746L19.0673 9.59705C18.7607 9.42656 18.4573 9.27746 18.1526 9.14975C17.1076 8.71151 16.0425 8.53129 14.7297 8.65965C14.0743 8.72448 13.4474 8.95008 12.9774 9.13548C12.6617 9.28524 12.359 9.4311 12.0737 9.60548C10.6125 10.4988 9.64272 11.7817 9.16495 13.4271C9.1092 13.6183 9.04242 13.7175 8.82785 13.7285C8.60354 13.7402 8.13873 13.8251 7.95138 13.9042C7.55464 14.05 6.87525 14.3074 6.35663 14.6503L6.30542 14.686C4.31911 16.0636 3.4005 18.5951 4.07276 20.8478C4.80855 23.3145 6.91025 24.9676 9.4262 24.9812C13.5317 25.0046 17.6372 25.0097 21.7421 24.9799C24.7041 24.9585 27.1882 22.464 27.2323 19.5053C27.2628 17.4295 26.4012 15.7945 24.693 14.6037H24.6924Z" fill="#FFB27B"/>
<path d="M6.65225 14.3411L7.65318 13.862C7.54362 13.8206 7.4386 13.7544 7.33164 13.6747C5.83088 12.5623 5.23966 10.5935 5.91062 8.91313C6.63409 7.1025 8.38573 6.04258 10.2981 6.33041C11.7853 6.55407 12.8394 7.38061 13.4682 8.7381C13.8922 8.59224 14.191 8.52157 14.3622 8.48786C13.4643 6.53786 11.9623 5.42477 9.78924 5.38393C7.80099 5.34633 6.22503 6.25521 5.33042 8.03602C4.12009 10.4469 4.7191 12.5564 6.6516 14.3405L6.65225 14.3411Z" fill="#AA9A8D"/>
<path d="M24.0543 19.8041C24.0063 18.8739 23.6083 18.1044 22.8952 17.4976C22.8077 17.423 22.7539 17.3025 22.7046 17.1942C22.68 17.1404 22.7 17.0665 22.7 17.0017C22.7 16.3955 22.7 15.7887 22.7 15.1722V11.8207C22.689 11.6858 22.6877 11.5432 22.689 11.3928C22.7143 8.68173 22.7013 5.97 22.6994 3.25892C22.6988 2.4622 22.3629 1.85347 21.6278 1.52026C20.4155 0.971168 19.0788 1.83661 19.071 3.17919C19.06 4.99889 19.0658 7.7735 19.0671 9.5932H19.071V17.0594C19.071 17.2577 19.0217 17.3893 18.8597 17.5229C17.7012 18.4804 17.3738 20.1127 18.0597 21.4255C18.7579 22.7609 20.2729 23.4157 21.7445 23.0183C23.1558 22.6365 24.1321 21.2945 24.0549 19.8041H24.0543ZM22.9321 20.9308C22.4971 21.8825 21.397 22.4121 20.3682 22.1652C19.2947 21.9071 18.5634 20.9568 18.6205 19.8593C18.6587 19.1267 18.9744 18.5199 19.5883 18.1122C19.8898 17.9118 19.9844 17.6785 19.9825 17.3323C19.9721 15.1833 19.976 13.0342 19.9767 10.8852C19.9767 10.7121 19.9767 10.5397 19.9767 10.3666V10.0029C20.3423 9.92382 20.8881 10.0963 20.8661 9.49855C20.846 8.96697 20.3559 9.09079 19.9948 9.04346V8.18126C20.3332 8.10801 20.8414 8.28369 20.8765 7.69181C20.8946 7.39037 20.6904 7.29118 19.9993 7.22376V6.36091C20.3371 6.29673 20.8978 6.46593 20.8654 5.85526C20.8376 5.3308 20.3403 5.46694 19.9916 5.40795V4.55352C20.3468 4.47897 20.892 4.64752 20.8654 4.04917C20.8421 3.52536 20.3572 3.63557 19.9896 3.6051C19.9896 3.39765 19.9643 3.20188 19.9948 3.01517C20.0668 2.56722 20.4758 2.24632 20.9154 2.26447C21.3717 2.28327 21.7464 2.64566 21.786 3.11241C21.7951 3.22003 21.7899 3.32829 21.7899 3.43655C21.7899 6.12753 21.7905 8.81786 21.7899 11.5082C21.7899 13.4504 21.7879 15.3926 21.784 17.3355C21.7834 17.683 21.8826 17.9105 22.1801 18.1141C23.1007 18.7429 23.3969 19.9131 22.9315 20.9315L22.9321 20.9308Z" fill="#AA9A8D"/>
<path d="M21.3385 18.6593C21.3385 16.2977 21.3385 13.9548 21.3385 11.6126C21.3385 11.5257 21.3443 11.4382 21.3372 11.3526C21.3353 11.3313 21.334 11.3105 21.3301 11.2898C21.2886 11.0486 21.1401 10.895 20.8918 10.8924C20.7213 10.8904 20.5969 10.9559 20.5197 11.0719C20.4776 11.1355 20.4491 11.2133 20.4348 11.3047C20.4199 11.4 20.429 11.4985 20.429 11.5958C20.429 13.831 20.4251 16.0656 20.4342 18.3008C20.4355 18.5498 20.3875 18.6989 20.147 18.8318C19.6543 19.104 19.4248 19.7193 19.5577 20.2567C19.7107 20.8758 20.1755 21.2732 20.794 21.3127C21.391 21.351 21.909 21.032 22.1339 20.4881C22.4295 19.7731 22.1482 19.1131 21.3385 18.66V18.6593Z" fill="#AA9A8D"/>
</g>
<defs>
<clipPath id="clip0_498_2122">
<rect width="27.232" height="25" fill="white"/>
</clipPath>
</defs>
</svg>
