<svg width="24" height="25" viewBox="0 0 24 25" fill="none" xmlns="http://www.w3.org/2000/svg">
<g clip-path="url(#clip0_498_2109)">
<path d="M22.0967 14.4798C21.7427 13.2597 20.9029 12.595 19.8664 12.1485C19.5452 12.0102 19.1721 11.9171 18.8253 11.9243C17.0893 11.9597 16.5229 10.7062 16.4436 9.49864C16.418 9.10988 16.5727 8.77226 16.8619 8.50412C16.9261 8.44446 16.993 8.38874 17.0592 8.3317C17.8446 7.6617 17.9062 7.01988 17.1942 6.26006C16.7786 5.81623 16.2928 5.43731 15.8346 5.03347C15.6379 4.86039 15.4261 4.70502 15.2301 4.53129C14.448 3.83899 14.288 3.04508 14.8538 2.16529C15.2098 1.61132 15.6831 1.13078 16.1217 0.63385C16.18 0.567636 16.3623 0.551246 16.4593 0.587303C19.4645 1.70966 21.5335 3.77868 22.589 6.80616C23.4492 9.27181 23.3049 11.7243 22.277 14.1238C22.2344 14.2228 22.1806 14.3159 22.0973 14.4804L22.0967 14.4798Z" fill="#AA9A8D"/>
<path d="M9.01966 0.875977C9.38481 1.57679 9.61558 2.29335 9.29697 3.06497C9.20191 3.29442 9.01376 3.50618 8.82101 3.67073C8.22509 4.1788 7.78257 4.79112 7.50133 5.51488C7.07061 6.62413 7.41938 7.58587 8.50043 8.08083C9.22485 8.41256 9.38547 8.78493 8.7371 9.47788C7.47904 10.8225 4.83114 11.3941 3.27478 9.11862C3.18562 8.98882 3.12465 8.79017 3.14891 8.63939C3.72058 5.08089 5.64209 2.51821 8.86953 0.927768C8.90755 0.908756 8.95082 0.899578 9.01966 0.875977Z" fill="#AA9A8D"/>
<path d="M20.4117 13.2198C19.7731 12.7543 19.0704 12.614 18.2974 12.5603C17.1003 12.4763 16.3648 11.7526 15.976 10.6407C15.5918 9.54261 15.6469 8.56186 16.6421 7.78237C16.9548 7.53718 16.9994 7.24807 16.7896 6.91045C16.6414 6.67182 16.4638 6.43908 16.2546 6.25421C15.7229 5.78416 15.1559 5.35475 14.6229 4.88666C13.8703 4.22452 13.6421 3.28442 14.0132 2.35611C14.1495 2.01455 14.3305 1.68283 14.5403 1.38061C14.7992 1.00758 15.1093 0.669954 15.3971 0.316595C14.2302 -0.220983 10.9405 -0.0452869 9.67585 0.634553C9.74338 0.789926 9.81418 0.94661 9.87908 1.10592C10.397 2.3784 10.0876 3.55517 9.095 4.42579C8.73837 4.7385 8.43746 5.1607 8.23226 5.59076C7.80613 6.48629 8.04935 7.14449 8.94946 7.54964C9.98004 8.01314 10.0023 8.91719 9.45557 9.67701C8.38632 11.1632 5.35884 12.2888 3.26556 10.1903C3.21049 10.1353 3.14625 10.09 3.04201 10.0035C3.03873 11.9965 3.56254 13.7639 4.58328 15.4061C4.738 15.2993 4.89534 15.1931 5.05399 15.0882C5.34441 14.8968 5.6486 14.8568 5.85249 14.8568C6.00852 14.8568 6.16062 14.8797 6.30419 14.9256C7.0686 15.1682 7.83563 15.4153 8.54694 15.6461C9.0596 15.2954 9.58735 14.9328 10.1223 14.565C10.6553 14.1992 11.1994 14.0209 11.7862 14.0209C12.1343 14.0209 12.4778 14.0865 12.8122 14.2169C13.1563 14.0484 13.5084 13.9298 13.867 13.8622C14.3738 13.1287 15.1605 12.7032 16.0448 12.7032C16.3785 12.7032 16.7083 12.7641 17.0525 12.8894C18.1243 13.2801 18.8684 14.1933 19.0428 15.3314C19.2283 16.5416 18.7354 17.6784 17.7231 18.372L17.4753 18.5418L17.4366 18.5687C16.865 18.9607 16.2776 19.3632 15.6921 19.7632C17.6635 19.2498 19.3713 18.1524 20.8129 16.4734C21.7779 15.3491 21.6016 14.0897 20.4091 13.2198H20.4117Z" fill="#FFB27B"/>
<path d="M5.064 23.915C4.59263 23.7596 4.08521 23.6705 3.65646 23.4358C2.49739 22.8018 1.3711 22.1076 0.233664 21.4343C-0.0764268 21.2507 -0.0783935 21.0842 0.223175 20.8764C0.736496 20.5237 1.259 20.1841 1.76445 19.8209C1.95326 19.6852 2.10404 19.6957 2.30531 19.7868C2.94909 20.0792 3.58369 20.4168 4.25763 20.6141C5.07187 20.8528 5.86512 20.6463 6.56659 20.1716C8.39436 18.9352 10.2162 17.6896 12.0355 16.4394C12.2439 16.2958 12.3928 16.2585 12.6412 16.3974C14.0088 17.1638 15.6471 16.642 16.3315 15.2266C16.4567 14.9676 16.6029 14.9571 16.8206 15.0364C17.0933 15.1361 17.2434 15.338 17.2867 15.6186C17.3345 15.9287 17.2257 16.1772 16.9655 16.3548C16.1361 16.9232 15.3075 17.4916 14.4775 18.058C12.0145 19.7396 9.54688 21.4159 7.08909 23.106C6.48071 23.5243 5.84742 23.837 5.08957 23.8252C5.08104 23.8547 5.07252 23.8842 5.06334 23.913L5.064 23.915ZM10.5034 19.1227C10.4994 18.81 10.1467 18.3773 9.98415 18.4324C9.85107 18.4776 9.69241 18.6251 9.66029 18.7556C9.60391 18.9863 9.98153 19.4144 10.1736 19.3594C10.3139 19.3194 10.4267 19.181 10.5034 19.1227ZM11.6251 18.3635C11.6231 18.0226 11.3124 17.6581 11.1111 17.6607C10.9066 17.6634 10.7853 17.7709 10.7722 17.9767C10.7571 18.216 11.0986 18.629 11.2979 18.5818C11.4363 18.5491 11.551 18.416 11.6251 18.3635ZM9.36331 19.8963C9.35151 19.5364 9.04732 19.1797 8.84278 19.1928C8.62512 19.2066 8.5045 19.3358 8.50909 19.5528C8.51368 19.7861 8.85982 20.1664 9.04404 20.1166C9.18106 20.0792 9.29251 19.9481 9.36331 19.8963ZM7.65683 19.914C7.5657 20.0372 7.42803 20.1493 7.3946 20.2864C7.34215 20.4994 7.67453 20.8954 7.87514 20.9C8.09148 20.9052 8.22653 20.7977 8.23505 20.5728C8.24358 20.3434 7.92955 19.9756 7.65748 19.914H7.65683ZM6.52988 20.6882C6.43745 20.8095 6.29715 20.919 6.26437 21.054C6.20996 21.2802 6.57381 21.7182 6.76786 21.6637C6.89963 21.627 7.05566 21.4749 7.09106 21.3445C7.14941 21.1314 6.80392 20.7512 6.52988 20.6882ZM12.1627 16.8295C12.0768 16.9553 11.9437 17.0714 11.9148 17.2091C11.8683 17.4293 12.2007 17.8115 12.4026 17.8122C12.6222 17.8122 12.7487 17.6948 12.7527 17.4746C12.7566 17.2451 12.4321 16.8819 12.1627 16.8288V16.8295Z" fill="#AA9A8D"/>
<path d="M9.8519 17.1095C9.33202 17.4642 8.80559 17.8274 8.27194 18.1807C8.22277 18.2135 8.11985 18.2023 8.05888 18.1748C7.10566 17.7389 6.15507 17.2976 5.20513 16.8558C5.18874 16.8479 5.18087 16.8217 5.15137 16.7784C5.52571 16.5195 5.89742 16.2553 6.27766 16.0055C6.33928 15.9648 6.44942 15.9583 6.52285 15.9819C7.62554 16.332 8.72561 16.6893 9.82633 17.0459C9.83223 17.0479 9.83354 17.0629 9.8519 17.1108V17.1095Z" fill="#AA9A8D"/>
<path d="M12.2058 20.4377C12.1744 20.9419 12.1468 21.3634 12.1219 21.785C12.0839 22.4274 12.0334 23.0699 12.0151 23.7137C12.0065 24.0153 11.9121 24.2211 11.644 24.3758C11.3346 24.5541 11.0481 24.7718 10.7111 24.9999C10.6914 24.8616 10.6724 24.7698 10.6672 24.6767C10.6147 23.7399 10.5702 22.8024 10.5085 21.8656C10.4954 21.6637 10.5571 21.5483 10.7236 21.4401C11.1982 21.1327 11.6617 20.8081 12.2058 20.4377Z" fill="#AA9A8D"/>
<path d="M13.0273 15.8009C13.7911 15.1493 14.6309 14.7703 15.6615 14.9506C15.4012 15.8986 13.8999 16.3837 13.0273 15.8009Z" fill="#AA9A8D"/>
</g>
<defs>
<clipPath id="clip0_498_2109">
<rect width="23.1513" height="25" fill="white"/>
</clipPath>
</defs>
</svg>
