<svg width="17" height="16" viewBox="0 0 17 16" fill="none" xmlns="http://www.w3.org/2000/svg">
<g clip-path="url(#clip0_2001_1264)">
<path d="M15.2888 6.23404V6.5121C15.2888 8.73361 15.2888 10.9547 15.2888 13.1762C15.2888 13.5524 15.2079 13.6329 14.8296 13.6329C11.3811 13.6329 7.93271 13.6329 4.48427 13.6329C4.10972 13.6329 4.02973 13.5516 4.02973 13.172C4.02973 10.9505 4.02973 8.72938 4.02973 6.50787V6.22685C3.66914 6.22685 3.31956 6.22812 2.96998 6.22558C2.89337 6.22516 2.81127 6.22643 2.74144 6.20061C2.50993 6.11343 2.482 5.85357 2.6915 5.67581C3.10541 5.32454 3.52652 4.98172 3.94466 4.63553C5.7167 3.17117 7.48874 1.70724 9.26079 0.243302C9.30988 0.203096 9.35897 0.16289 9.40891 0.123953C9.61799 -0.0394115 9.7039 -0.044067 9.91213 0.126492C10.5669 0.662295 11.2186 1.20191 11.8712 1.74067C13.3936 2.99765 14.9155 4.25547 16.4374 5.51287C16.5026 5.56662 16.5678 5.62079 16.6317 5.67623C16.7404 5.77104 16.8285 5.89843 16.74 6.02497C16.6744 6.11893 16.5386 6.20907 16.4281 6.21754C16.0984 6.24251 15.7657 6.22643 15.4344 6.22685C15.3933 6.22685 15.3527 6.23066 15.2888 6.23404ZM14.6899 6.24209H4.63494V13.0243H9.65862C9.65862 12.9328 9.65862 12.8562 9.65862 12.7792C9.65862 11.5235 9.65862 10.2682 9.65862 9.01251C9.65862 8.69044 9.753 8.59521 10.0717 8.59521C11.0735 8.59437 12.0748 8.59479 13.0766 8.59521C13.4236 8.59521 13.5112 8.68367 13.5112 9.03367C13.5112 10.2894 13.5112 11.5447 13.5112 12.8004C13.5112 12.8753 13.5112 12.9498 13.5112 13.0221H14.6899V6.24209ZM15.6197 5.62079C15.5613 5.56704 15.5283 5.53403 15.4928 5.50441C13.6022 3.94228 11.71 2.38143 9.82283 0.814655C9.68909 0.703771 9.61248 0.71943 9.48806 0.822697C7.61148 2.37974 5.73067 3.9317 3.85113 5.48536C3.80627 5.5226 3.76606 5.56493 3.70723 5.62037H15.6197V5.62079ZM12.8997 13.0344V9.20339H10.2685V13.0344H12.8997Z" fill="#3E3E3E"/>
<path d="M16.177 15.4202H3.14172C3.14172 15.5189 3.1468 15.6086 3.14087 15.6975C3.12902 15.8773 3.03168 15.9865 2.85012 15.9996C2.6931 16.0111 2.55597 15.882 2.55259 15.7063C2.54497 15.3115 2.54497 14.9166 2.55259 14.5217C2.55597 14.3457 2.69183 14.2174 2.84969 14.2284C3.03168 14.2411 3.12817 14.3503 3.14087 14.5302C3.1468 14.6144 3.14172 14.6991 3.14172 14.8006H16.177C16.177 14.7181 16.1728 14.6297 16.1779 14.5416C16.1885 14.3516 16.3137 14.2166 16.4788 14.2289C16.6604 14.2424 16.7645 14.3524 16.7674 14.5323C16.7742 14.92 16.7738 15.3081 16.7674 15.6958C16.7645 15.8761 16.6612 15.9857 16.4796 16.0001C16.315 16.0132 16.1885 15.8777 16.1775 15.6881C16.1728 15.6048 16.1766 15.521 16.1766 15.4211L16.177 15.4202Z" fill="#3E3E3E"/>
<path d="M0.761604 13.0405V0.596849C0.662569 0.596849 0.572422 0.601928 0.483545 0.595579C0.303675 0.582883 0.194483 0.485964 0.182633 0.303978C0.172052 0.145692 0.300289 0.0106833 0.476774 0.00729747C0.871642 0.000102652 1.26651 0.000102652 1.66138 0.00772069C1.83659 0.0111065 1.96525 0.148654 1.95383 0.306094C1.94028 0.487657 1.83109 0.584152 1.65122 0.596426C1.567 0.601928 1.48235 0.597272 1.38163 0.597272V13.0409C1.47304 13.0409 1.56912 13.0346 1.66392 13.0422C1.83871 13.0562 1.9661 13.1865 1.95383 13.3439C1.94071 13.5149 1.83913 13.6245 1.66942 13.6288C1.26778 13.6385 0.865294 13.6389 0.463654 13.6284C0.294787 13.6241 0.193213 13.5132 0.18221 13.3414C0.172052 13.1831 0.299019 13.0557 0.474658 13.0422C0.564804 13.035 0.655374 13.0409 0.761181 13.0409L0.761604 13.0405Z" fill="#3E3E3E"/>
<path d="M7.13316 11.2629C6.8094 11.2629 6.48521 11.2655 6.16144 11.2621C5.92189 11.2596 5.80932 11.1508 5.80805 10.9142C5.80466 10.2595 5.80508 9.60474 5.80805 8.94959C5.80889 8.70962 5.91851 8.59747 6.15551 8.59662C6.81024 8.59324 7.46497 8.59366 8.12012 8.59662C8.35967 8.59747 8.47225 8.70751 8.47351 8.94409C8.4769 9.59882 8.4769 10.2535 8.47351 10.9087C8.47225 11.1554 8.35967 11.2608 8.10489 11.2629C7.78112 11.2655 7.45693 11.2638 7.13316 11.2634V11.2629ZM6.41114 10.6552H7.86449V9.20014H6.41114V10.6552Z" fill="#3E3E3E"/>
</g>
<defs>
<clipPath id="clip0_2001_1264">
<rect width="16.5946" height="16" fill="white" transform="translate(0.181641)"/>
</clipPath>
</defs>
</svg>
