<svg width="17" height="16" viewBox="0 0 17 16" fill="none" xmlns="http://www.w3.org/2000/svg">
<path d="M8.5 1.5C6.01562 1.5 4 3.41844 4 5.78125C4 8.5 7 12.8084 8.10156 14.2966C8.14729 14.3594 8.20722 14.4105 8.27646 14.4457C8.34571 14.481 8.4223 14.4994 8.5 14.4994C8.5777 14.4994 8.65429 14.481 8.72354 14.4457C8.79278 14.4105 8.85271 14.3594 8.89844 14.2966C10 12.8091 13 8.50219 13 5.78125C13 3.41844 10.9844 1.5 8.5 1.5Z" stroke="#3E3E3E" stroke-linecap="round" stroke-linejoin="round"/>
<path d="M8.5 7.5C9.32843 7.5 10 6.82843 10 6C10 5.17157 9.32843 4.5 8.5 4.5C7.67157 4.5 7 5.17157 7 6C7 6.82843 7.67157 7.5 8.5 7.5Z" stroke="#3E3E3E" stroke-linecap="round" stroke-linejoin="round"/>
</svg>
