<svg width="27" height="18" viewBox="0 0 27 18" fill="none" xmlns="http://www.w3.org/2000/svg">
<path d="M1.22329 7.78142C0.662221 7.70899 0.259541 7.46352 0.0713506 6.94615C-0.0706687 6.55639 0.0105687 6.19768 0.215708 5.84587C0.292854 5.71365 0.342532 5.55154 0.351883 5.39978C0.372338 5.08475 0.357143 4.768 0.358312 4.45183C0.35948 3.97872 0.455913 3.88445 0.941 3.87927C1.01873 3.8787 1.09588 3.87927 1.2227 3.87927C1.2227 3.61311 1.22855 3.35902 1.22153 3.10494C1.20458 2.48639 1.24316 1.88508 1.56635 1.3246C2.14787 0.319742 3.34481 -0.20338 4.48447 0.0737023C5.62296 0.35021 6.46047 1.36426 6.48794 2.50651C6.49729 2.90891 6.49495 3.31131 6.49086 3.71371C6.48794 4.03046 6.36929 4.1529 6.0537 4.15808C5.61536 4.1644 5.17703 4.1644 4.7387 4.15808C4.40849 4.15348 4.2916 4.03218 4.28576 3.69532C4.2805 3.36017 4.28868 3.02446 4.28225 2.68931C4.27582 2.35877 4.11919 2.18574 3.8486 2.19206C3.59203 2.19838 3.44241 2.36854 3.44066 2.68471C3.43598 3.54585 3.4389 4.40699 3.4389 5.31182H3.82639C10.7999 5.31182 17.7735 5.31297 24.7465 5.30952C25.3192 5.30952 25.7833 5.48255 26.0498 6.0074C26.4069 6.71103 26.0077 7.5394 25.2321 7.72911C25.148 7.7498 25.0627 7.76647 24.9119 7.79924C24.9119 8.4747 24.9633 9.15706 24.9014 9.82964C24.7564 11.4076 24.0469 12.7223 22.8126 13.741C22.5297 13.9744 22.4555 14.1836 22.5221 14.5383C22.7085 15.5265 22.847 16.5233 22.9996 17.5172C23.0446 17.8121 22.9084 17.976 22.5998 17.9863C22.2398 17.9984 21.8763 18.0156 21.5204 17.9783C21.362 17.9616 21.1685 17.8501 21.0756 17.7219C20.5286 16.9648 20.002 16.1933 19.4795 15.419C19.372 15.2598 19.2644 15.1914 19.0599 15.1914C15.0763 15.1988 11.0933 15.1983 7.10978 15.1914C6.91867 15.1914 6.81347 15.2488 6.71002 15.4023C6.18753 16.1767 5.64868 16.9395 5.1256 17.7133C4.99235 17.9104 4.82929 17.9995 4.59201 17.9926C4.2805 17.984 3.96841 17.9944 3.6569 17.9892C3.25714 17.9823 3.1309 17.8351 3.1911 17.4511C3.35007 16.4388 3.50085 15.4247 3.67619 14.4147C3.72236 14.148 3.66742 13.9842 3.44709 13.8105C2.42665 13.0063 1.72357 11.9721 1.44537 10.7207C1.27881 9.97163 1.28699 9.18408 1.22504 8.41319C1.20867 8.21371 1.2227 8.01194 1.2227 7.78142H1.22329ZM1.88663 7.79291C1.92929 8.58162 1.9404 9.34676 2.02397 10.1038C2.06722 10.4965 2.19229 10.8972 2.36061 11.2576C3.35299 13.3811 5.05839 14.4837 7.4283 14.5015C11.2067 14.5291 14.9851 14.5096 18.7635 14.5084C19.9032 14.5084 20.9587 14.2239 21.8991 13.5766C23.9592 12.1572 24.4432 10.1205 24.2211 7.79406H1.88663V7.79291ZM13.0921 6.00568C9.23598 6.00568 5.37983 6.00568 1.52427 6.00625C1.39803 6.00625 1.26829 6.0005 1.14614 6.0258C0.876711 6.08213 0.716574 6.25804 0.707223 6.52765C0.697872 6.79956 0.85158 6.97949 1.11458 7.05365C1.2151 7.08181 1.32615 7.08469 1.43193 7.08469C9.20267 7.08584 16.9728 7.08584 24.7436 7.08469C24.8493 7.08469 24.9598 7.08066 25.0609 7.05365C25.3268 6.98236 25.4718 6.80301 25.4753 6.53167C25.4788 6.27874 25.2795 6.06259 25.0095 6.02005C24.8949 6.00223 24.7769 6.00568 24.66 6.00568C20.8038 6.0051 16.9477 6.00568 13.0921 6.00568ZM2.73933 3.86088C2.73933 3.40329 2.72238 2.96467 2.74342 2.52778C2.77264 1.92188 3.27058 1.48383 3.88542 1.49533C4.46168 1.50568 4.92923 1.92073 4.97306 2.49099C4.99761 2.80946 4.97774 3.13138 4.97774 3.451H5.78544C5.78544 3.11126 5.80005 2.78761 5.78251 2.46569C5.73751 1.63445 5.10748 0.919895 4.27816 0.740539C3.43949 0.559459 2.58562 0.948063 2.17242 1.68101C1.78201 2.37429 1.97663 3.11643 1.92111 3.8603H2.73991L2.73933 3.86088ZM3.92107 17.3362C4.19868 17.2821 4.51311 17.3143 4.61188 17.1861C5.12502 16.5187 5.58322 15.8105 6.06129 15.1155C5.48971 14.9074 4.94209 14.7079 4.36992 14.4998C4.22498 15.4156 4.08062 16.3273 3.92107 17.3362ZM20.1171 15.1143C20.535 15.7197 20.9786 16.3026 21.3515 16.9257C21.5759 17.3005 21.85 17.3442 22.2462 17.2563C22.1001 16.3325 21.9552 15.4144 21.8108 14.5004C21.2416 14.7067 20.6998 14.9028 20.1171 15.1138V15.1143ZM2.71536 4.58807H1.08127V5.2917H2.71536V4.58807Z" fill="#3E3E3E"/>
</svg>
