<svg width="27" height="25" viewBox="0 0 27 25" fill="none" xmlns="http://www.w3.org/2000/svg">
<g clip-path="url(#clip0_498_2099)">
<path d="M8.17563 15.5618C8.37325 14.1641 8.56458 12.8184 8.75501 11.4728C8.76759 11.3839 8.78376 11.2959 8.79274 11.2069C8.90323 10.058 9.6524 9.30977 10.8264 9.28192C12.3517 9.24599 13.8797 9.2451 15.4041 9.28192C16.5925 9.31157 17.2905 10.0473 17.4414 11.2536C17.6111 12.6038 17.8178 13.9494 18.0073 15.2977C18.0172 15.3696 18.0199 15.4423 18.0297 15.5618C17.5051 15.5618 16.9994 15.56 16.4937 15.5618C15.8415 15.5645 15.6313 15.7711 15.6304 16.4161C15.6286 18.7803 15.6304 21.1455 15.6295 23.5098C15.6295 24.5104 15.1436 24.9946 14.1447 24.9964C13.4117 24.9982 12.6787 25.0027 11.9448 24.9946C11.1238 24.9856 10.6001 24.4646 10.5974 23.6418C10.592 21.247 10.5956 18.8522 10.5947 16.4583C10.5947 15.7558 10.3962 15.5627 9.68294 15.5609C9.19248 15.56 8.70112 15.5609 8.17383 15.5609L8.17563 15.5618Z" fill="#FFB27B"/>
<path d="M18.7715 16.8661C19.3778 16.5867 19.4398 16.4457 19.3491 15.8106C19.1164 14.1811 18.8883 12.5508 18.6754 10.9186C18.5307 9.81281 17.9648 9.00166 17.0234 8.45281C17.1465 7.51232 17.9666 6.77213 18.9484 6.75866C20.5204 6.738 22.0924 6.738 23.6635 6.75866C24.5887 6.77034 25.4107 7.45123 25.5625 8.37826C25.814 9.91162 26.0035 11.4549 26.2263 13.0457C25.6837 13.0457 25.1771 13.0439 24.6714 13.0457C24.0183 13.0484 23.8063 13.2541 23.8063 13.8991C23.8045 16.2651 23.8063 18.6312 23.8054 20.9964C23.8054 21.9962 23.3195 22.4785 22.317 22.4812C21.5831 22.483 20.8501 22.4875 20.1162 22.4794C19.3132 22.4705 18.7805 21.9557 18.7751 21.1662C18.7652 19.8331 18.7724 18.501 18.7724 17.1679C18.7724 17.0781 18.7724 16.9892 18.7724 16.8661H18.7715Z" fill="#AA9A8D"/>
<path d="M0 13.0449C0.220078 11.4649 0.411412 9.93598 0.651252 8.4143C0.801265 7.45763 1.64385 6.76236 2.6122 6.75428C4.15364 6.7408 5.69599 6.7408 7.23833 6.75607C8.21925 6.76595 8.98908 7.4217 9.22083 8.41789C9.12202 8.49065 9.01692 8.57149 8.90823 8.64605C8.15008 9.16705 7.70094 9.88568 7.57069 10.7911C7.32007 12.5239 7.08652 14.2585 6.84129 15.9922C6.77392 16.4692 7.01735 16.7198 7.45212 16.85C7.45212 18.3277 7.4656 19.7946 7.44583 21.2606C7.43685 21.9361 6.91315 22.4544 6.23855 22.4724C5.37081 22.4957 4.50128 22.4975 3.63444 22.4724C2.91042 22.4517 2.42356 21.8957 2.42176 21.1249C2.41637 18.7589 2.41996 16.3928 2.41996 14.0267C2.41996 13.2192 2.24929 13.0449 1.45791 13.0449C0.981819 13.0449 0.505731 13.0449 0.000898279 13.0449H0Z" fill="#AA9A8D"/>
<path d="M4.95241 2.92352e-05C6.28545 0.00631719 7.30051 1.04563 7.28524 2.38676C7.26997 3.69465 6.23695 4.70521 4.92187 4.69803C3.59241 4.69174 2.57377 3.64884 2.58904 2.3104C2.60341 1.00251 3.63553 -0.00625872 4.95241 2.92352e-05Z" fill="#AA9A8D"/>
<path d="M21.2486 4.69885C19.9254 4.68178 18.9149 3.6263 18.9409 2.28697C18.9652 0.983565 20.009 -0.0162198 21.3285 -5.07812e-05C22.6553 0.0161182 23.6623 1.068 23.6362 2.41093C23.6111 3.71343 22.5664 4.71502 21.2486 4.69795V4.69885Z" fill="#AA9A8D"/>
<path d="M15.4599 4.85976C15.4617 6.1946 14.4304 7.22223 13.0947 7.21505C11.7823 7.20786 10.7655 6.18472 10.7637 4.87054C10.7619 3.5357 11.7931 2.50896 13.1288 2.51615C14.443 2.52334 15.4581 3.54288 15.4599 4.85976Z" fill="#FFB27B"/>
</g>
<defs>
<clipPath id="clip0_498_2099">
<rect width="26.227" height="25" fill="white"/>
</clipPath>
</defs>
</svg>
