<svg width="22" height="18" viewBox="0 0 22 18" fill="none" xmlns="http://www.w3.org/2000/svg">
<g clip-path="url(#clip0_2001_1252)">
<path d="M1.41018 15.8686C0.767694 15.713 0.303929 15.3756 0.10293 14.766C0.0396431 14.5744 0.00926541 14.3646 0.00724024 14.1632C-0.00237935 13.162 -0.00136676 12.1608 0.00420247 11.1597C0.00977171 10.1319 0.714533 9.43899 1.76864 9.4385C7.9196 9.43554 14.0706 9.43554 20.2215 9.4385C21.2913 9.4385 21.9921 10.1284 21.9971 11.1739C22.0017 12.1589 22.0007 13.1433 21.9971 14.1282C21.9946 14.9935 21.5875 15.5342 20.743 15.8312C20.6762 15.8548 20.6018 15.9607 20.5972 16.0321C20.58 16.3019 20.5911 16.5733 20.5901 16.8441C20.5871 17.6144 20.1967 17.997 19.4115 17.9995C19.1244 18.0005 18.8378 18 18.5508 17.9995C17.7498 17.9975 17.3615 17.6173 17.359 16.8313C17.3579 16.529 17.359 16.2266 17.359 15.908H4.64135C4.64135 16.2335 4.64338 16.5516 4.64135 16.8702C4.63629 17.607 4.23834 17.9955 3.48599 17.9995C3.1736 18.0009 2.86173 18.0014 2.54934 17.9995C1.82382 17.9945 1.41828 17.605 1.41119 16.9042C1.40765 16.561 1.41069 16.2172 1.41069 15.8691L1.41018 15.8686ZM10.9989 10.1388C7.93581 10.1388 4.87273 10.1383 1.81015 10.1393C1.13273 10.1393 0.696813 10.5165 0.6877 11.1468C0.672511 12.1805 0.675042 13.2152 0.6877 14.2489C0.693775 14.7477 1.00363 15.1191 1.4679 15.2136C1.61118 15.2427 1.76712 15.2111 1.91698 15.2131C2.85211 15.2254 3.78774 15.2505 4.72286 15.2515C8.90789 15.256 13.0934 15.2535 17.2785 15.253C17.363 15.253 17.447 15.2496 17.5316 15.2486C18.45 15.2387 19.3684 15.2313 20.2869 15.2171C20.4256 15.2151 20.5749 15.2082 20.7 15.158C21.1445 14.9787 21.3146 14.6182 21.3167 14.1735C21.3212 13.2216 21.3187 12.2697 21.3182 11.3177C21.3177 10.513 20.9354 10.1393 20.1132 10.1393C17.0754 10.1393 14.0377 10.1393 11.0004 10.1393L10.9989 10.1388ZM19.9071 15.9144H18.0435C18.0435 16.2768 18.0374 16.6206 18.0455 16.9633C18.0511 17.2036 18.1771 17.3184 18.4288 17.3218C18.7908 17.3268 19.1533 17.3268 19.5153 17.3218C19.777 17.3184 19.9 17.2012 19.9056 16.9436C19.9127 16.6083 19.9071 16.2729 19.9071 15.9139V15.9144ZM2.0952 15.9021C2.0952 16.2852 2.08558 16.6442 2.09925 17.0022C2.10684 17.1992 2.23291 17.3194 2.44353 17.3218C2.83084 17.3263 3.21866 17.3248 3.60598 17.3228C3.79179 17.3218 3.93254 17.2229 3.94216 17.052C3.96342 16.6718 3.94874 16.2896 3.94874 15.9021H2.0952Z" fill="#3E3E3E"/>
<path d="M10.9752 0.675661C8.72222 0.675661 6.46971 0.675661 4.21671 0.675661C3.46385 0.675661 3.05982 1.06618 3.05932 1.79798C3.0578 3.09464 3.05932 4.39129 3.0583 5.68794C3.0583 5.76969 3.06235 5.85341 3.04717 5.93319C3.01426 6.10309 2.88465 6.21143 2.72466 6.17795C2.60011 6.15184 2.47809 6.04252 2.39253 5.94058C2.34494 5.88394 2.36974 5.76674 2.36974 5.67662C2.36873 4.39622 2.36772 3.11631 2.36974 1.8359C2.37076 0.6796 3.06995 0.000987016 4.25923 0.000494553C8.75665 -0.000490372 13.2536 -0.000490372 17.751 0.000494553C18.9266 0.000494553 19.6293 0.681078 19.6318 1.82014C19.6344 3.1168 19.6359 4.41345 19.6268 5.70961C19.6258 5.83618 19.5817 6.00164 19.4926 6.0765C19.4141 6.14249 19.2197 6.15332 19.124 6.10309C19.0319 6.05434 18.9544 5.89773 18.9509 5.78594C18.9332 5.24473 18.9428 4.70302 18.9423 4.16131C18.9423 3.35712 18.9448 2.55293 18.9413 1.74874C18.9382 1.08194 18.5185 0.676153 17.835 0.675661C15.5486 0.674183 13.2622 0.675661 10.9752 0.675661Z" fill="#3E3E3E"/>
<path d="M11.0262 6.42468C13.4979 6.42468 15.9697 6.42222 18.4414 6.42566C19.5157 6.42714 20.3182 7.04223 20.544 8.03109C20.5764 8.17341 20.5871 8.3246 20.5815 8.47037C20.5739 8.6708 20.4529 8.79293 20.2438 8.7954C20.0317 8.79737 19.9172 8.67622 19.9101 8.47185C19.897 8.10545 19.7826 7.77846 19.5193 7.51105C19.2216 7.20868 18.8505 7.09246 18.4232 7.09344C16.2805 7.09837 14.1379 7.09541 11.9953 7.09541C9.22835 7.09541 6.46146 7.09541 3.69456 7.09541C2.68602 7.09541 2.20352 7.51204 2.09163 8.48071C2.06834 8.68459 1.95898 8.7954 1.74735 8.79687C1.5423 8.79835 1.42332 8.66834 1.4137 8.44427C1.37016 7.45737 2.22479 6.52514 3.25763 6.4365C3.4085 6.4237 3.5609 6.42419 3.71278 6.42419C6.15059 6.4237 8.5889 6.42419 11.0267 6.42419L11.0262 6.42468Z" fill="#3E3E3E"/>
<path d="M6.96605 3.74268C7.67587 3.76533 8.34874 3.89485 8.93199 4.30408C9.4079 4.63797 9.71826 5.06789 9.69042 5.66968C9.6813 5.87061 9.59473 6.01785 9.37094 6.05036C9.15172 6.08237 8.97502 5.94448 9.00034 5.72533C9.05502 5.25158 8.79934 4.9497 8.4181 4.74828C7.47487 4.24991 6.51089 4.24942 5.56209 4.73499C5.18541 4.92754 4.93074 5.22203 4.95201 5.67805C4.96112 5.87553 4.8872 6.03952 4.64975 6.05873C4.45027 6.07449 4.29231 5.9361 4.27307 5.7076C4.22446 5.12896 4.50242 4.6951 4.95454 4.35628C5.54741 3.91159 6.24255 3.76927 6.96655 3.74268H6.96605Z" fill="#3E3E3E"/>
<path d="M15.0205 3.73975C15.907 3.78555 16.7424 3.96432 17.3656 4.65377C17.6142 4.92856 17.7428 5.25408 17.7347 5.62293C17.7286 5.8997 17.5889 6.05531 17.358 6.05531C17.1383 6.05531 17.0386 5.91644 17.0461 5.62244C17.0563 5.23241 16.831 4.97682 16.5201 4.78082C16.1444 4.54395 15.7242 4.42969 15.2797 4.39522C14.6939 4.34992 14.1334 4.44151 13.6185 4.72369C13.2302 4.93693 12.9598 5.22995 12.9882 5.70714C12.9998 5.90068 12.9102 6.05137 12.6864 6.0563C12.4672 6.06122 12.3422 5.93958 12.3163 5.7293C12.2566 5.25014 12.452 4.86011 12.7882 4.53311C13.2687 4.06527 13.8798 3.8673 14.5359 3.77767C14.6944 3.75601 14.8554 3.75157 15.0195 3.73877L15.0205 3.73975Z" fill="#3E3E3E"/>
</g>
<defs>
<clipPath id="clip0_2001_1252">
<rect width="22" height="18" fill="white"/>
</clipPath>
</defs>
</svg>
