<svg width="20" height="20" viewBox="0 0 20 20" fill="none" xmlns="http://www.w3.org/2000/svg">
<g clip-path="url(#clip0_621_5331)">
<path d="M19.9989 10.1828C19.8523 15.8626 15.1806 20.2174 9.6047 19.9918C4.04445 19.7662 -0.189206 15.1525 0.00652045 9.65118C0.205281 4.07295 4.81825 -0.200376 10.3628 0.00699358C15.9226 0.215374 20.0647 4.76637 19.9989 10.1822V10.1828ZM14.5034 5.10777C14.6531 5.44158 14.8079 5.77742 14.9546 6.11629C15.0567 6.3535 14.9915 6.54317 14.7932 6.62308C14.6066 6.69844 14.4407 6.61398 14.3355 6.38891C14.1929 6.08392 14.0467 5.78046 13.9112 5.47244C13.8459 5.32475 13.7711 5.28328 13.6012 5.32879C13.1869 5.44007 12.7682 5.54072 12.3454 5.60798C11.6899 5.71217 11.0299 5.78501 10.3583 5.87301V9.64005H15.1301C15.126 9.55103 15.128 9.47719 15.1184 9.40486C15.0759 9.09634 15.0072 8.78933 14.996 8.4798C14.9915 8.35639 15.081 8.17582 15.1826 8.11816C15.2691 8.06961 15.4467 8.13789 15.5594 8.19909C15.6206 8.23247 15.6464 8.35689 15.6616 8.4449C15.7304 8.84092 15.789 9.23846 15.8518 9.6355H19.2873C19.2873 9.49135 19.2975 9.36541 19.2858 9.2415C19.1159 7.39085 18.4751 5.72482 17.3286 4.25806C17.0929 3.95662 17.0969 3.96522 16.7571 4.11746C16.0131 4.45026 15.2651 4.77396 14.5034 5.10777ZM9.63505 13.6731V10.3421C9.32502 10.3421 9.03168 10.3486 8.73885 10.34C8.46321 10.332 8.30744 10.1544 8.36207 9.92329C8.41163 9.71137 8.57246 9.65624 8.76464 9.65522C9.05545 9.65421 9.34677 9.65522 9.63353 9.65522V5.92157C8.44501 5.7496 7.28329 5.58168 6.08466 5.4082C5.42516 6.70451 4.92598 8.10602 4.81623 9.65522C5.49192 9.65522 6.12259 9.6527 6.75326 9.65624C7.03092 9.65775 7.19125 9.7933 7.18518 10.0072C7.17962 10.2116 7.02536 10.3395 6.76136 10.3416C6.22222 10.3456 5.68309 10.3431 5.14396 10.3431C5.02966 10.3431 4.91586 10.3431 4.8137 10.3431C4.79752 10.3972 4.78841 10.4129 4.78841 10.4281C4.77881 11.7213 5.07214 12.9483 5.58498 14.1293C5.64769 14.274 5.73518 14.2487 5.84898 14.227C6.45234 14.1106 7.05368 13.9811 7.66109 13.8926C8.30997 13.7986 8.96442 13.746 9.63505 13.6731ZM2.78513 15.897C4.32919 17.7087 6.21211 18.8012 8.53503 19.1532C8.49558 19.0764 8.41011 19.0475 8.35296 18.9909C8.02271 18.6662 7.69498 18.3389 7.37484 18.0041C7.17709 17.7972 7.16394 17.6015 7.31566 17.4503C7.47346 17.2925 7.65199 17.3183 7.85985 17.5302C7.94229 17.6147 8.01815 17.7052 8.10312 17.7871C8.59673 18.2626 9.09187 18.7365 9.63707 19.2595V14.3878C8.39241 14.4207 7.18872 14.6139 5.95266 14.8976C6.15546 15.2279 6.3345 15.5202 6.51506 15.8121C6.62885 15.9967 6.62025 16.1666 6.44223 16.3027C6.27887 16.4276 6.08162 16.3806 5.94406 16.1823C5.82925 16.0164 5.72153 15.8444 5.61987 15.6699C5.26231 15.0554 5.26079 15.0453 4.58257 15.2663C3.99388 15.4585 3.41277 15.675 2.78563 15.896L2.78513 15.897ZM2.85694 4.01681C1.52125 5.6272 0.786391 7.50162 0.685241 9.63955H4.14459C4.27963 8.04988 4.76212 6.57352 5.45146 5.19072C4.576 4.79469 3.72785 4.41081 2.85694 4.01681ZM10.3532 13.6635C10.4058 13.6757 10.4296 13.6863 10.4534 13.6863C11.7218 13.6838 12.974 13.8264 14.2101 14.1086C14.3593 14.1425 14.4114 14.0793 14.4448 13.9614C14.6602 13.1937 14.9025 12.4319 15.078 11.6556C15.1725 11.2383 15.1528 10.7952 15.1847 10.3598H10.3532V13.664V13.6635ZM0.684229 10.3552C0.774253 12.1963 1.32654 13.8491 2.35979 15.3255C3.24081 15.0175 4.09452 14.7191 4.96846 14.4136C4.40708 13.1178 4.10767 11.7719 4.11829 10.3552H0.684229ZM15.1053 14.2917C15.8695 14.6033 16.6433 14.9077 17.4064 15.238C17.586 15.3159 17.6644 15.2962 17.767 15.1389C18.4508 14.0889 18.9283 12.9559 19.1467 11.7203C19.2251 11.2768 19.2701 10.8276 19.3334 10.3598H15.915C15.8275 11.0461 15.782 11.7193 15.6464 12.3743C15.5109 13.0298 15.2853 13.6666 15.1048 14.2917H15.1053ZM10.3537 19.2023C11.8588 17.9136 13.1394 16.5171 14.0594 14.7793C12.8177 14.4768 11.5969 14.36 10.3537 14.3726V19.2023ZM14.7679 14.9163C13.9147 16.5778 12.7566 17.9399 11.4441 19.1841C13.7726 18.8083 15.6753 17.7113 17.2345 15.8616C16.3793 15.5339 15.5812 15.2279 14.7679 14.9158V14.9163ZM9.63757 0.782352C8.3742 1.97194 7.32628 3.25763 6.46043 4.73198C7.51897 4.98385 8.55729 5.15936 9.63757 5.15127V0.782352ZM3.40417 3.46247C3.42996 3.48321 3.45222 3.51103 3.48104 3.52367C4.20275 3.84484 4.92598 4.16247 5.64718 4.48566C5.80194 4.55495 5.85252 4.4624 5.91624 4.35315C6.58181 3.21363 7.3713 2.16616 8.26698 1.1981C8.38179 1.07419 8.49356 0.947742 8.6291 0.798031C6.642 1.03322 4.49811 2.20966 3.40467 3.46247H3.40417ZM16.5725 3.45185C15.7309 2.29362 12.5628 0.698899 11.3855 0.821803C11.3855 0.829895 11.3819 0.841528 11.3855 0.845574C12.4081 1.91327 13.3189 3.06645 14.0766 4.33848C14.1074 4.39058 14.2521 4.42143 14.3203 4.39715C14.7477 4.24491 15.172 4.08205 15.5908 3.90655C15.921 3.76796 16.2412 3.60611 16.5714 3.45185H16.5725ZM13.4687 4.66724C12.5998 3.22981 11.5847 1.96689 10.3628 0.818768V5.14924C11.4198 5.10979 12.4308 4.93581 13.4687 4.66774V4.66724Z" fill="#E3DEC8"/>
</g>
<defs>
<clipPath id="clip0_621_5331">
<rect width="20" height="20" fill="white"/>
</clipPath>
</defs>
</svg>
