<svg width="359" height="312" viewBox="0 0 359 312" fill="none" xmlns="http://www.w3.org/2000/svg">
<g clip-path="url(#clip0_498_2140)">
<path d="M359 257.353L213.291 0.437675L200.561 0.312625L155.631 0H149.266L148.767 0.812826L0 254.852L6.30262 265.982L28.5178 305.122L30.7019 308.936L31.2011 309.812L31.4507 310.312H32.8236H35.6941H38.1902L315.381 311.875H326.988L355.755 262.793L359 257.291V257.353ZM199.188 200.643L160.561 200.393L180.093 167.004L199.188 200.643ZM206.863 11.4421L343.087 251.726L131.357 250.225L154.133 211.397L263.15 212.147L275.88 212.21L161.871 11.1295L206.863 11.4421ZM152.324 16.5691L256.91 201.018L211.98 200.705L151.825 94.6004L145.397 105.605L34.9452 294.118L12.7301 254.977L152.324 16.5691ZM151.575 116.734L173.79 155.937L112.137 261.167H119.5L342.963 262.73L320.623 300.871L44.6176 299.307L151.513 116.672L151.575 116.734Z" fill="white" fill-opacity="0.35"/>
</g>
<defs>
<clipPath id="clip0_498_2140">
<rect width="359" height="312" fill="white"/>
</clipPath>
</defs>
</svg>
