<svg width="82" height="72" viewBox="0 0 82 72" fill="none" xmlns="http://www.w3.org/2000/svg">
<g clip-path="url(#clip0_621_5351)">
<path d="M82 59.3892L48.7182 0.101002L45.8105 0.0721443L35.5481 0H34.0942L33.9802 0.187575L0 58.812L1.4396 61.3804L6.51382 70.4128L7.01269 71.293L7.12672 71.495L7.18373 71.6104H7.49731H8.15296H8.7231L72.0368 71.9711H74.688L81.2588 60.6445L82 59.3747V59.3892ZM45.497 46.3022L36.6741 46.2445L41.1354 38.5395L45.497 46.3022ZM47.2501 2.64048L78.3654 58.0906L30.0035 57.7443L35.206 48.784L60.1067 48.9571L63.0144 48.9715L36.9734 2.56834L47.2501 2.64048ZM34.7926 3.82365L58.6814 46.3888L48.4189 46.3166L34.6786 21.8309L33.2105 24.3703L7.98192 67.8733L2.9077 58.8409L34.7926 3.82365ZM34.6216 26.9387L39.6958 35.9856L25.6134 60.2693H27.2953L78.3369 60.6301L73.2341 69.4317L10.1912 69.0709L34.6073 26.9242L34.6216 26.9387Z" fill="white"/>
</g>
<defs>
<clipPath id="clip0_621_5351">
<rect width="82" height="72" fill="white"/>
</clipPath>
</defs>
</svg>
