<svg width="358" height="72" viewBox="0 0 358 72" fill="none" xmlns="http://www.w3.org/2000/svg">
<g clip-path="url(#clip0_498_2154)">
<path d="M83 59.3892L49.3124 0.101002L46.3692 0.0721443L35.9816 0H34.51L34.3946 0.187575L0 58.812L1.45715 61.3804L6.59326 70.4128L7.09821 71.293L7.21363 71.495L7.27134 71.6104H7.58874H8.25239H8.82948L72.9154 71.9711H75.5988L82.2498 60.6445L83 59.3747V59.3892ZM46.0518 46.3022L37.1213 46.2445L41.6371 38.5395L46.0518 46.3022ZM47.8264 2.64048L79.3211 58.0906L30.3694 57.7443L35.6353 48.784L60.8397 48.9571L63.7829 48.9715L37.4243 2.56834L47.8264 2.64048ZM35.2169 3.82365L59.397 46.3888L49.0094 46.3166L35.1015 21.8309L33.6155 24.3703L8.07926 67.8733L2.94316 58.8409L35.2169 3.82365ZM35.0438 26.9387L40.1799 35.9856L25.9258 60.2693H27.6282L79.2922 60.6301L74.1272 69.4317L10.3155 69.0709L35.0294 26.9242L35.0438 26.9387Z" fill="#3E3E3E"/>
</g>
<path d="M125.3 24.2349H129.967V47.7288H126.08V30.0289L117.353 42.6861L116.269 44.2755H113.698L112.614 42.6861L103.887 30.0289V47.7288H100V24.2349H104.667L114.998 39.2328L125.329 24.2349H125.3Z" fill="#3E3E3E"/>
<path d="M160.715 24.2349L160.888 24.4083V47.7288H156.958L142.09 30.2601V47.7288H138.203V24.2349H142.09L156.958 41.6747V24.2349H160.715Z" fill="#3E3E3E"/>
<path d="M177.533 24.2349C179.151 24.2349 180.683 24.5383 182.099 25.1596C183.515 25.7809 184.758 26.6189 185.827 27.6881C186.882 28.7429 187.734 29.9855 188.355 31.416C188.977 32.8464 189.28 34.3635 189.28 35.9818C189.28 37.6001 188.977 39.1317 188.355 40.5477C187.734 41.9637 186.896 43.2207 185.827 44.2899C184.772 45.3592 183.529 46.1972 182.099 46.8185C180.683 47.4253 179.151 47.7288 177.533 47.7288C175.915 47.7288 174.383 47.4253 172.967 46.8185C171.551 46.2116 170.294 45.3736 169.225 44.2899C168.156 43.2207 167.318 41.9637 166.696 40.5477C166.09 39.1317 165.786 37.6001 165.786 35.9818C165.786 34.3635 166.09 32.832 166.696 31.416C167.303 30 168.141 28.7574 169.225 27.6881C170.294 26.6334 171.537 25.7809 172.967 25.1596C174.398 24.5383 175.915 24.2349 177.533 24.2349ZM177.533 43.8131C178.617 43.8131 179.628 43.6108 180.582 43.2063C181.535 42.8017 182.359 42.2382 183.067 41.5302C183.775 40.8222 184.339 39.9842 184.743 39.045C185.148 38.1058 185.35 37.0799 185.35 35.9963C185.35 34.9126 185.148 33.9012 184.743 32.9475C184.339 31.9939 183.775 31.1703 183.067 30.4623C182.359 29.7543 181.521 29.1908 180.582 28.7863C179.643 28.3817 178.617 28.1794 177.533 28.1794C176.449 28.1794 175.438 28.3817 174.484 28.7863C173.531 29.1908 172.707 29.7543 171.999 30.4623C171.291 31.1703 170.728 32.0084 170.323 32.9475C169.919 33.9012 169.716 34.9126 169.716 35.9963C169.716 37.0799 169.919 38.0914 170.323 39.045C170.728 39.9986 171.291 40.8222 171.999 41.5302C172.707 42.2382 173.545 42.8017 174.484 43.2063C175.438 43.6108 176.449 43.8131 177.533 43.8131Z" fill="#3E3E3E"/>
<path d="M216.169 35.7215C216.184 37.1375 215.981 38.4957 215.548 39.7817C215.114 41.0676 214.479 42.238 213.655 43.2783C212.832 44.3186 211.849 45.2145 210.693 45.9513C209.537 46.6882 208.28 47.194 206.907 47.4974C205.535 47.7864 204.162 47.8442 202.818 47.6563C201.475 47.4685 200.189 47.0639 199.004 46.4426C197.819 45.8213 196.764 45.0122 195.825 44.0296C194.886 43.0327 194.149 41.8912 193.6 40.6053C193.051 39.2904 192.762 37.9611 192.704 36.5885C192.646 35.2158 192.82 33.901 193.21 32.6295C193.6 31.358 194.207 30.1732 195.002 29.075C195.796 27.9769 196.793 27.0377 197.964 26.2431C199.134 25.4773 200.391 24.9282 201.72 24.6248C203.05 24.3214 204.379 24.2202 205.694 24.3647C207.009 24.5092 208.28 24.8704 209.508 25.4484C210.722 26.0263 211.835 26.821 212.832 27.8324L210.635 31.2857C209.826 30.231 208.887 29.4507 207.847 28.945C206.806 28.4393 205.723 28.1937 204.625 28.1792C203.526 28.1792 202.472 28.3815 201.446 28.8005C200.42 29.2195 199.524 29.8264 198.758 30.6066C197.993 31.3869 197.415 32.326 197.01 33.4242C196.62 34.5223 196.504 35.7215 196.692 37.0364C196.851 38.3223 197.241 39.4349 197.877 40.3741C198.513 41.3133 199.278 42.0646 200.174 42.6281C201.07 43.1916 202.067 43.5673 203.136 43.7407C204.206 43.9141 205.26 43.8996 206.286 43.654C207.312 43.4083 208.28 42.9749 209.176 42.3102C210.072 41.66 210.809 40.7642 211.372 39.6372H202.371V35.7071H216.184L216.169 35.7215Z" fill="#3E3E3E"/>
<path d="M231.298 24.2349C232.916 24.2349 234.448 24.5383 235.864 25.1596C237.28 25.7809 238.522 26.6189 239.591 27.6881C240.646 28.7429 241.499 29.9855 242.12 31.416C242.741 32.8464 243.045 34.3635 243.045 35.9818C243.045 37.6001 242.741 39.1317 242.12 40.5477C241.499 41.9637 240.661 43.2207 239.591 44.2899C238.537 45.3592 237.294 46.1972 235.864 46.8185C234.448 47.4253 232.916 47.7288 231.298 47.7288C229.679 47.7288 228.148 47.4253 226.732 46.8185C225.316 46.2116 224.059 45.3736 222.99 44.2899C221.92 43.2207 221.082 41.9637 220.461 40.5477C219.854 39.1317 219.551 37.6001 219.551 35.9818C219.551 34.3635 219.854 32.832 220.461 31.416C221.068 30 221.906 28.7574 222.99 27.6881C224.059 26.6334 225.301 25.7809 226.732 25.1596C228.162 24.5383 229.679 24.2349 231.298 24.2349ZM231.298 43.8131C232.381 43.8131 233.393 43.6108 234.346 43.2063C235.3 42.8017 236.124 42.2382 236.832 41.5302C237.54 40.8222 238.103 39.9842 238.508 39.045C238.912 38.1058 239.115 37.0799 239.115 35.9963C239.115 34.9126 238.912 33.9012 238.508 32.9475C238.103 31.9939 237.54 31.1703 236.832 30.4623C236.124 29.7543 235.286 29.1908 234.346 28.7863C233.407 28.3817 232.381 28.1794 231.298 28.1794C230.214 28.1794 229.203 28.3817 228.249 28.7863C227.295 29.1908 226.472 29.7543 225.764 30.4623C225.056 31.1703 224.492 32.0084 224.088 32.9475C223.683 33.9012 223.481 34.9126 223.481 35.9963C223.481 37.0799 223.683 38.0914 224.088 39.045C224.492 39.9986 225.056 40.8222 225.764 41.5302C226.472 42.2382 227.31 42.8017 228.249 43.2063C229.203 43.6108 230.214 43.8131 231.298 43.8131Z" fill="#3E3E3E"/>
<path d="M257.839 24.2349C259.457 24.2349 260.989 24.5383 262.405 25.1451C263.821 25.752 265.078 26.59 266.147 27.6737C267.216 28.7429 268.055 29.9855 268.676 31.416C269.297 32.8464 269.586 34.3635 269.586 35.9818C269.586 37.6001 269.283 39.1317 268.676 40.5477C268.069 41.9637 267.231 43.2063 266.147 44.2755C265.078 45.3303 263.821 46.1827 262.405 46.804C260.989 47.4253 259.457 47.7288 257.839 47.7288H246.121V24.2349H257.839ZM257.839 43.8131C258.923 43.8131 259.934 43.6108 260.888 43.2063C261.841 42.8017 262.665 42.2382 263.373 41.5302C264.081 40.8222 264.645 39.9842 265.064 39.045C265.483 38.1058 265.685 37.0799 265.685 35.9963C265.685 34.9126 265.483 33.9012 265.064 32.9475C264.645 31.9939 264.081 31.1703 263.373 30.4623C262.665 29.7543 261.827 29.1908 260.888 28.7863C259.949 28.3817 258.923 28.1794 257.839 28.1794H250.022V43.8131H257.839Z" fill="#3E3E3E"/>
<path d="M283.833 24.2349C285.451 24.2349 286.983 24.5383 288.399 25.1596C289.815 25.7809 291.057 26.6189 292.127 27.6881C293.181 28.7429 294.034 29.9855 294.655 31.416C295.276 32.8464 295.58 34.3635 295.58 35.9818C295.58 37.6001 295.276 39.1317 294.655 40.5477C294.034 41.9637 293.196 43.2207 292.127 44.2899C291.072 45.3592 289.829 46.1972 288.399 46.8185C286.983 47.4253 285.451 47.7288 283.833 47.7288C282.215 47.7288 280.683 47.4253 279.267 46.8185C277.851 46.2116 276.594 45.3736 275.525 44.2899C274.456 43.2207 273.618 41.9637 272.996 40.5477C272.389 39.1317 272.086 37.6001 272.086 35.9818C272.086 34.3635 272.389 32.832 272.996 31.416C273.603 30 274.441 28.7574 275.525 27.6881C276.594 26.6334 277.837 25.7809 279.267 25.1596C280.697 24.5383 282.215 24.2349 283.833 24.2349ZM283.833 43.8131C284.917 43.8131 285.928 43.6108 286.882 43.2063C287.835 42.8017 288.659 42.2382 289.367 41.5302C290.075 40.8222 290.638 39.9842 291.043 39.045C291.447 38.1058 291.65 37.0799 291.65 35.9963C291.65 34.9126 291.447 33.9012 291.043 32.9475C290.638 31.9939 290.075 31.1703 289.367 30.4623C288.659 29.7543 287.821 29.1908 286.882 28.7863C285.942 28.3817 284.917 28.1794 283.833 28.1794C282.749 28.1794 281.738 28.3817 280.784 28.7863C279.831 29.1908 279.007 29.7543 278.299 30.4623C277.591 31.1703 277.027 32.0084 276.623 32.9475C276.218 33.9012 276.016 34.9126 276.016 35.9963C276.016 37.0799 276.218 38.0914 276.623 39.045C277.027 39.9986 277.591 40.8222 278.299 41.5302C279.007 42.2382 279.845 42.8017 280.784 43.2063C281.738 43.6108 282.749 43.8131 283.833 43.8131Z" fill="#3E3E3E"/>
<path d="M323.945 24.2349H328.612V47.7288H324.725V30.0289L315.998 42.6861L314.914 44.2755H312.342L311.258 42.6861L302.531 30.0289V47.7288H298.645V24.2349H303.312L313.642 39.2328L323.973 24.2349H323.945Z" fill="#3E3E3E"/>
<path d="M354.142 24.2778H357.321V28.1646H340.907C340.097 28.1646 339.404 28.4536 338.826 29.0315C338.248 29.6095 337.959 30.303 337.959 31.1122C337.959 31.9213 338.248 32.6148 338.826 33.1928C339.404 33.7708 340.097 34.0597 340.907 34.0597H350.486C351.44 34.0597 352.321 34.2476 353.159 34.6088C353.997 34.97 354.72 35.4613 355.327 36.0681C355.933 36.675 356.425 37.3974 356.786 38.2355C357.147 39.0735 357.335 39.9693 357.335 40.9085C357.335 41.8477 357.162 42.7435 356.786 43.5816C356.41 44.4196 355.933 45.142 355.327 45.7489C354.72 46.3557 353.997 46.847 353.159 47.2082C352.321 47.5695 351.425 47.7573 350.486 47.7573H334.072V43.8705H350.486C351.295 43.8705 351.989 43.5816 352.567 43.0036C353.145 42.4256 353.434 41.7321 353.434 40.923C353.434 40.1138 353.145 39.4203 352.567 38.8423C351.989 38.2644 351.295 37.9754 350.486 37.9754H340.907C339.953 37.9754 339.072 37.802 338.234 37.4408C337.396 37.0796 336.673 36.5883 336.066 35.9814C335.459 35.3746 334.968 34.6521 334.607 33.8141C334.246 32.9761 334.072 32.0947 334.072 31.1411C334.072 30.1874 334.246 29.306 334.607 28.468C334.968 27.63 335.459 26.9075 336.066 26.3007C336.673 25.6938 337.396 25.2026 338.234 24.8413C339.072 24.4801 339.953 24.2923 340.907 24.2923H354.142V24.2778Z" fill="#3E3E3E"/>
<defs>
<clipPath id="clip0_498_2154">
<rect width="83" height="72" fill="white"/>
</clipPath>
</defs>
</svg>
