<svg width="179" height="17" viewBox="0 0 179 17" fill="none" xmlns="http://www.w3.org/2000/svg">
<path d="M17.51 0H20.74V16.26H18.05V4.01L12.01 12.77L11.26 13.87H9.48L8.73 12.77L2.69 4.01V16.26H0V0H3.23L10.38 10.38L17.53 0H17.51Z" fill="white"/>
<path d="M42.0195 0L42.1395 0.120001V16.26H39.4195L29.1295 4.17V16.26H26.4395V0H29.1295L39.4195 12.07V0H42.0195Z" fill="white"/>
<path d="M53.6593 0C54.7793 0 55.8393 0.209999 56.8193 0.639999C57.7993 1.07 58.6593 1.65 59.3993 2.39C60.1293 3.12 60.7193 3.98 61.1493 4.97C61.5793 5.96 61.7893 7.01 61.7893 8.13C61.7893 9.25 61.5793 10.31 61.1493 11.29C60.7193 12.27 60.1393 13.14 59.3993 13.88C58.6693 14.62 57.8093 15.2 56.8193 15.63C55.8393 16.05 54.7793 16.26 53.6593 16.26C52.5393 16.26 51.4793 16.05 50.4993 15.63C49.5193 15.21 48.6493 14.63 47.9093 13.88C47.1693 13.14 46.5893 12.27 46.1593 11.29C45.7393 10.31 45.5293 9.25 45.5293 8.13C45.5293 7.01 45.7393 5.95 46.1593 4.97C46.5793 3.99 47.1593 3.13 47.9093 2.39C48.6493 1.66 49.5093 1.07 50.4993 0.639999C51.4893 0.209999 52.5393 0 53.6593 0ZM53.6593 13.55C54.4093 13.55 55.1093 13.41 55.7693 13.13C56.4293 12.85 56.9993 12.46 57.4893 11.97C57.9793 11.48 58.3693 10.9 58.6493 10.25C58.9293 9.6 59.0693 8.89 59.0693 8.14C59.0693 7.39 58.9293 6.69 58.6493 6.03C58.3693 5.37 57.9793 4.8 57.4893 4.31C56.9993 3.82 56.4193 3.43 55.7693 3.15C55.1193 2.87 54.4093 2.73 53.6593 2.73C52.9093 2.73 52.2093 2.87 51.5493 3.15C50.8893 3.43 50.3193 3.82 49.8293 4.31C49.3393 4.8 48.9493 5.38 48.6693 6.03C48.3893 6.69 48.2493 7.39 48.2493 8.14C48.2493 8.89 48.3893 9.59 48.6693 10.25C48.9493 10.91 49.3393 11.48 49.8293 11.97C50.3193 12.46 50.8993 12.85 51.5493 13.13C52.2093 13.41 52.9093 13.55 53.6593 13.55Z" fill="white"/>
<path d="M80.3999 7.95008C80.4099 8.93008 80.2699 9.87008 79.9699 10.7601C79.6699 11.6501 79.2299 12.4601 78.6599 13.1801C78.0899 13.9001 77.4099 14.5201 76.6099 15.0301C75.8099 15.5401 74.9399 15.8901 73.9899 16.1001C73.0399 16.3001 72.0899 16.3401 71.1599 16.2101C70.2299 16.0801 69.3399 15.8001 68.5199 15.3701C67.6999 14.9401 66.9699 14.3801 66.3199 13.7001C65.6699 13.0101 65.1599 12.2201 64.7799 11.3301C64.3999 10.4201 64.1999 9.50008 64.1599 8.55008C64.1199 7.60008 64.2399 6.69008 64.5099 5.81008C64.7799 4.93008 65.1999 4.11008 65.7499 3.35008C66.2999 2.59008 66.9899 1.94008 67.7999 1.39008C68.6099 0.860078 69.4799 0.480079 70.3999 0.270079C71.3199 0.0600785 72.2399 -0.00992177 73.1499 0.0900782C74.0599 0.190078 74.9399 0.440078 75.7899 0.840078C76.6299 1.24008 77.3999 1.79008 78.0899 2.49008L76.5699 4.88008C76.0099 4.15008 75.3599 3.61008 74.6399 3.26008C73.9199 2.91008 73.1699 2.74008 72.4099 2.73008C71.6499 2.73008 70.9199 2.87008 70.2099 3.16008C69.4999 3.45008 68.8799 3.87008 68.3499 4.41008C67.8199 4.95008 67.4199 5.60008 67.1399 6.36008C66.8699 7.12008 66.7899 7.95008 66.9199 8.86008C67.0299 9.75008 67.2999 10.5201 67.7399 11.1701C68.1799 11.8201 68.7099 12.3401 69.3299 12.7301C69.9499 13.1201 70.6399 13.3801 71.3799 13.5001C72.1199 13.6201 72.8499 13.6101 73.5599 13.4401C74.2699 13.2701 74.9399 12.9701 75.5599 12.5101C76.1799 12.0601 76.6899 11.4401 77.0799 10.6601H70.8499V7.94008H80.4099L80.3999 7.95008Z" fill="white"/>
<path d="M90.8702 0C91.9902 0 93.0502 0.209999 94.0302 0.639999C95.0102 1.07 95.8702 1.65 96.6102 2.39C97.3402 3.12 97.9302 3.98 98.3602 4.97C98.7902 5.96 99.0002 7.01 99.0002 8.13C99.0002 9.25 98.7902 10.31 98.3602 11.29C97.9302 12.27 97.3502 13.14 96.6102 13.88C95.8802 14.62 95.0202 15.2 94.0302 15.63C93.0502 16.05 91.9902 16.26 90.8702 16.26C89.7502 16.26 88.6902 16.05 87.7102 15.63C86.7302 15.21 85.8602 14.63 85.1202 13.88C84.3802 13.14 83.8002 12.27 83.3702 11.29C82.9502 10.31 82.7402 9.25 82.7402 8.13C82.7402 7.01 82.9502 5.95 83.3702 4.97C83.7902 3.99 84.3702 3.13 85.1202 2.39C85.8602 1.66 86.7202 1.07 87.7102 0.639999C88.7002 0.209999 89.7502 0 90.8702 0ZM90.8702 13.55C91.6202 13.55 92.3202 13.41 92.9802 13.13C93.6402 12.85 94.2102 12.46 94.7002 11.97C95.1902 11.48 95.5802 10.9 95.8602 10.25C96.1402 9.6 96.2802 8.89 96.2802 8.14C96.2802 7.39 96.1402 6.69 95.8602 6.03C95.5802 5.37 95.1902 4.8 94.7002 4.31C94.2102 3.82 93.6302 3.43 92.9802 3.15C92.3302 2.87 91.6202 2.73 90.8702 2.73C90.1202 2.73 89.4202 2.87 88.7602 3.15C88.1002 3.43 87.5302 3.82 87.0402 4.31C86.5502 4.8 86.1602 5.38 85.8802 6.03C85.6002 6.69 85.4602 7.39 85.4602 8.14C85.4602 8.89 85.6002 9.59 85.8802 10.25C86.1602 10.91 86.5502 11.48 87.0402 11.97C87.5302 12.46 88.1102 12.85 88.7602 13.13C89.4202 13.41 90.1202 13.55 90.8702 13.55Z" fill="white"/>
<path d="M109.241 0C110.361 0 111.421 0.210001 112.401 0.630001C113.381 1.05 114.251 1.63 114.991 2.38C115.731 3.12 116.311 3.98 116.741 4.97C117.171 5.96 117.371 7.01 117.371 8.13C117.371 9.25 117.161 10.31 116.741 11.29C116.321 12.27 115.741 13.13 114.991 13.87C114.251 14.6 113.381 15.19 112.401 15.62C111.421 16.05 110.361 16.26 109.241 16.26H101.131V0H109.241ZM109.241 13.55C109.991 13.55 110.691 13.41 111.351 13.13C112.011 12.85 112.581 12.46 113.071 11.97C113.561 11.48 113.951 10.9 114.241 10.25C114.531 9.6 114.671 8.89 114.671 8.14C114.671 7.39 114.531 6.69 114.241 6.03C113.951 5.37 113.561 4.8 113.071 4.31C112.581 3.82 112.001 3.43 111.351 3.15C110.701 2.87 109.991 2.73 109.241 2.73H103.831V13.55H109.241Z" fill="white"/>
<path d="M127.23 0C128.35 0 129.41 0.209999 130.39 0.639999C131.37 1.07 132.23 1.65 132.97 2.39C133.7 3.12 134.29 3.98 134.72 4.97C135.15 5.96 135.36 7.01 135.36 8.13C135.36 9.25 135.15 10.31 134.72 11.29C134.29 12.27 133.71 13.14 132.97 13.88C132.24 14.62 131.38 15.2 130.39 15.63C129.41 16.05 128.35 16.26 127.23 16.26C126.11 16.26 125.05 16.05 124.07 15.63C123.09 15.21 122.22 14.63 121.48 13.88C120.74 13.14 120.16 12.27 119.73 11.29C119.31 10.31 119.1 9.25 119.1 8.13C119.1 7.01 119.31 5.95 119.73 4.97C120.15 3.99 120.73 3.13 121.48 2.39C122.22 1.66 123.08 1.07 124.07 0.639999C125.06 0.209999 126.11 0 127.23 0ZM127.23 13.55C127.98 13.55 128.68 13.41 129.34 13.13C130 12.85 130.57 12.46 131.06 11.97C131.55 11.48 131.94 10.9 132.22 10.25C132.5 9.6 132.64 8.89 132.64 8.14C132.64 7.39 132.5 6.69 132.22 6.03C131.94 5.37 131.55 4.8 131.06 4.31C130.57 3.82 129.99 3.43 129.34 3.15C128.69 2.87 127.98 2.73 127.23 2.73C126.48 2.73 125.78 2.87 125.12 3.15C124.46 3.43 123.89 3.82 123.4 4.31C122.91 4.8 122.52 5.38 122.24 6.03C121.96 6.69 121.82 7.39 121.82 8.14C121.82 8.89 121.96 9.59 122.24 10.25C122.52 10.91 122.91 11.48 123.4 11.97C123.89 12.46 124.47 12.85 125.12 13.13C125.78 13.41 126.48 13.55 127.23 13.55Z" fill="white"/>
<path d="M154.99 0H158.22V16.26H155.53V4.01L149.49 12.77L148.74 13.87H146.96L146.21 12.77L140.17 4.01V16.26H137.48V0H140.71L147.86 10.38L155.01 0H154.99Z" fill="white"/>
<path d="M175.89 0.0300293H178.09V2.72003H166.73C166.17 2.72003 165.69 2.92003 165.29 3.32003C164.89 3.72003 164.69 4.20003 164.69 4.76003C164.69 5.32003 164.89 5.80003 165.29 6.20003C165.69 6.60003 166.17 6.80003 166.73 6.80003H173.36C174.02 6.80003 174.63 6.93003 175.21 7.18003C175.79 7.43003 176.29 7.77003 176.71 8.19003C177.13 8.61003 177.47 9.11003 177.72 9.69003C177.97 10.27 178.1 10.89 178.1 11.54C178.1 12.19 177.98 12.81 177.72 13.39C177.46 13.97 177.13 14.47 176.71 14.89C176.29 15.31 175.79 15.65 175.21 15.9C174.63 16.15 174.01 16.28 173.36 16.28H162V13.59H173.36C173.92 13.59 174.4 13.39 174.8 12.99C175.2 12.59 175.4 12.11 175.4 11.55C175.4 10.99 175.2 10.51 174.8 10.11C174.4 9.71003 173.92 9.51003 173.36 9.51003H166.73C166.07 9.51003 165.46 9.39003 164.88 9.14003C164.3 8.89003 163.8 8.55003 163.38 8.13003C162.96 7.71003 162.62 7.21003 162.37 6.63003C162.12 6.05003 162 5.44003 162 4.78003C162 4.12003 162.12 3.51003 162.37 2.93003C162.62 2.35003 162.96 1.85003 163.38 1.43003C163.8 1.01003 164.3 0.670029 164.88 0.420029C165.46 0.170029 166.07 0.0400295 166.73 0.0400295H175.89V0.0300293Z" fill="white"/>
</svg>
