<svg width="24" height="19" viewBox="0 0 24 19" fill="none" xmlns="http://www.w3.org/2000/svg">
<g clip-path="url(#clip0_2136_430)">
<path d="M9.55455 1.17303H3.77484C3.83464 1.24919 3.87144 1.30081 3.91387 1.34834C4.93354 2.49325 5.95629 3.63559 6.97188 4.78407C7.0971 4.92565 7.22641 4.97676 7.41297 4.97574C9.38077 4.96961 11.3486 4.97165 13.3164 4.97216C13.713 4.97216 13.8944 5.0887 13.9016 5.34528C13.9093 5.61208 13.7196 5.73884 13.3087 5.73884C11.4942 5.73884 9.67977 5.73884 7.86531 5.73884C7.76513 5.73884 7.66444 5.73884 7.53922 5.73884C7.55966 5.83237 7.56733 5.89728 7.58828 5.95759C8.58138 8.80247 9.57551 11.6468 10.5691 14.4912C10.6085 14.6036 10.6519 14.7156 10.6811 14.8306C10.7424 15.0708 10.6453 15.2615 10.4398 15.3223C10.2272 15.3851 10.0411 15.2911 9.95782 15.0606C9.76104 14.5162 9.57091 13.9699 9.38026 13.4235C8.49245 10.8756 7.60668 8.32662 6.71683 5.77921C6.6785 5.66932 6.62943 5.55279 6.55378 5.46743C5.39048 4.15386 4.22156 2.8454 3.05366 1.53592C3.03168 1.51139 3.00408 1.49248 2.9453 1.44137C2.28238 2.61029 1.62815 3.7649 0.943255 4.97216H1.27752C2.06107 4.97216 2.84512 4.97216 3.62866 4.97216C3.68846 4.97216 3.74775 4.97114 3.80755 4.97216C4.11371 4.97829 4.2834 5.10965 4.29005 5.34528C4.2972 5.58908 4.1224 5.73475 3.79937 5.7373C3.24584 5.7419 2.69179 5.73884 2.13825 5.73884C1.81778 5.73884 1.49731 5.73884 1.1109 5.73884C1.37668 6.05317 1.598 6.31691 1.82186 6.57911C4.85636 10.137 7.89035 13.6954 10.9315 17.2477C11.0772 17.4179 11.2913 17.5293 11.5162 17.7005C11.6956 17.194 11.8479 16.7718 11.9956 16.3481C13.2336 12.7953 14.4694 9.24203 15.713 5.6913C15.783 5.49197 15.7656 5.35243 15.6384 5.18223C14.9806 4.3026 14.3366 3.41223 13.6859 2.52647C13.5637 2.35984 13.4983 2.16971 13.6522 2.01688C13.7437 1.92591 13.921 1.88093 14.0554 1.88859C14.1485 1.89422 14.2532 2.01126 14.3207 2.10224C14.9141 2.90265 15.5004 3.70817 16.0892 4.51216C16.1434 4.58576 16.1996 4.65782 16.2635 4.74216C17.2673 3.6177 18.2538 2.51216 19.2397 1.40712C19.4436 1.17814 19.645 0.947117 19.852 0.720692C20.0672 0.485067 20.2512 0.4498 20.495 0.658336C20.7046 0.837227 20.9065 1.0473 21.045 1.28292C21.6317 2.28113 22.1934 3.29417 22.7654 4.30107C23.2039 5.07336 23.1497 5.68517 22.5712 6.36393C19.3276 10.1692 16.0841 13.9734 12.8385 17.7772C12.1434 18.5919 11.071 18.6001 10.3774 17.7879C7.48964 14.4074 4.60592 11.0228 1.72066 7.63968C1.33375 7.18581 0.946832 6.73245 0.559917 6.27858C0.0968452 5.73526 0.0119998 5.07745 0.36007 4.45031C0.967277 3.3555 1.58573 2.26733 2.21082 1.18325C2.51238 0.663447 2.98159 0.395622 3.58368 0.395111C8.04727 0.392044 12.5114 0.393066 16.9749 0.394089C17.2719 0.394089 17.4498 0.542313 17.4493 0.776404C17.4487 1.00845 17.2663 1.16076 16.9749 1.16076C14.9049 1.1623 12.8349 1.16383 10.7649 1.15719C10.5829 1.15667 10.473 1.21085 10.3672 1.35908C9.87809 2.04602 9.37617 2.72325 8.87834 3.40406C8.86352 3.4245 8.8487 3.44546 8.83285 3.4659C8.65754 3.68773 8.44032 3.74139 8.2604 3.60748C8.07844 3.47254 8.05391 3.23999 8.21236 3.01918C8.51494 2.597 8.82519 2.17993 9.13135 1.7603C9.26526 1.5763 9.39764 1.39128 9.55506 1.17303H9.55455ZM17.0879 4.97216C17.712 4.97216 18.2548 4.97216 18.7981 4.97216C19.1216 4.97216 19.4457 4.96603 19.7687 4.97625C20.01 4.98392 20.1597 5.14287 20.1566 5.36112C20.1541 5.56966 20.0166 5.70817 19.781 5.73321C19.6966 5.7419 19.6108 5.73935 19.5259 5.73935C18.6059 5.73935 17.6864 5.7465 16.7669 5.73424C16.5579 5.73168 16.4761 5.80324 16.4091 5.99593C15.3951 8.92258 14.3713 11.8457 13.3511 14.7703C13.1247 15.4189 12.9034 16.069 12.6795 16.7181C13.0971 16.2944 13.4779 15.8497 13.8576 15.4046C16.5543 12.2428 19.2499 9.08052 21.9476 5.91977C22.356 5.44137 22.3907 5.19552 22.0851 4.65578C21.5152 3.64786 20.9422 2.64198 20.3693 1.6361C20.334 1.57426 20.2885 1.51803 20.2369 1.4429C19.1901 2.61591 18.1658 3.76439 17.0879 4.97216Z" fill="#3E3E3E"/>
</g>
<defs>
<clipPath id="clip0_2136_430">
<rect width="23.4" height="18" fill="white" transform="translate(0.146484 0.393066)"/>
</clipPath>
</defs>
</svg>
