<svg width="24" height="21" viewBox="0 0 24 21" fill="none" xmlns="http://www.w3.org/2000/svg">
<g clip-path="url(#clip0_2136_434)">
<path d="M23.2414 9.82788C23.2414 11.8716 23.2246 13.9158 23.25 15.9595C23.2597 16.7572 22.9546 17.368 22.3745 17.8736C21.7545 18.4137 21.0308 18.7739 20.2714 19.065C18.5783 19.7142 16.8127 20.042 15.0175 20.2289C12.6249 20.4779 10.2355 20.4471 7.85319 20.116C6.10169 19.873 4.37989 19.5052 2.76989 18.7355C2.18173 18.4542 1.63192 18.1161 1.17879 17.6386C0.756437 17.1947 0.546343 16.6789 0.547963 16.0546C0.556605 11.8948 0.558225 7.73503 0.546883 3.57528C0.545263 2.87748 0.791543 2.31471 1.28464 1.84537C2.01214 1.15352 2.90113 0.744675 3.83278 0.420082C4.12605 0.318005 4.33344 0.513517 4.33452 0.866195C4.33722 1.85672 4.3356 2.84724 4.3356 3.83722C4.3356 4.35948 4.34748 4.88229 4.3302 5.40347C4.32264 5.63031 4.39231 5.73185 4.61321 5.79774C5.94506 6.19686 7.30231 6.45989 8.68385 6.60409C11.2298 6.86981 13.7736 6.84713 16.3013 6.4399C17.2929 6.28004 18.2639 5.99541 19.2453 5.77343C19.4197 5.73401 19.4629 5.64273 19.4624 5.47098C19.4559 3.9582 19.4581 2.44595 19.4586 0.933165C19.4586 0.441145 19.6601 0.302883 20.1267 0.474631C20.8564 0.743054 21.5536 1.07359 22.1736 1.55049C22.886 2.09868 23.27 2.78135 23.2527 3.72272C23.216 5.75669 23.2414 7.79228 23.2414 9.82679V9.82788ZM1.31057 4.93954C1.31057 5.04918 1.31057 5.10913 1.31057 5.16962C1.31057 8.82493 1.31165 12.4802 1.30895 16.1361C1.30895 16.5109 1.43641 16.8409 1.70861 17.0764C2.05967 17.3805 2.42693 17.6824 2.83254 17.9033C4.28267 18.6934 5.87215 19.0547 7.48593 19.3048C10.0346 19.6991 12.5952 19.7336 15.1579 19.4571C16.8813 19.2713 18.5745 18.9429 20.1861 18.2808C20.8796 17.9962 21.5455 17.6575 22.0721 17.1023C22.3281 16.8323 22.4847 16.5212 22.4847 16.1356C22.482 12.4802 22.4831 8.82493 22.4826 5.16908C22.4826 5.10427 22.4691 5.03891 22.4674 5.02217C21.9614 5.31976 21.4753 5.64705 20.9541 5.9036C19.6017 6.5706 18.1446 6.90762 16.668 7.14526C13.0958 7.72045 9.53071 7.67562 5.98719 6.92328C4.3248 6.5706 2.70832 6.08291 1.31111 4.93846L1.31057 4.93954ZM20.2245 5.40888C20.9665 5.07834 21.66 4.74241 22.1704 4.13103C22.5458 3.68113 22.5911 3.22584 22.2827 2.76514C21.7902 2.02846 21.0184 1.68497 20.2245 1.32257V5.40888ZM3.56922 1.32635C2.85954 1.63798 2.20927 1.95879 1.70375 2.50644C1.18581 3.06759 1.16366 3.70706 1.72049 4.22338C2.1099 4.5847 2.58518 4.85637 3.03183 5.15287C3.18899 5.25711 3.37478 5.3176 3.56976 5.40779V1.32635H3.56922Z" fill="#3E3E3E"/>
<path d="M11.0873 15.3222C11.6841 14.6055 12.2593 13.9153 12.8345 13.2245C13.2028 12.7822 13.5669 12.3355 13.9412 11.8975C14.4953 11.2483 15.3708 11.305 15.8374 12.0185C16.9651 13.743 18.0896 15.4696 19.2151 17.1958C19.2691 17.2784 19.3264 17.361 19.368 17.4501C19.4598 17.6462 19.4328 17.8271 19.2437 17.9465C19.0569 18.0648 18.8689 18.0259 18.742 17.8493C18.5373 17.5646 18.3526 17.266 18.1603 16.9722C17.1865 15.4804 16.2144 13.9871 15.239 12.4965C14.9959 12.1249 14.7486 12.1108 14.4688 12.4468C13.5296 13.5739 12.5926 14.7022 11.6544 15.8299C11.6085 15.885 11.5626 15.9411 11.5151 15.9951C11.2575 16.2879 11.1089 16.3068 10.807 16.0702C10.4176 15.7651 10.0331 15.4534 9.64583 15.145C9.34878 14.909 9.217 14.9133 8.95074 15.1791C7.96346 16.1642 6.9778 17.1515 5.99105 18.1377C5.9149 18.2138 5.83983 18.2927 5.75882 18.3634C5.56114 18.5363 5.36509 18.5422 5.20685 18.3861C5.04914 18.23 5.04644 18.0232 5.22575 17.8358C5.54278 17.5041 5.87061 17.1828 6.19521 16.8577C6.92001 16.1318 7.6475 15.4081 8.37068 14.6806C8.95722 14.0897 9.49947 14.0557 10.1573 14.5774C10.4597 14.8172 10.76 15.0597 11.0884 15.3227L11.0873 15.3222Z" fill="#3E3E3E"/>
<path d="M19.4706 10.5721C19.4706 9.61774 19.4695 8.66395 19.4717 7.70961C19.4717 7.61185 19.4555 7.48331 19.5079 7.42282C19.604 7.3121 19.738 7.18734 19.8714 7.1679C20.0534 7.1409 20.1868 7.28024 20.2186 7.47359C20.2343 7.57027 20.2284 7.67126 20.2284 7.7701C20.2284 9.54321 20.2321 11.3163 20.224 13.0894C20.223 13.292 20.284 13.3892 20.473 13.4664C20.8138 13.6047 21.1449 13.7699 21.4695 13.9433C21.719 14.0767 21.786 14.2798 21.6806 14.4758C21.5688 14.6843 21.362 14.7243 21.0963 14.6006C20.6809 14.4078 20.2678 14.2069 19.8422 14.0378C19.577 13.9325 19.4647 13.7699 19.4668 13.488C19.4738 12.5159 19.4695 11.5437 19.4695 10.5715L19.4706 10.5721Z" fill="#3E3E3E"/>
<path d="M4.33605 10.5775C4.33605 11.541 4.32903 12.504 4.34038 13.4675C4.34362 13.7613 4.23884 13.9309 3.96123 14.04C3.54375 14.2042 3.13814 14.4002 2.73091 14.5909C2.44683 14.7237 2.23349 14.687 2.12439 14.471C2.02178 14.2668 2.10063 14.0654 2.36905 13.9249C2.68771 13.7586 3.01122 13.5987 3.34445 13.4653C3.52376 13.3935 3.58263 13.3038 3.58209 13.1116C3.57453 11.3293 3.57777 9.54645 3.57777 7.76416C3.57777 7.69233 3.57507 7.61995 3.57939 7.54812C3.59343 7.31804 3.71441 7.17708 3.94557 7.1571C4.15512 7.13874 4.32687 7.31156 4.33281 7.55244C4.342 7.9305 4.33605 8.30857 4.33605 8.68663C4.33605 9.31691 4.33605 9.94719 4.33605 10.5769V10.5775Z" fill="#3E3E3E"/>
<path d="M8.49045 12.8264C7.66034 12.8248 6.97983 12.1405 6.98145 11.3098C6.98307 10.4776 7.66466 9.79868 8.49694 9.8003C9.32867 9.80192 10.0076 10.4835 10.0059 11.3163C10.0043 12.1481 9.32219 12.828 8.49045 12.8264ZM9.24766 11.3223C9.25306 10.9129 8.90632 10.5602 8.49585 10.5586C8.09781 10.557 7.75215 10.8913 7.73919 11.2904C7.72623 11.6987 8.06757 12.0584 8.47749 12.0676C8.88688 12.0768 9.24226 11.7327 9.24766 11.3223Z" fill="#3E3E3E"/>
</g>
<defs>
<clipPath id="clip0_2136_434">
<rect width="22.7064" height="20" fill="white" transform="translate(0.546875 0.393066)"/>
</clipPath>
</defs>
</svg>
