<svg width="351" height="72" viewBox="0 0 351 72" fill="none" xmlns="http://www.w3.org/2000/svg">
<path d="M119.51 4H122.74V20.26H120.05V8.01L114.01 16.77L113.26 17.87H111.48L110.73 16.77L104.69 8.01V20.26H102V4H105.23L112.38 14.38L119.53 4H119.51Z" fill="white"/>
<path d="M144.019 4L144.139 4.12V20.26H141.419L131.129 8.17V20.26H128.439V4H131.129L141.419 16.07V4H144.019Z" fill="white"/>
<path d="M155.659 4C156.779 4 157.839 4.21 158.819 4.64C159.799 5.07 160.659 5.65 161.399 6.39C162.129 7.12 162.719 7.98 163.149 8.97C163.579 9.96 163.789 11.01 163.789 12.13C163.789 13.25 163.579 14.31 163.149 15.29C162.719 16.27 162.139 17.14 161.399 17.88C160.669 18.62 159.809 19.2 158.819 19.63C157.839 20.05 156.779 20.26 155.659 20.26C154.539 20.26 153.479 20.05 152.499 19.63C151.519 19.21 150.649 18.63 149.909 17.88C149.169 17.14 148.589 16.27 148.159 15.29C147.739 14.31 147.529 13.25 147.529 12.13C147.529 11.01 147.739 9.95 148.159 8.97C148.579 7.99 149.159 7.13 149.909 6.39C150.649 5.66 151.509 5.07 152.499 4.64C153.489 4.21 154.539 4 155.659 4ZM155.659 17.55C156.409 17.55 157.109 17.41 157.769 17.13C158.429 16.85 158.999 16.46 159.489 15.97C159.979 15.48 160.369 14.9 160.649 14.25C160.929 13.6 161.069 12.89 161.069 12.14C161.069 11.39 160.929 10.69 160.649 10.03C160.369 9.37 159.979 8.8 159.489 8.31C158.999 7.82 158.419 7.43 157.769 7.15C157.119 6.87 156.409 6.73 155.659 6.73C154.909 6.73 154.209 6.87 153.549 7.15C152.889 7.43 152.319 7.82 151.829 8.31C151.339 8.8 150.949 9.38 150.669 10.03C150.389 10.69 150.249 11.39 150.249 12.14C150.249 12.89 150.389 13.59 150.669 14.25C150.949 14.91 151.339 15.48 151.829 15.97C152.319 16.46 152.899 16.85 153.549 17.13C154.209 17.41 154.909 17.55 155.659 17.55Z" fill="white"/>
<path d="M182.4 11.9501C182.41 12.9301 182.27 13.8701 181.97 14.7601C181.67 15.6501 181.23 16.4601 180.66 17.1801C180.09 17.9001 179.41 18.5201 178.61 19.0301C177.81 19.5401 176.94 19.8901 175.99 20.1001C175.04 20.3001 174.09 20.3401 173.16 20.2101C172.23 20.0801 171.34 19.8001 170.52 19.3701C169.7 18.9401 168.97 18.3801 168.32 17.7001C167.67 17.0101 167.16 16.2201 166.78 15.3301C166.4 14.4201 166.2 13.5001 166.16 12.5501C166.12 11.6001 166.24 10.6901 166.51 9.81008C166.78 8.93008 167.2 8.11008 167.75 7.35008C168.3 6.59008 168.99 5.94008 169.8 5.39008C170.61 4.86008 171.48 4.48008 172.4 4.27008C173.32 4.06008 174.24 3.99008 175.15 4.09008C176.06 4.19008 176.94 4.44008 177.79 4.84008C178.63 5.24008 179.4 5.79008 180.09 6.49008L178.57 8.88008C178.01 8.15008 177.36 7.61008 176.64 7.26008C175.92 6.91008 175.17 6.74008 174.41 6.73008C173.65 6.73008 172.92 6.87008 172.21 7.16008C171.5 7.45008 170.88 7.87008 170.35 8.41008C169.82 8.95008 169.42 9.60008 169.14 10.3601C168.87 11.1201 168.79 11.9501 168.92 12.8601C169.03 13.7501 169.3 14.5201 169.74 15.1701C170.18 15.8201 170.71 16.3401 171.33 16.7301C171.95 17.1201 172.64 17.3801 173.38 17.5001C174.12 17.6201 174.85 17.6101 175.56 17.4401C176.27 17.2701 176.94 16.9701 177.56 16.5101C178.18 16.0601 178.69 15.4401 179.08 14.6601H172.85V11.9401H182.41L182.4 11.9501Z" fill="white"/>
<path d="M192.87 4C193.99 4 195.05 4.21 196.03 4.64C197.01 5.07 197.87 5.65 198.61 6.39C199.34 7.12 199.93 7.98 200.36 8.97C200.79 9.96 201 11.01 201 12.13C201 13.25 200.79 14.31 200.36 15.29C199.93 16.27 199.35 17.14 198.61 17.88C197.88 18.62 197.02 19.2 196.03 19.63C195.05 20.05 193.99 20.26 192.87 20.26C191.75 20.26 190.69 20.05 189.71 19.63C188.73 19.21 187.86 18.63 187.12 17.88C186.38 17.14 185.8 16.27 185.37 15.29C184.95 14.31 184.74 13.25 184.74 12.13C184.74 11.01 184.95 9.95 185.37 8.97C185.79 7.99 186.37 7.13 187.12 6.39C187.86 5.66 188.72 5.07 189.71 4.64C190.7 4.21 191.75 4 192.87 4ZM192.87 17.55C193.62 17.55 194.32 17.41 194.98 17.13C195.64 16.85 196.21 16.46 196.7 15.97C197.19 15.48 197.58 14.9 197.86 14.25C198.14 13.6 198.28 12.89 198.28 12.14C198.28 11.39 198.14 10.69 197.86 10.03C197.58 9.37 197.19 8.8 196.7 8.31C196.21 7.82 195.63 7.43 194.98 7.15C194.33 6.87 193.62 6.73 192.87 6.73C192.12 6.73 191.42 6.87 190.76 7.15C190.1 7.43 189.53 7.82 189.04 8.31C188.55 8.8 188.16 9.38 187.88 10.03C187.6 10.69 187.46 11.39 187.46 12.14C187.46 12.89 187.6 13.59 187.88 14.25C188.16 14.91 188.55 15.48 189.04 15.97C189.53 16.46 190.11 16.85 190.76 17.13C191.42 17.41 192.12 17.55 192.87 17.55Z" fill="white"/>
<path d="M211.241 4C212.361 4 213.421 4.21 214.401 4.63C215.381 5.05 216.251 5.63 216.991 6.38C217.731 7.12 218.311 7.98 218.741 8.97C219.171 9.96 219.371 11.01 219.371 12.13C219.371 13.25 219.161 14.31 218.741 15.29C218.321 16.27 217.741 17.13 216.991 17.87C216.251 18.6 215.381 19.19 214.401 19.62C213.421 20.05 212.361 20.26 211.241 20.26H203.131V4H211.241ZM211.241 17.55C211.991 17.55 212.691 17.41 213.351 17.13C214.011 16.85 214.581 16.46 215.071 15.97C215.561 15.48 215.951 14.9 216.241 14.25C216.531 13.6 216.671 12.89 216.671 12.14C216.671 11.39 216.531 10.69 216.241 10.03C215.951 9.37 215.561 8.8 215.071 8.31C214.581 7.82 214.001 7.43 213.351 7.15C212.701 6.87 211.991 6.73 211.241 6.73H205.831V17.55H211.241Z" fill="white"/>
<path d="M229.23 4C230.35 4 231.41 4.21 232.39 4.64C233.37 5.07 234.23 5.65 234.97 6.39C235.7 7.12 236.29 7.98 236.72 8.97C237.15 9.96 237.36 11.01 237.36 12.13C237.36 13.25 237.15 14.31 236.72 15.29C236.29 16.27 235.71 17.14 234.97 17.88C234.24 18.62 233.38 19.2 232.39 19.63C231.41 20.05 230.35 20.26 229.23 20.26C228.11 20.26 227.05 20.05 226.07 19.63C225.09 19.21 224.22 18.63 223.48 17.88C222.74 17.14 222.16 16.27 221.73 15.29C221.31 14.31 221.1 13.25 221.1 12.13C221.1 11.01 221.31 9.95 221.73 8.97C222.15 7.99 222.73 7.13 223.48 6.39C224.22 5.66 225.08 5.07 226.07 4.64C227.06 4.21 228.11 4 229.23 4ZM229.23 17.55C229.98 17.55 230.68 17.41 231.34 17.13C232 16.85 232.57 16.46 233.06 15.97C233.55 15.48 233.94 14.9 234.22 14.25C234.5 13.6 234.64 12.89 234.64 12.14C234.64 11.39 234.5 10.69 234.22 10.03C233.94 9.37 233.55 8.8 233.06 8.31C232.57 7.82 231.99 7.43 231.34 7.15C230.69 6.87 229.98 6.73 229.23 6.73C228.48 6.73 227.78 6.87 227.12 7.15C226.46 7.43 225.89 7.82 225.4 8.31C224.91 8.8 224.52 9.38 224.24 10.03C223.96 10.69 223.82 11.39 223.82 12.14C223.82 12.89 223.96 13.59 224.24 14.25C224.52 14.91 224.91 15.48 225.4 15.97C225.89 16.46 226.47 16.85 227.12 17.13C227.78 17.41 228.48 17.55 229.23 17.55Z" fill="white"/>
<path d="M256.99 4H260.22V20.26H257.53V8.01L251.49 16.77L250.74 17.87H248.96L248.21 16.77L242.17 8.01V20.26H239.48V4H242.71L249.86 14.38L257.01 4H256.99Z" fill="white"/>
<path d="M277.89 4.03003H280.09V6.72003H268.73C268.17 6.72003 267.69 6.92003 267.29 7.32003C266.89 7.72003 266.69 8.20003 266.69 8.76003C266.69 9.32003 266.89 9.80003 267.29 10.2C267.69 10.6 268.17 10.8 268.73 10.8H275.36C276.02 10.8 276.63 10.93 277.21 11.18C277.79 11.43 278.29 11.77 278.71 12.19C279.13 12.61 279.47 13.11 279.72 13.69C279.97 14.27 280.1 14.89 280.1 15.54C280.1 16.19 279.98 16.81 279.72 17.39C279.46 17.97 279.13 18.47 278.71 18.89C278.29 19.31 277.79 19.65 277.21 19.9C276.63 20.15 276.01 20.28 275.36 20.28H264V17.59H275.36C275.92 17.59 276.4 17.39 276.8 16.99C277.2 16.59 277.4 16.11 277.4 15.55C277.4 14.99 277.2 14.51 276.8 14.11C276.4 13.71 275.92 13.51 275.36 13.51H268.73C268.07 13.51 267.46 13.39 266.88 13.14C266.3 12.89 265.8 12.55 265.38 12.13C264.96 11.71 264.62 11.21 264.37 10.63C264.12 10.05 264 9.44003 264 8.78003C264 8.12003 264.12 7.51003 264.37 6.93003C264.62 6.35003 264.96 5.85003 265.38 5.43003C265.8 5.01003 266.3 4.67003 266.88 4.42003C267.46 4.17003 268.07 4.04003 268.73 4.04003H277.89V4.03003Z" fill="white"/>
<path d="M103.575 46.2852V35.7852H107.67C108.59 35.7852 109.375 35.9302 110.025 36.2202C110.675 36.5102 111.175 36.9302 111.525 37.4802C111.875 38.0302 112.05 38.6852 112.05 39.4452C112.05 40.2052 111.875 40.8602 111.525 41.4102C111.175 41.9502 110.675 42.3652 110.025 42.6552C109.375 42.9452 108.59 43.0902 107.67 43.0902H104.4L105.075 42.4002V46.2852H103.575ZM110.595 46.2852L107.925 42.4752H109.53L112.23 46.2852H110.595ZM105.075 42.5502L104.4 41.8152H107.625C108.585 41.8152 109.31 41.6102 109.8 41.2002C110.3 40.7802 110.55 40.1952 110.55 39.4452C110.55 38.6952 110.3 38.1152 109.8 37.7052C109.31 37.2952 108.585 37.0902 107.625 37.0902H104.4L105.075 36.3402V42.5502ZM117.803 46.3752C116.953 46.3752 116.203 46.2002 115.553 45.8502C114.913 45.5002 114.413 45.0202 114.053 44.4102C113.703 43.8002 113.528 43.1002 113.528 42.3102C113.528 41.5202 113.698 40.8202 114.038 40.2102C114.388 39.6002 114.863 39.1252 115.463 38.7852C116.073 38.4352 116.758 38.2602 117.518 38.2602C118.288 38.2602 118.968 38.4302 119.558 38.7702C120.148 39.1102 120.608 39.5902 120.938 40.2102C121.278 40.8202 121.448 41.5352 121.448 42.3552C121.448 42.4152 121.443 42.4852 121.433 42.5652C121.433 42.6452 121.428 42.7202 121.418 42.7902H114.653V41.7552H120.668L120.083 42.1152C120.093 41.6052 119.988 41.1502 119.768 40.7502C119.548 40.3502 119.243 40.0402 118.853 39.8202C118.473 39.5902 118.028 39.4752 117.518 39.4752C117.018 39.4752 116.573 39.5902 116.183 39.8202C115.793 40.0402 115.488 40.3552 115.268 40.7652C115.048 41.1652 114.938 41.6252 114.938 42.1452V42.3852C114.938 42.9152 115.058 43.3902 115.298 43.8102C115.548 44.2202 115.893 44.5402 116.333 44.7702C116.773 45.0002 117.278 45.1152 117.848 45.1152C118.318 45.1152 118.743 45.0352 119.123 44.8752C119.513 44.7152 119.853 44.4752 120.143 44.1552L120.938 45.0852C120.578 45.5052 120.128 45.8252 119.588 46.0452C119.058 46.2652 118.463 46.3752 117.803 46.3752ZM128.163 46.2852V44.6052L128.088 44.2902V41.4252C128.088 40.8152 127.908 40.3452 127.548 40.0152C127.198 39.6752 126.668 39.5052 125.958 39.5052C125.488 39.5052 125.028 39.5852 124.578 39.7452C124.128 39.8952 123.748 40.1002 123.438 40.3602L122.838 39.2802C123.248 38.9502 123.738 38.7002 124.308 38.5302C124.888 38.3502 125.493 38.2602 126.123 38.2602C127.213 38.2602 128.053 38.5252 128.643 39.0552C129.233 39.5852 129.528 40.3952 129.528 41.4852V46.2852H128.163ZM125.553 46.3752C124.963 46.3752 124.443 46.2752 123.993 46.0752C123.553 45.8752 123.213 45.6002 122.973 45.2502C122.733 44.8902 122.613 44.4852 122.613 44.0352C122.613 43.6052 122.713 43.2152 122.913 42.8652C123.123 42.5152 123.458 42.2352 123.918 42.0252C124.388 41.8152 125.018 41.7102 125.808 41.7102H128.328V42.7452H125.868C125.148 42.7452 124.663 42.8652 124.413 43.1052C124.163 43.3452 124.038 43.6352 124.038 43.9752C124.038 44.3652 124.193 44.6802 124.503 44.9202C124.813 45.1502 125.243 45.2652 125.793 45.2652C126.333 45.2652 126.803 45.1452 127.203 44.9052C127.613 44.6652 127.908 44.3152 128.088 43.8552L128.373 44.8452C128.183 45.3152 127.848 45.6902 127.368 45.9702C126.888 46.2402 126.283 46.3752 125.553 46.3752ZM132.193 46.2852V35.1552H133.633V46.2852H132.193ZM141.986 40.3152H147.386V41.5902H141.986V40.3152ZM142.121 44.9802H148.241V46.2852H140.621V35.7852H148.031V37.0902H142.121V44.9802ZM152.637 46.3752C151.977 46.3752 151.347 46.2852 150.747 46.1052C150.157 45.9252 149.692 45.7052 149.352 45.4452L149.952 44.3052C150.292 44.5352 150.712 44.7302 151.212 44.8902C151.712 45.0502 152.222 45.1302 152.742 45.1302C153.412 45.1302 153.892 45.0352 154.182 44.8452C154.482 44.6552 154.632 44.3902 154.632 44.0502C154.632 43.8002 154.542 43.6052 154.362 43.4652C154.182 43.3252 153.942 43.2202 153.642 43.1502C153.352 43.0802 153.027 43.0202 152.667 42.9702C152.307 42.9102 151.947 42.8402 151.587 42.7602C151.227 42.6702 150.897 42.5502 150.597 42.4002C150.297 42.2402 150.057 42.0252 149.877 41.7552C149.697 41.4752 149.607 41.1052 149.607 40.6452C149.607 40.1652 149.742 39.7452 150.012 39.3852C150.282 39.0252 150.662 38.7502 151.152 38.5602C151.652 38.3602 152.242 38.2602 152.922 38.2602C153.442 38.2602 153.967 38.3252 154.497 38.4552C155.037 38.5752 155.477 38.7502 155.817 38.9802L155.202 40.1202C154.842 39.8802 154.467 39.7152 154.077 39.6252C153.687 39.5352 153.297 39.4902 152.907 39.4902C152.277 39.4902 151.807 39.5952 151.497 39.8052C151.187 40.0052 151.032 40.2652 151.032 40.5852C151.032 40.8552 151.122 41.0652 151.302 41.2152C151.492 41.3552 151.732 41.4652 152.022 41.5452C152.322 41.6252 152.652 41.6952 153.012 41.7552C153.372 41.8052 153.732 41.8752 154.092 41.9652C154.452 42.0452 154.777 42.1602 155.067 42.3102C155.367 42.4602 155.607 42.6702 155.787 42.9402C155.977 43.2102 156.072 43.5702 156.072 44.0202C156.072 44.5002 155.932 44.9152 155.652 45.2652C155.372 45.6152 154.977 45.8902 154.467 46.0902C153.957 46.2802 153.347 46.3752 152.637 46.3752ZM160.602 46.3752C159.802 46.3752 159.182 46.1602 158.742 45.7302C158.302 45.3002 158.082 44.6852 158.082 43.8852V36.5952H159.522V43.8252C159.522 44.2552 159.627 44.5852 159.837 44.8152C160.057 45.0452 160.367 45.1602 160.767 45.1602C161.217 45.1602 161.592 45.0352 161.892 44.7852L162.342 45.8202C162.122 46.0102 161.857 46.1502 161.547 46.2402C161.247 46.3302 160.932 46.3752 160.602 46.3752ZM156.732 39.5202V38.3352H161.802V39.5202H156.732ZM169.018 46.2852V44.6052L168.943 44.2902V41.4252C168.943 40.8152 168.763 40.3452 168.403 40.0152C168.053 39.6752 167.523 39.5052 166.813 39.5052C166.343 39.5052 165.883 39.5852 165.433 39.7452C164.983 39.8952 164.603 40.1002 164.293 40.3602L163.693 39.2802C164.103 38.9502 164.593 38.7002 165.163 38.5302C165.743 38.3502 166.348 38.2602 166.978 38.2602C168.068 38.2602 168.908 38.5252 169.498 39.0552C170.088 39.5852 170.383 40.3952 170.383 41.4852V46.2852H169.018ZM166.408 46.3752C165.818 46.3752 165.298 46.2752 164.848 46.0752C164.408 45.8752 164.068 45.6002 163.828 45.2502C163.588 44.8902 163.468 44.4852 163.468 44.0352C163.468 43.6052 163.568 43.2152 163.768 42.8652C163.978 42.5152 164.313 42.2352 164.773 42.0252C165.243 41.8152 165.873 41.7102 166.663 41.7102H169.183V42.7452H166.723C166.003 42.7452 165.518 42.8652 165.268 43.1052C165.018 43.3452 164.893 43.6352 164.893 43.9752C164.893 44.3652 165.048 44.6802 165.358 44.9202C165.668 45.1502 166.098 45.2652 166.648 45.2652C167.188 45.2652 167.658 45.1452 168.058 44.9052C168.468 44.6652 168.763 44.3152 168.943 43.8552L169.228 44.8452C169.038 45.3152 168.703 45.6902 168.223 45.9702C167.743 46.2402 167.138 46.3752 166.408 46.3752ZM175.778 46.3752C174.978 46.3752 174.358 46.1602 173.918 45.7302C173.478 45.3002 173.258 44.6852 173.258 43.8852V36.5952H174.698V43.8252C174.698 44.2552 174.803 44.5852 175.013 44.8152C175.233 45.0452 175.543 45.1602 175.943 45.1602C176.393 45.1602 176.768 45.0352 177.068 44.7852L177.518 45.8202C177.298 46.0102 177.033 46.1502 176.723 46.2402C176.423 46.3302 176.108 46.3752 175.778 46.3752ZM171.908 39.5202V38.3352H176.978V39.5202H171.908ZM182.535 46.3752C181.685 46.3752 180.935 46.2002 180.285 45.8502C179.645 45.5002 179.145 45.0202 178.785 44.4102C178.435 43.8002 178.26 43.1002 178.26 42.3102C178.26 41.5202 178.43 40.8202 178.77 40.2102C179.12 39.6002 179.595 39.1252 180.195 38.7852C180.805 38.4352 181.49 38.2602 182.25 38.2602C183.02 38.2602 183.7 38.4302 184.29 38.7702C184.88 39.1102 185.34 39.5902 185.67 40.2102C186.01 40.8202 186.18 41.5352 186.18 42.3552C186.18 42.4152 186.175 42.4852 186.165 42.5652C186.165 42.6452 186.16 42.7202 186.15 42.7902H179.385V41.7552H185.4L184.815 42.1152C184.825 41.6052 184.72 41.1502 184.5 40.7502C184.28 40.3502 183.975 40.0402 183.585 39.8202C183.205 39.5902 182.76 39.4752 182.25 39.4752C181.75 39.4752 181.305 39.5902 180.915 39.8202C180.525 40.0402 180.22 40.3552 180 40.7652C179.78 41.1652 179.67 41.6252 179.67 42.1452V42.3852C179.67 42.9152 179.79 43.3902 180.03 43.8102C180.28 44.2202 180.625 44.5402 181.065 44.7702C181.505 45.0002 182.01 45.1152 182.58 45.1152C183.05 45.1152 183.475 45.0352 183.855 44.8752C184.245 44.7152 184.585 44.4752 184.875 44.1552L185.67 45.0852C185.31 45.5052 184.86 45.8252 184.32 46.0452C183.79 46.2652 183.195 46.3752 182.535 46.3752ZM193.783 40.3152H199.183V41.5902H193.783V40.3152ZM193.918 44.9802H200.038V46.2852H192.418V35.7852H199.828V37.0902H193.918V44.9802ZM200.926 46.2852L204.346 41.8452L204.331 42.5802L201.076 38.3352H202.681L205.171 41.6052H204.556L207.046 38.3352H208.621L205.321 42.6102L205.336 41.8452L208.786 46.2852H207.151L204.526 42.8052L205.111 42.8952L202.531 46.2852H200.926ZM214.572 46.3752C213.912 46.3752 213.307 46.2252 212.757 45.9252C212.217 45.6152 211.782 45.1602 211.452 44.5602C211.132 43.9602 210.972 43.2102 210.972 42.3102C210.972 41.4102 211.127 40.6602 211.437 40.0602C211.757 39.4602 212.187 39.0102 212.727 38.7102C213.277 38.4102 213.892 38.2602 214.572 38.2602C215.352 38.2602 216.042 38.4302 216.642 38.7702C217.242 39.1102 217.717 39.5852 218.067 40.1952C218.417 40.7952 218.592 41.5002 218.592 42.3102C218.592 43.1202 218.417 43.8302 218.067 44.4402C217.717 45.0502 217.242 45.5252 216.642 45.8652C216.042 46.2052 215.352 46.3752 214.572 46.3752ZM210.357 49.1952V38.3352H211.737V40.4802L211.647 42.3252L211.797 44.1702V49.1952H210.357ZM214.452 45.1152C214.962 45.1152 215.417 45.0002 215.817 44.7702C216.227 44.5402 216.547 44.2152 216.777 43.7952C217.017 43.3652 217.137 42.8702 217.137 42.3102C217.137 41.7402 217.017 41.2502 216.777 40.8402C216.547 40.4202 216.227 40.0952 215.817 39.8652C215.417 39.6352 214.962 39.5202 214.452 39.5202C213.952 39.5202 213.497 39.6352 213.087 39.8652C212.687 40.0952 212.367 40.4202 212.127 40.8402C211.897 41.2502 211.782 41.7402 211.782 42.3102C211.782 42.8702 211.897 43.3652 212.127 43.7952C212.367 44.2152 212.687 44.5402 213.087 44.7702C213.497 45.0002 213.952 45.1152 214.452 45.1152ZM224.122 46.3752C223.272 46.3752 222.522 46.2002 221.872 45.8502C221.232 45.5002 220.732 45.0202 220.372 44.4102C220.022 43.8002 219.847 43.1002 219.847 42.3102C219.847 41.5202 220.017 40.8202 220.357 40.2102C220.707 39.6002 221.182 39.1252 221.782 38.7852C222.392 38.4352 223.077 38.2602 223.837 38.2602C224.607 38.2602 225.287 38.4302 225.877 38.7702C226.467 39.1102 226.927 39.5902 227.257 40.2102C227.597 40.8202 227.767 41.5352 227.767 42.3552C227.767 42.4152 227.762 42.4852 227.752 42.5652C227.752 42.6452 227.747 42.7202 227.737 42.7902H220.972V41.7552H226.987L226.402 42.1152C226.412 41.6052 226.307 41.1502 226.087 40.7502C225.867 40.3502 225.562 40.0402 225.172 39.8202C224.792 39.5902 224.347 39.4752 223.837 39.4752C223.337 39.4752 222.892 39.5902 222.502 39.8202C222.112 40.0402 221.807 40.3552 221.587 40.7652C221.367 41.1652 221.257 41.6252 221.257 42.1452V42.3852C221.257 42.9152 221.377 43.3902 221.617 43.8102C221.867 44.2202 222.212 44.5402 222.652 44.7702C223.092 45.0002 223.597 45.1152 224.167 45.1152C224.637 45.1152 225.062 45.0352 225.442 44.8752C225.832 44.7152 226.172 44.4752 226.462 44.1552L227.257 45.0852C226.897 45.5052 226.447 45.8252 225.907 46.0452C225.377 46.2652 224.782 46.3752 224.122 46.3752ZM229.766 46.2852V38.3352H231.146V40.4952L231.011 39.9552C231.231 39.4052 231.601 38.9852 232.121 38.6952C232.641 38.4052 233.281 38.2602 234.041 38.2602V39.6552C233.981 39.6452 233.921 39.6402 233.861 39.6402C233.811 39.6402 233.761 39.6402 233.711 39.6402C232.941 39.6402 232.331 39.8702 231.881 40.3302C231.431 40.7902 231.206 41.4552 231.206 42.3252V46.2852H229.766ZM238.868 46.3752C238.068 46.3752 237.448 46.1602 237.008 45.7302C236.568 45.3002 236.348 44.6852 236.348 43.8852V36.5952H237.788V43.8252C237.788 44.2552 237.893 44.5852 238.103 44.8152C238.323 45.0452 238.633 45.1602 239.033 45.1602C239.483 45.1602 239.858 45.0352 240.158 44.7852L240.608 45.8202C240.388 46.0102 240.123 46.1502 239.813 46.2402C239.513 46.3302 239.198 46.3752 238.868 46.3752ZM234.998 39.5202V38.3352H240.068V39.5202H234.998ZM244.629 46.3752C243.969 46.3752 243.339 46.2852 242.739 46.1052C242.149 45.9252 241.684 45.7052 241.344 45.4452L241.944 44.3052C242.284 44.5352 242.704 44.7302 243.204 44.8902C243.704 45.0502 244.214 45.1302 244.734 45.1302C245.404 45.1302 245.884 45.0352 246.174 44.8452C246.474 44.6552 246.624 44.3902 246.624 44.0502C246.624 43.8002 246.534 43.6052 246.354 43.4652C246.174 43.3252 245.934 43.2202 245.634 43.1502C245.344 43.0802 245.019 43.0202 244.659 42.9702C244.299 42.9102 243.939 42.8402 243.579 42.7602C243.219 42.6702 242.889 42.5502 242.589 42.4002C242.289 42.2402 242.049 42.0252 241.869 41.7552C241.689 41.4752 241.599 41.1052 241.599 40.6452C241.599 40.1652 241.734 39.7452 242.004 39.3852C242.274 39.0252 242.654 38.7502 243.144 38.5602C243.644 38.3602 244.234 38.2602 244.914 38.2602C245.434 38.2602 245.959 38.3252 246.489 38.4552C247.029 38.5752 247.469 38.7502 247.809 38.9802L247.194 40.1202C246.834 39.8802 246.459 39.7152 246.069 39.6252C245.679 39.5352 245.289 39.4902 244.899 39.4902C244.269 39.4902 243.799 39.5952 243.489 39.8052C243.179 40.0052 243.024 40.2652 243.024 40.5852C243.024 40.8552 243.114 41.0652 243.294 41.2152C243.484 41.3552 243.724 41.4652 244.014 41.5452C244.314 41.6252 244.644 41.6952 245.004 41.7552C245.364 41.8052 245.724 41.8752 246.084 41.9652C246.444 42.0452 246.769 42.1602 247.059 42.3102C247.359 42.4602 247.599 42.6702 247.779 42.9402C247.969 43.2102 248.064 43.5702 248.064 44.0202C248.064 44.5002 247.924 44.9152 247.644 45.2652C247.364 45.6152 246.969 45.8902 246.459 46.0902C245.949 46.2802 245.339 46.3752 244.629 46.3752ZM253.892 46.2852V38.3352H255.332V46.2852H253.892ZM254.612 36.8052C254.332 36.8052 254.097 36.7152 253.907 36.5352C253.727 36.3552 253.637 36.1352 253.637 35.8752C253.637 35.6052 253.727 35.3802 253.907 35.2002C254.097 35.0202 254.332 34.9302 254.612 34.9302C254.892 34.9302 255.122 35.0202 255.302 35.2002C255.492 35.3702 255.587 35.5852 255.587 35.8452C255.587 36.1152 255.497 36.3452 255.317 36.5352C255.137 36.7152 254.902 36.8052 254.612 36.8052ZM262.327 38.2602C262.977 38.2602 263.547 38.3852 264.037 38.6352C264.537 38.8852 264.927 39.2652 265.207 39.7752C265.487 40.2852 265.627 40.9302 265.627 41.7102V46.2852H264.187V41.8752C264.187 41.1052 263.997 40.5252 263.617 40.1352C263.247 39.7452 262.722 39.5502 262.042 39.5502C261.532 39.5502 261.087 39.6502 260.707 39.8502C260.327 40.0502 260.032 40.3452 259.822 40.7352C259.622 41.1252 259.522 41.6102 259.522 42.1902V46.2852H258.082V38.3352H259.462V40.4802L259.237 39.9102C259.497 39.3902 259.897 38.9852 260.437 38.6952C260.977 38.4052 261.607 38.2602 262.327 38.2602ZM277.27 46.4052C276.46 46.4052 275.715 46.2752 275.035 46.0152C274.355 45.7452 273.765 45.3702 273.265 44.8902C272.765 44.4002 272.375 43.8302 272.095 43.1802C271.815 42.5302 271.675 41.8152 271.675 41.0352C271.675 40.2552 271.815 39.5402 272.095 38.8902C272.375 38.2402 272.765 37.6752 273.265 37.1952C273.775 36.7052 274.37 36.3302 275.05 36.0702C275.73 35.8002 276.48 35.6652 277.3 35.6652C278.13 35.6652 278.89 35.8002 279.58 36.0702C280.27 36.3402 280.855 36.7452 281.335 37.2852L280.405 38.2152C279.975 37.7952 279.505 37.4902 278.995 37.3002C278.495 37.1002 277.95 37.0002 277.36 37.0002C276.76 37.0002 276.2 37.1002 275.68 37.3002C275.17 37.5002 274.725 37.7802 274.345 38.1402C273.975 38.5002 273.685 38.9302 273.475 39.4302C273.275 39.9202 273.175 40.4552 273.175 41.0352C273.175 41.6052 273.275 42.1402 273.475 42.6402C273.685 43.1302 273.975 43.5602 274.345 43.9302C274.725 44.2902 275.17 44.5702 275.68 44.7702C276.19 44.9702 276.745 45.0702 277.345 45.0702C277.905 45.0702 278.44 44.9852 278.95 44.8152C279.47 44.6352 279.95 44.3402 280.39 43.9302L281.245 45.0702C280.725 45.5102 280.115 45.8452 279.415 46.0752C278.725 46.2952 278.01 46.4052 277.27 46.4052ZM279.805 44.8752V40.9752H281.245V45.0702L279.805 44.8752ZM288.857 46.4052C288.057 46.4052 287.312 46.2702 286.622 46.0002C285.942 45.7302 285.352 45.3552 284.852 44.8752C284.352 44.3852 283.962 43.8152 283.682 43.1652C283.402 42.5152 283.262 41.8052 283.262 41.0352C283.262 40.2652 283.402 39.5552 283.682 38.9052C283.962 38.2552 284.352 37.6902 284.852 37.2102C285.352 36.7202 285.942 36.3402 286.622 36.0702C287.302 35.8002 288.047 35.6652 288.857 35.6652C289.657 35.6652 290.392 35.8002 291.062 36.0702C291.742 36.3302 292.332 36.7052 292.832 37.1952C293.342 37.6752 293.732 38.2402 294.002 38.8902C294.282 39.5402 294.422 40.2552 294.422 41.0352C294.422 41.8152 294.282 42.5302 294.002 43.1802C293.732 43.8302 293.342 44.4002 292.832 44.8902C292.332 45.3702 291.742 45.7452 291.062 46.0152C290.392 46.2752 289.657 46.4052 288.857 46.4052ZM288.857 45.0702C289.437 45.0702 289.972 44.9702 290.462 44.7702C290.962 44.5702 291.392 44.2902 291.752 43.9302C292.122 43.5602 292.407 43.1302 292.607 42.6402C292.817 42.1502 292.922 41.6152 292.922 41.0352C292.922 40.4552 292.817 39.9202 292.607 39.4302C292.407 38.9402 292.122 38.5152 291.752 38.1552C291.392 37.7852 290.962 37.5002 290.462 37.3002C289.972 37.1002 289.437 37.0002 288.857 37.0002C288.267 37.0002 287.722 37.1002 287.222 37.3002C286.732 37.5002 286.302 37.7852 285.932 38.1552C285.562 38.5152 285.272 38.9402 285.062 39.4302C284.862 39.9202 284.762 40.4552 284.762 41.0352C284.762 41.6152 284.862 42.1502 285.062 42.6402C285.272 43.1302 285.562 43.5602 285.932 43.9302C286.302 44.2902 286.732 44.5702 287.222 44.7702C287.722 44.9702 288.267 45.0702 288.857 45.0702ZM296.715 46.2852V35.7852H298.215V44.9802H303.9V46.2852H296.715ZM305.621 46.2852V35.7852H310.046C311.166 35.7852 312.151 36.0052 313.001 36.4452C313.861 36.8852 314.526 37.5002 314.996 38.2902C315.476 39.0802 315.716 39.9952 315.716 41.0352C315.716 42.0752 315.476 42.9902 314.996 43.7802C314.526 44.5702 313.861 45.1852 313.001 45.6252C312.151 46.0652 311.166 46.2852 310.046 46.2852H305.621ZM307.121 44.9802H309.956C310.826 44.9802 311.576 44.8152 312.206 44.4852C312.846 44.1552 313.341 43.6952 313.691 43.1052C314.041 42.5052 314.216 41.8152 314.216 41.0352C314.216 40.2452 314.041 39.5552 313.691 38.9652C313.341 38.3752 312.846 37.9152 312.206 37.5852C311.576 37.2552 310.826 37.0902 309.956 37.0902H307.121V44.9802ZM319.378 40.3152H324.778V41.5902H319.378V40.3152ZM319.513 44.9802H325.633V46.2852H318.013V35.7852H325.423V37.0902H319.513V44.9802ZM328.062 46.2852V35.7852H329.292L336.237 44.4102H335.592V35.7852H337.092V46.2852H335.862L328.917 37.6602H329.562V46.2852H328.062ZM106.605 64.2852L101.985 53.7852H103.605L107.85 63.4752H106.92L111.195 53.7852H112.695L108.09 64.2852H106.605ZM114.034 64.2852V53.7852H115.534V64.2852H114.034ZM121.738 64.4052C120.938 64.4052 120.173 64.2852 119.443 64.0452C118.713 63.7952 118.138 63.4752 117.718 63.0852L118.273 61.9152C118.673 62.2652 119.183 62.5552 119.803 62.7852C120.423 63.0152 121.068 63.1302 121.738 63.1302C122.348 63.1302 122.843 63.0602 123.223 62.9202C123.603 62.7802 123.883 62.5902 124.063 62.3502C124.243 62.1002 124.333 61.8202 124.333 61.5102C124.333 61.1502 124.213 60.8602 123.973 60.6402C123.743 60.4202 123.438 60.2452 123.058 60.1152C122.688 59.9752 122.278 59.8552 121.828 59.7552C121.378 59.6552 120.923 59.5402 120.463 59.4102C120.013 59.2702 119.598 59.0952 119.218 58.8852C118.848 58.6752 118.548 58.3952 118.318 58.0452C118.088 57.6852 117.973 57.2252 117.973 56.6652C117.973 56.1252 118.113 55.6302 118.393 55.1802C118.683 54.7202 119.123 54.3552 119.713 54.0852C120.313 53.8052 121.073 53.6652 121.993 53.6652C122.603 53.6652 123.208 53.7452 123.808 53.9052C124.408 54.0652 124.928 54.2952 125.368 54.5952L124.873 55.7952C124.423 55.4952 123.948 55.2802 123.448 55.1502C122.948 55.0102 122.463 54.9402 121.993 54.9402C121.403 54.9402 120.918 55.0152 120.538 55.1652C120.158 55.3152 119.878 55.5152 119.698 55.7652C119.528 56.0152 119.443 56.2952 119.443 56.6052C119.443 56.9752 119.558 57.2702 119.788 57.4902C120.028 57.7102 120.333 57.8852 120.703 58.0152C121.083 58.1452 121.498 58.2652 121.948 58.3752C122.398 58.4752 122.848 58.5902 123.298 58.7202C123.758 58.8502 124.173 59.0202 124.543 59.2302C124.923 59.4402 125.228 59.7202 125.458 60.0702C125.688 60.4202 125.803 60.8702 125.803 61.4202C125.803 61.9502 125.658 62.4452 125.368 62.9052C125.078 63.3552 124.628 63.7202 124.018 64.0002C123.418 64.2702 122.658 64.4052 121.738 64.4052ZM126.404 64.2852L131.159 53.7852H132.644L137.414 64.2852H135.839L131.594 54.6252H132.194L127.949 64.2852H126.404ZM128.429 61.6602L128.834 60.4602H134.744L135.179 61.6602H128.429ZM146.339 64.3752C145.489 64.3752 144.739 64.2002 144.089 63.8502C143.449 63.5002 142.949 63.0202 142.589 62.4102C142.239 61.8002 142.064 61.1002 142.064 60.3102C142.064 59.5202 142.234 58.8202 142.574 58.2102C142.924 57.6002 143.399 57.1252 143.999 56.7852C144.609 56.4352 145.294 56.2602 146.054 56.2602C146.824 56.2602 147.504 56.4302 148.094 56.7702C148.684 57.1102 149.144 57.5902 149.474 58.2102C149.814 58.8202 149.984 59.5352 149.984 60.3552C149.984 60.4152 149.979 60.4852 149.969 60.5652C149.969 60.6452 149.964 60.7202 149.954 60.7902H143.189V59.7552H149.204L148.619 60.1152C148.629 59.6052 148.524 59.1502 148.304 58.7502C148.084 58.3502 147.779 58.0402 147.389 57.8202C147.009 57.5902 146.564 57.4752 146.054 57.4752C145.554 57.4752 145.109 57.5902 144.719 57.8202C144.329 58.0402 144.024 58.3552 143.804 58.7652C143.584 59.1652 143.474 59.6252 143.474 60.1452V60.3852C143.474 60.9152 143.594 61.3902 143.834 61.8102C144.084 62.2202 144.429 62.5402 144.869 62.7702C145.309 63.0002 145.814 63.1152 146.384 63.1152C146.854 63.1152 147.279 63.0352 147.659 62.8752C148.049 62.7152 148.389 62.4752 148.679 62.1552L149.474 63.0852C149.114 63.5052 148.664 63.8252 148.124 64.0452C147.594 64.2652 146.999 64.3752 146.339 64.3752ZM156.221 64.2852V53.7852H160.316C161.236 53.7852 162.021 53.9302 162.671 54.2202C163.321 54.5102 163.821 54.9302 164.171 55.4802C164.521 56.0302 164.696 56.6852 164.696 57.4452C164.696 58.2052 164.521 58.8602 164.171 59.4102C163.821 59.9502 163.321 60.3702 162.671 60.6702C162.021 60.9602 161.236 61.1052 160.316 61.1052H157.046L157.721 60.4002V64.2852H156.221ZM157.721 60.5502L157.046 59.8002H160.271C161.231 59.8002 161.956 59.5952 162.446 59.1852C162.946 58.7752 163.196 58.1952 163.196 57.4452C163.196 56.6952 162.946 56.1152 162.446 55.7052C161.956 55.2952 161.231 55.0902 160.271 55.0902H157.046L157.721 54.3402V60.5502ZM166.9 64.2852V53.7852H170.995C171.915 53.7852 172.7 53.9302 173.35 54.2202C174 54.5102 174.5 54.9302 174.85 55.4802C175.2 56.0302 175.375 56.6852 175.375 57.4452C175.375 58.2052 175.2 58.8602 174.85 59.4102C174.5 59.9502 174 60.3652 173.35 60.6552C172.7 60.9452 171.915 61.0902 170.995 61.0902H167.725L168.4 60.4002V64.2852H166.9ZM173.92 64.2852L171.25 60.4752H172.855L175.555 64.2852H173.92ZM168.4 60.5502L167.725 59.8152H170.95C171.91 59.8152 172.635 59.6102 173.125 59.2002C173.625 58.7802 173.875 58.1952 173.875 57.4452C173.875 56.6952 173.625 56.1152 173.125 55.7052C172.635 55.2952 171.91 55.0902 170.95 55.0902H167.725L168.4 54.3402V60.5502ZM182.539 64.4052C181.739 64.4052 180.994 64.2702 180.304 64.0002C179.624 63.7302 179.034 63.3552 178.534 62.8752C178.034 62.3852 177.644 61.8152 177.364 61.1652C177.084 60.5152 176.944 59.8052 176.944 59.0352C176.944 58.2652 177.084 57.5552 177.364 56.9052C177.644 56.2552 178.034 55.6902 178.534 55.2102C179.034 54.7202 179.624 54.3402 180.304 54.0702C180.984 53.8002 181.729 53.6652 182.539 53.6652C183.339 53.6652 184.074 53.8002 184.744 54.0702C185.424 54.3302 186.014 54.7052 186.514 55.1952C187.024 55.6752 187.414 56.2402 187.684 56.8902C187.964 57.5402 188.104 58.2552 188.104 59.0352C188.104 59.8152 187.964 60.5302 187.684 61.1802C187.414 61.8302 187.024 62.4002 186.514 62.8902C186.014 63.3702 185.424 63.7452 184.744 64.0152C184.074 64.2752 183.339 64.4052 182.539 64.4052ZM182.539 63.0702C183.119 63.0702 183.654 62.9702 184.144 62.7702C184.644 62.5702 185.074 62.2902 185.434 61.9302C185.804 61.5602 186.089 61.1302 186.289 60.6402C186.499 60.1502 186.604 59.6152 186.604 59.0352C186.604 58.4552 186.499 57.9202 186.289 57.4302C186.089 56.9402 185.804 56.5152 185.434 56.1552C185.074 55.7852 184.644 55.5002 184.144 55.3002C183.654 55.1002 183.119 55.0002 182.539 55.0002C181.949 55.0002 181.404 55.1002 180.904 55.3002C180.414 55.5002 179.984 55.7852 179.614 56.1552C179.244 56.5152 178.954 56.9402 178.744 57.4302C178.544 57.9202 178.444 58.4552 178.444 59.0352C178.444 59.6152 178.544 60.1502 178.744 60.6402C178.954 61.1302 179.244 61.5602 179.614 61.9302C179.984 62.2902 180.414 62.5702 180.904 62.7702C181.404 62.9702 181.949 63.0702 182.539 63.0702ZM190.396 64.2852V53.7852H194.491C195.411 53.7852 196.196 53.9302 196.846 54.2202C197.496 54.5102 197.996 54.9302 198.346 55.4802C198.696 56.0302 198.871 56.6852 198.871 57.4452C198.871 58.2052 198.696 58.8602 198.346 59.4102C197.996 59.9502 197.496 60.3702 196.846 60.6702C196.196 60.9602 195.411 61.1052 194.491 61.1052H191.221L191.896 60.4002V64.2852H190.396ZM191.896 60.5502L191.221 59.8002H194.446C195.406 59.8002 196.131 59.5952 196.621 59.1852C197.121 58.7752 197.371 58.1952 197.371 57.4452C197.371 56.6952 197.121 56.1152 196.621 55.7052C196.131 55.2952 195.406 55.0902 194.446 55.0902H191.221L191.896 54.3402V60.5502ZM202.44 58.3152H207.84V59.5902H202.44V58.3152ZM202.575 62.9802H208.695V64.2852H201.075V53.7852H208.485V55.0902H202.575V62.9802ZM211.124 64.2852V53.7852H215.219C216.139 53.7852 216.924 53.9302 217.574 54.2202C218.224 54.5102 218.724 54.9302 219.074 55.4802C219.424 56.0302 219.599 56.6852 219.599 57.4452C219.599 58.2052 219.424 58.8602 219.074 59.4102C218.724 59.9502 218.224 60.3652 217.574 60.6552C216.924 60.9452 216.139 61.0902 215.219 61.0902H211.949L212.624 60.4002V64.2852H211.124ZM218.144 64.2852L215.474 60.4752H217.079L219.779 64.2852H218.144ZM212.624 60.5502L211.949 59.8152H215.174C216.134 59.8152 216.859 59.6102 217.349 59.2002C217.849 58.7802 218.099 58.1952 218.099 57.4452C218.099 56.6952 217.849 56.1152 217.349 55.7052C216.859 55.2952 216.134 55.0902 215.174 55.0902H211.949L212.624 54.3402V60.5502ZM223.961 64.2852V55.0902H220.361V53.7852H229.046V55.0902H225.446V64.2852H223.961ZM233.097 64.2852V60.2652L233.442 61.1952L228.927 53.7852H230.532L234.327 60.0402H233.457L237.267 53.7852H238.752L234.252 61.1952L234.582 60.2652V64.2852H233.097ZM244.303 64.2852V53.7852H245.803V64.2852H244.303ZM248.946 64.2852V53.7852H250.176L257.121 62.4102H256.476V53.7852H257.976V64.2852H256.746L249.801 55.6602H250.446V64.2852H248.946ZM265.147 64.2852V53.7852H269.242C270.162 53.7852 270.947 53.9302 271.597 54.2202C272.247 54.5102 272.747 54.9302 273.097 55.4802C273.447 56.0302 273.622 56.6852 273.622 57.4452C273.622 58.2052 273.447 58.8602 273.097 59.4102C272.747 59.9502 272.247 60.3702 271.597 60.6702C270.947 60.9602 270.162 61.1052 269.242 61.1052H265.972L266.647 60.4002V64.2852H265.147ZM266.647 60.5502L265.972 59.8002H269.197C270.157 59.8002 270.882 59.5952 271.372 59.1852C271.872 58.7752 272.122 58.1952 272.122 57.4452C272.122 56.6952 271.872 56.1152 271.372 55.7052C270.882 55.2952 270.157 55.0902 269.197 55.0902H265.972L266.647 54.3402V60.5502ZM280.712 64.4052C279.912 64.4052 279.167 64.2702 278.477 64.0002C277.797 63.7302 277.207 63.3552 276.707 62.8752C276.207 62.3852 275.817 61.8152 275.537 61.1652C275.257 60.5152 275.117 59.8052 275.117 59.0352C275.117 58.2652 275.257 57.5552 275.537 56.9052C275.817 56.2552 276.207 55.6902 276.707 55.2102C277.207 54.7202 277.797 54.3402 278.477 54.0702C279.157 53.8002 279.902 53.6652 280.712 53.6652C281.512 53.6652 282.247 53.8002 282.917 54.0702C283.597 54.3302 284.187 54.7052 284.687 55.1952C285.197 55.6752 285.587 56.2402 285.857 56.8902C286.137 57.5402 286.277 58.2552 286.277 59.0352C286.277 59.8152 286.137 60.5302 285.857 61.1802C285.587 61.8302 285.197 62.4002 284.687 62.8902C284.187 63.3702 283.597 63.7452 282.917 64.0152C282.247 64.2752 281.512 64.4052 280.712 64.4052ZM280.712 63.0702C281.292 63.0702 281.827 62.9702 282.317 62.7702C282.817 62.5702 283.247 62.2902 283.607 61.9302C283.977 61.5602 284.262 61.1302 284.462 60.6402C284.672 60.1502 284.777 59.6152 284.777 59.0352C284.777 58.4552 284.672 57.9202 284.462 57.4302C284.262 56.9402 283.977 56.5152 283.607 56.1552C283.247 55.7852 282.817 55.5002 282.317 55.3002C281.827 55.1002 281.292 55.0002 280.712 55.0002C280.122 55.0002 279.577 55.1002 279.077 55.3002C278.587 55.5002 278.157 55.7852 277.787 56.1552C277.417 56.5152 277.127 56.9402 276.917 57.4302C276.717 57.9202 276.617 58.4552 276.617 59.0352C276.617 59.6152 276.717 60.1502 276.917 60.6402C277.127 61.1302 277.417 61.5602 277.787 61.9302C278.157 62.2902 278.587 62.5702 279.077 62.7702C279.577 62.9702 280.122 63.0702 280.712 63.0702ZM288.57 64.2852V53.7852H292.665C293.585 53.7852 294.37 53.9302 295.02 54.2202C295.67 54.5102 296.17 54.9302 296.52 55.4802C296.87 56.0302 297.045 56.6852 297.045 57.4452C297.045 58.2052 296.87 58.8602 296.52 59.4102C296.17 59.9502 295.67 60.3652 295.02 60.6552C294.37 60.9452 293.585 61.0902 292.665 61.0902H289.395L290.07 60.4002V64.2852H288.57ZM295.59 64.2852L292.92 60.4752H294.525L297.225 64.2852H295.59ZM290.07 60.5502L289.395 59.8152H292.62C293.58 59.8152 294.305 59.6102 294.795 59.2002C295.295 58.7802 295.545 58.1952 295.545 57.4452C295.545 56.6952 295.295 56.1152 294.795 55.7052C294.305 55.2952 293.58 55.0902 292.62 55.0902H289.395L290.07 54.3402V60.5502ZM301.407 64.2852V55.0902H297.807V53.7852H306.492V55.0902H302.892V64.2852H301.407ZM312.285 64.4052C310.905 64.4052 309.82 64.0102 309.03 63.2202C308.24 62.4302 307.845 61.2752 307.845 59.7552V53.7852H309.345V59.6952C309.345 60.8652 309.6 61.7202 310.11 62.2602C310.63 62.8002 311.36 63.0702 312.3 63.0702C313.25 63.0702 313.98 62.8002 314.49 62.2602C315.01 61.7202 315.27 60.8652 315.27 59.6952V53.7852H316.725V59.7552C316.725 61.2752 316.33 62.4302 315.54 63.2202C314.76 64.0102 313.675 64.4052 312.285 64.4052ZM324.541 64.4052C323.731 64.4052 322.986 64.2752 322.306 64.0152C321.626 63.7452 321.036 63.3702 320.536 62.8902C320.036 62.4002 319.646 61.8302 319.366 61.1802C319.086 60.5302 318.946 59.8152 318.946 59.0352C318.946 58.2552 319.086 57.5402 319.366 56.8902C319.646 56.2402 320.036 55.6752 320.536 55.1952C321.046 54.7052 321.641 54.3302 322.321 54.0702C323.001 53.8002 323.751 53.6652 324.571 53.6652C325.401 53.6652 326.161 53.8002 326.851 54.0702C327.541 54.3402 328.126 54.7452 328.606 55.2852L327.676 56.2152C327.246 55.7952 326.776 55.4902 326.266 55.3002C325.766 55.1002 325.221 55.0002 324.631 55.0002C324.031 55.0002 323.471 55.1002 322.951 55.3002C322.441 55.5002 321.996 55.7802 321.616 56.1402C321.246 56.5002 320.956 56.9302 320.746 57.4302C320.546 57.9202 320.446 58.4552 320.446 59.0352C320.446 59.6052 320.546 60.1402 320.746 60.6402C320.956 61.1302 321.246 61.5602 321.616 61.9302C321.996 62.2902 322.441 62.5702 322.951 62.7702C323.461 62.9702 324.016 63.0702 324.616 63.0702C325.176 63.0702 325.711 62.9852 326.221 62.8152C326.741 62.6352 327.221 62.3402 327.661 61.9302L328.516 63.0702C327.996 63.5102 327.386 63.8452 326.686 64.0752C325.996 64.2952 325.281 64.4052 324.541 64.4052ZM327.076 62.8752V58.9752H328.516V63.0702L327.076 62.8752ZM329.797 64.2852L334.553 53.7852H336.038L340.808 64.2852H339.233L334.988 54.6252H335.588L331.343 64.2852H329.797ZM331.823 61.6602L332.228 60.4602H338.138L338.573 61.6602H331.823ZM342.374 64.2852V53.7852H343.874V62.9802H349.559V64.2852H342.374Z" fill="#E3DEC8"/>
<g clip-path="url(#clip0_2039_1535)">
<path d="M82 59.3892L48.7182 0.101002L45.8105 0.0721443L35.5481 0H34.0942L33.9802 0.187575L0 58.812L1.4396 61.3804L6.51382 70.4128L7.01269 71.293L7.12672 71.495L7.18373 71.6104H7.49731H8.15296H8.7231L72.0368 71.9711H74.688L81.2588 60.6445L82 59.3747V59.3892ZM45.497 46.3022L36.6741 46.2445L41.1354 38.5395L45.497 46.3022ZM47.2501 2.64048L78.3654 58.0906L30.0035 57.7443L35.206 48.784L60.1067 48.9571L63.0144 48.9715L36.9734 2.56834L47.2501 2.64048ZM34.7926 3.82365L58.6814 46.3888L48.4189 46.3166L34.6786 21.8309L33.2105 24.3703L7.98192 67.8733L2.9077 58.8409L34.7926 3.82365ZM34.6216 26.9387L39.6958 35.9856L25.6134 60.2693H27.2953L78.3369 60.6301L73.2341 69.4317L10.1912 69.0709L34.6073 26.9242L34.6216 26.9387Z" fill="white"/>
</g>
<defs>
<clipPath id="clip0_2039_1535">
<rect width="82" height="72" fill="white"/>
</clipPath>
</defs>
</svg>
