<svg width="40" height="40" viewBox="0 0 40 40" fill="none" xmlns="http://www.w3.org/2000/svg">
<g clip-path="url(#clip0_2001_843)">
<path d="M8.90425 36.2455V35.0208H5.24455C5.23575 34.8305 5.22256 34.6885 5.22256 34.5455C5.22168 30.8545 5.14255 27.1607 5.23839 23.4723C5.43448 15.9141 8.79522 10.214 15.23 6.40137C15.4077 6.29596 15.6407 6.23968 15.8482 6.23879C18.6172 6.22807 21.3861 6.22896 24.156 6.23879C24.3503 6.23879 24.5684 6.28703 24.7345 6.3835C30.385 9.66547 33.7334 14.5706 34.5776 21.13C34.8308 23.0953 34.7236 25.1097 34.7658 27.1017C34.786 28.0504 34.7693 29 34.7693 29.9817H29.8794V31.2386H34.7482V32.4811H27.4112V33.7219H34.7394V34.9806H28.6519V36.2482C28.7961 36.2482 28.9509 36.2482 29.1056 36.2482C30.9073 36.2482 32.7099 36.2598 34.5116 36.2383C34.8827 36.2339 35.1474 36.3393 35.3918 36.6126C35.966 37.2531 36.17 37.9633 35.8464 38.7887C35.5483 39.5489 34.8783 40.0009 34.0148 40.0009C24.6668 40.0036 15.3197 40.0036 5.97174 40.0009C5.0511 40.0009 4.33621 39.464 4.08121 38.6181C3.83325 37.7954 4.16651 36.8386 4.8981 36.3438C5.01768 36.2625 5.1997 36.2535 5.35358 36.2526C6.52307 36.2455 7.69256 36.2491 8.90425 36.2491V36.2455ZM15.0841 29.9924C15.8253 29.9924 16.5261 29.9924 17.2261 29.9924C17.926 29.9924 18.6488 29.9924 19.3918 29.9924V32.4651H20.629V29.9871C21.2182 29.9871 21.7598 30.004 22.3006 29.9844C24.4558 29.9058 26.1599 28.0942 26.1485 25.9056C26.1379 23.7376 24.4338 21.9483 22.2988 21.8733C21.7484 21.8545 21.1962 21.8706 20.6413 21.8706V16.2133H24.8937V14.9725H20.6018V12.5142H19.3646V14.9904C18.7895 14.9904 18.2628 14.9716 17.737 14.994C16.5675 15.0431 15.5642 15.4898 14.8141 16.4116C13.7449 17.7266 13.5303 19.2103 14.2276 20.754C14.9108 22.2672 16.1498 23.0283 17.7827 23.1069C18.3041 23.1319 18.8273 23.1105 19.3523 23.1105V28.765H15.0841V29.9906V29.9924ZM26.1247 33.7228V32.5249H24.9535V33.7228H26.1247Z" fill="#FF7813"/>
<path d="M18.134 3.7179H19.3572V0.00803966H20.597V2.44406H21.8351V0H25.5546C25.4719 1.64813 25.3013 3.2507 24.67 4.76484C24.6216 4.88097 24.3754 4.97298 24.2215 4.97387C21.7155 4.98638 19.2094 4.9828 16.7034 4.9828C16.6155 4.9828 16.5275 4.9828 16.4396 4.9828C15.2763 4.9828 15.264 4.98638 14.9395 3.851C14.5825 2.60217 14.4682 1.3194 14.4541 0H18.1349V3.7179H18.134Z" fill="#FF7813"/>
<path d="M25.9688 5.6322H31.0538V6.8587C30.586 6.8587 30.1059 6.82029 29.6346 6.86584C28.444 6.98108 27.3458 6.82029 26.4357 5.94486C26.3258 5.83855 26.1789 5.77066 25.9688 5.6322Z" fill="#FF7813"/>
<path d="M25.8778 5.20789C26.0695 4.53167 26.2304 3.95281 26.4001 3.37753C26.4195 3.31321 26.4784 3.25068 26.5338 3.20959C27.0895 2.80582 27.6488 2.40652 28.2546 1.97327C28.4964 2.31629 28.7215 2.6352 28.9713 2.98984C27.9477 3.72323 26.9524 4.43698 25.877 5.20789H25.8778Z" fill="#FF7813"/>
<path d="M19.3604 21.9027C18.6227 21.8607 17.8981 21.9 17.2079 21.7643C15.8555 21.4981 14.9533 20.1831 15.0791 18.803C15.2074 17.3978 16.3417 16.2937 17.7293 16.2428C18.2657 16.2231 18.803 16.2392 19.3604 16.2392V21.9027Z" fill="#FF7813"/>
<path d="M20.6289 28.7364V23.0801C21.3587 23.1194 22.0815 23.0792 22.7727 23.2123C24.1154 23.4704 25.0044 24.7363 24.9156 26.1191C24.8259 27.5046 23.7338 28.6382 22.3629 28.7302C21.7984 28.7677 21.2286 28.7364 20.6289 28.7364Z" fill="#FF7813"/>
</g>
<defs>
<clipPath id="clip0_2001_843">
<rect width="32" height="40" fill="white" transform="translate(4)"/>
</clipPath>
</defs>
</svg>
