<svg width="40" height="40" viewBox="0 0 40 40" fill="none" xmlns="http://www.w3.org/2000/svg">
<path d="M37.2541 37.6489C37.7702 37.6489 38.2434 37.6436 38.7176 37.6498C39.4979 37.6614 40.014 38.1399 39.9997 38.831C39.9863 39.5131 39.4506 39.9987 38.6854 39.9987C26.2317 40.0005 13.7771 40.0005 1.32336 39.9987C0.539422 39.9987 -0.00969189 39.489 0.000129658 38.7953C0.0099512 38.1069 0.524243 37.6543 1.3189 37.6507C2.53855 37.6453 3.7591 37.6409 4.97876 37.6552C5.29037 37.6587 5.43144 37.6007 5.42698 37.2436C5.40823 35.7857 5.42519 34.3277 5.41002 32.8698C5.40823 32.7279 5.30734 32.5047 5.19483 32.46C3.42785 31.7449 2.36891 30.3343 1.65104 28.6818C-0.248088 24.3098 -0.492733 19.8548 1.19568 15.348C2.25551 12.5187 3.69839 9.89035 5.4243 7.41732C5.63502 7.11556 5.94216 6.82898 6.27074 6.67453C6.74396 6.45133 7.26718 6.66649 7.60736 7.1977C8.46452 8.53688 9.34042 9.86892 10.1119 11.2581C11.3351 13.4624 12.2958 15.7801 12.8342 18.2593C12.944 18.7656 12.8574 19.087 12.4449 19.4396C10.8726 20.7824 9.33774 22.1689 7.79933 23.5509C5.65109 25.4811 6.22878 28.5862 8.91363 29.6415C9.04131 29.6915 9.17345 29.9031 9.18506 30.0486C9.22077 30.4923 9.17524 30.9423 9.2056 31.386C9.22703 31.7021 9.10649 31.8931 8.84398 32.0279C8.76452 32.069 8.69398 32.1422 8.61095 32.1574C7.76094 32.3118 7.73236 32.9037 7.75469 33.6055C7.79754 34.9268 7.76719 36.2508 7.76719 37.6105H11.5038V26.5489C11.2485 26.7649 11.0529 26.9328 10.8556 27.0988C10.2958 27.5702 9.56899 27.5595 9.13238 27.0738C8.6788 26.5694 8.75113 25.8293 9.31274 25.3302C14.0271 21.1386 18.7414 16.9478 23.4576 12.7589C24.1156 12.1741 24.6415 12.1786 25.3085 12.7696C28.013 15.1685 30.7139 17.571 33.4175 19.9717C33.5023 20.0476 33.5925 20.1181 33.7559 20.2538C33.7559 19.5396 33.7559 18.9093 33.7559 18.2781C33.7559 17.6531 33.7505 17.0282 33.7577 16.4032C33.7666 15.6372 34.2639 15.1087 34.9497 15.1212C35.6309 15.1346 36.0872 15.6345 36.0898 16.397C36.0952 18.2415 36.097 20.0869 36.0863 21.9314C36.0845 22.2224 36.1631 22.4269 36.3881 22.6224C37.3988 23.5009 38.3934 24.3973 39.3943 25.2865C39.989 25.815 40.0872 26.5355 39.6336 27.0587C39.181 27.58 38.4515 27.5783 37.847 27.0524C37.6729 26.9006 37.5006 26.7462 37.2559 26.5301V37.648L37.2541 37.6489ZM17.0164 37.6471V28.9648H19.3396V37.6489C20.0102 37.6489 20.6316 37.6311 21.2522 37.6561C21.5941 37.6703 21.6781 37.548 21.6772 37.2213C21.6665 34.1269 21.6736 31.0325 21.6682 27.9372C21.6665 27.0354 21.2209 26.5971 20.3191 26.5935C18.9209 26.5891 17.5218 26.5908 16.1235 26.5926C15.0708 26.5935 14.6583 27.0024 14.6583 28.0452C14.6574 31.0655 14.6583 34.0858 14.6583 37.1061C14.6583 37.1954 14.6289 37.3016 14.6673 37.3704C14.7262 37.4766 14.8289 37.6328 14.9173 37.6355C15.5834 37.6578 16.2503 37.648 17.0182 37.648L17.0164 37.6471ZM29.7478 26.5926C28.8407 26.5926 27.9326 26.5855 27.0255 26.5944C26.2094 26.6024 25.7486 27.0524 25.7433 27.8693C25.7326 29.6844 25.7326 31.4985 25.7433 33.3135C25.7478 34.1269 26.2129 34.5947 27.021 34.6C28.821 34.6108 30.621 34.6099 32.4211 34.6C33.2514 34.5956 33.7273 34.1215 33.7309 33.2948C33.7398 31.4949 33.7389 29.6951 33.7309 27.8952C33.7273 27.0613 33.2595 26.6007 32.4255 26.5926C31.5326 26.5846 30.6407 26.5908 29.7478 26.5908V26.5926Z" fill="#FF7813"/>
<path d="M14.9693 17.1603C14.3523 14.6471 13.3871 12.366 12.1978 10.1787C11.68 9.2261 11.0889 8.31367 10.5612 7.36553C10.4451 7.15662 10.3737 6.85486 10.4273 6.63077C11.2478 3.19353 14.313 0.469636 17.7542 0.0902013C21.5515 -0.327623 25.0239 1.50527 26.673 4.78984C27.2489 5.93707 27.5811 7.1468 27.6177 8.42795C27.6453 9.39395 27.6328 10.3608 27.6346 11.3277C27.6346 11.4116 27.6114 11.4965 27.5891 11.6491C27.2686 11.3715 26.9944 11.1277 26.715 10.8929C25.2864 9.69124 23.4408 9.67517 22.0364 10.9036C19.7979 12.8624 17.5854 14.8498 15.3613 16.8246C15.2532 16.921 15.1416 17.013 14.9711 17.1594L14.9693 17.1603Z" fill="#FF7813"/>
<path d="M29.627 5.16835C29.6234 2.30697 31.9243 -0.00178454 34.7761 1.03502e-06C37.6288 0.00178661 39.9208 2.31054 39.9155 5.17728C39.9101 8.01902 37.6235 10.3144 34.7895 10.3224C31.9377 10.3305 29.6305 8.02706 29.627 5.16835Z" fill="#FF7813"/>
<path d="M31.3779 28.9701V32.2216H28.0957V28.9701H31.3779Z" fill="#FF7813"/>
</svg>
