<svg width="42" height="42" viewBox="0 0 42 42" fill="none" xmlns="http://www.w3.org/2000/svg">
<g clip-path="url(#clip0_2001_316)">
<path d="M9.51991 30.7024C8.11825 32.0994 6.70442 33.5085 5.29058 34.9167C-1.33542 27.6677 -2.15618 15.5231 5.24748 7.10663C6.66132 8.52421 8.07609 9.94367 9.48337 11.3556C4.86896 17.7605 4.86334 24.2057 9.52085 30.7024H9.51991Z" fill="#FF7813"/>
<path d="M7.0752 36.725C8.50777 35.2953 9.91973 33.8843 11.3692 32.4376C14.1509 34.7088 17.3506 35.9296 20.9877 35.9315C24.6259 35.9333 27.8321 34.7312 30.6148 32.4489C32.0576 33.9002 33.4743 35.3243 34.8881 36.7466C27.4104 43.5216 15.2846 43.9844 7.0752 36.725Z" fill="#FF7813"/>
<path d="M32.4998 11.3229C33.893 9.93341 35.3134 8.51583 36.7338 7.09918C43.7037 14.8654 43.8011 26.9959 36.731 34.914C35.3115 33.4973 33.8921 32.0798 32.4951 30.6847C37.1245 24.2442 37.1311 17.8149 32.4998 11.3229Z" fill="#FF7813"/>
<path d="M34.9109 5.27029C33.4802 6.70755 32.0729 8.12232 30.6872 9.51461C24.2448 4.87209 17.8146 4.87959 11.3629 9.47338C9.98934 8.08765 8.56801 6.65321 7.15137 5.22344C14.7705 -1.62555 26.8982 -1.87197 34.9109 5.27029Z" fill="#FF7813"/>
<path d="M24.9758 15.6983H28.8659C28.8659 16.6765 28.8734 17.6087 28.8537 18.541C28.8519 18.6272 28.6945 18.7584 28.5877 18.7865C26.1319 19.447 23.6734 20.0982 21.214 20.7447C21.0847 20.7784 20.932 20.785 20.8036 20.7522C18.3076 20.1207 15.8144 19.4817 13.3203 18.8427C13.2931 18.8361 13.2716 18.8099 13.2275 18.779V15.6946H17.1608C17.0268 14.1224 17.3763 12.777 18.6205 11.7932C19.371 11.201 20.2283 10.9087 21.1887 10.9528C22.3814 11.008 23.3521 11.5112 24.0932 12.4415C24.6844 13.1836 24.75 13.4628 24.9748 15.6974L24.9758 15.6983ZM22.4545 15.6684C22.5332 14.8279 22.5285 14.0718 21.7415 13.6005C21.2543 13.3092 20.5909 13.3607 20.159 13.712C19.5134 14.2377 19.5444 14.9394 19.6352 15.6684H22.4545Z" fill="#FF7813"/>
<path d="M13.2285 27.589V21.3827C13.5246 21.4502 13.7916 21.5055 14.0558 21.5729C16.1864 22.1173 18.3133 22.6757 20.4495 23.1976C20.7943 23.2819 21.1962 23.281 21.5391 23.1938C23.7756 22.6251 26.0036 22.0208 28.2354 21.4286C28.4284 21.3771 28.6233 21.334 28.8482 21.2797V27.5881H13.2295L13.2285 27.589Z" fill="#FF7813"/>
</g>
<defs>
<clipPath id="clip0_2001_316">
<rect width="41.9944" height="42" fill="white" transform="translate(0.00292969)"/>
</clipPath>
</defs>
</svg>
