<svg width="40" height="40" viewBox="0 0 40 40" fill="none" xmlns="http://www.w3.org/2000/svg">
<g clip-path="url(#clip0_2001_407)">
<path d="M15.9452 39.9866C15.9261 39.6739 15.8918 39.4089 15.8956 39.1429C15.9242 37.1255 15.9614 35.1091 15.9938 33.0928C16.0176 31.5607 15.8346 31.4024 14.3216 31.4119C11.7017 31.4291 9.08084 31.4139 6.46095 31.4119C6.30173 31.4119 6.14347 31.4053 5.98426 31.4053C5.06806 31.4043 4.79825 31.6255 4.7973 32.5474C4.79539 34.1358 4.8545 35.7241 4.87262 37.3124C4.8812 38.0589 4.84306 38.8054 4.84878 39.5519C4.85164 39.8684 4.76298 40.0114 4.41786 39.9943C3.89445 39.9695 3.36914 39.9714 2.84573 39.9943C2.51586 40.0086 2.39764 39.9018 2.40718 39.5643C2.42911 38.8664 2.41385 38.1666 2.41385 37.4678C2.41385 33.8135 2.42148 30.1602 2.40432 26.5058C2.40241 26.0654 2.5273 25.9491 2.963 25.951C7.90437 25.9662 12.8457 25.9672 17.7871 25.95C18.2571 25.9481 18.362 26.093 18.3601 26.5402C18.3439 30.8294 18.3439 35.1187 18.3601 39.4079C18.362 39.856 18.26 40.0295 17.7871 39.9981C17.1893 39.958 16.5858 39.9885 15.9452 39.9885V39.9866Z" fill="#FF7813"/>
<path d="M8.65378 3.02409C9.22771 2.41774 9.77114 1.84381 10.368 1.21362C10.9419 1.81902 11.4929 2.40058 12.0774 3.01646C11.6579 3.4636 11.2374 3.88785 10.8504 4.33976C10.7512 4.45511 10.7178 4.66104 10.7226 4.82312C10.7464 5.67925 10.8122 6.53348 10.8256 7.38962C10.8389 8.21524 10.796 9.04087 10.8036 9.8665C10.8056 10.0295 10.8771 10.2574 10.9972 10.3413C11.4634 10.6654 11.6941 11.0773 11.5959 11.6407C11.4977 12.2004 11.1459 12.5331 10.6034 12.6742C10.5758 12.6818 10.5539 12.7104 10.4805 12.7657C13.6609 15.52 16.8319 18.2648 20.0877 21.084H0.680664C3.93264 18.2686 7.10168 15.5248 10.3098 12.7476C10.0877 12.657 9.92177 12.6075 9.77114 12.5255C8.99223 12.1022 8.91405 10.9724 9.65292 10.45C9.91129 10.2669 9.98565 10.0858 9.98184 9.79213C9.96372 8.42689 9.96372 7.0607 9.95896 5.69546C9.95896 5.58392 9.93512 5.46093 9.97421 5.36368C10.264 4.65532 9.84932 4.22154 9.38979 3.79252C9.14763 3.56561 8.92835 3.31392 8.65283 3.02504L8.65378 3.02409Z" fill="#FF7813"/>
<path d="M24.1025 6.04729V0H37.0733V6.04729H24.1025Z" fill="#FF7813"/>
<path d="M39.3203 36.8624V39.9018H21.8896V36.8624H39.3203Z" fill="#FF7813"/>
<path d="M24.1104 36.3257V33.7754H37.0677V36.3257H24.1104Z" fill="#FF7813"/>
<path d="M15.075 32.3339V39.9495H10.8486V32.3339H15.075ZM12.1061 35.9967C12.0671 35.7651 12.0604 35.5201 11.9765 35.3055C11.9221 35.1673 11.7267 34.9633 11.6409 34.9833C11.4874 35.0205 11.3082 35.1807 11.25 35.3313C11.1737 35.5277 11.1823 35.767 11.1947 35.9853C11.2157 36.3505 11.1537 36.8796 11.6523 36.8729C12.109 36.8662 12.0642 36.3628 12.1061 35.9958V35.9967Z" fill="#FF7813"/>
<path d="M9.94769 39.9847C8.57673 39.9847 7.26012 39.9828 5.94254 39.9867C5.60886 39.9876 5.66511 39.7502 5.66416 39.5529C5.6613 38.4403 5.66225 37.3286 5.66225 36.216C5.66225 35.1034 5.66225 33.9918 5.66225 32.8792C5.66225 32.7066 5.66225 32.535 5.66225 32.332H9.94674V39.9847H9.94769ZM9.58732 35.9157C9.57015 35.7937 9.58159 35.5573 9.49579 35.3647C9.42524 35.2055 9.23933 35.0968 9.10491 34.9662C8.97906 35.113 8.80554 35.2426 8.74167 35.4123C8.67302 35.5954 8.6816 35.8194 8.70163 36.0215C8.7369 36.3667 8.67016 36.8834 9.14209 36.8786C9.60734 36.8739 9.55776 36.3743 9.58732 35.9167V35.9157Z" fill="#FF7813"/>
<path d="M28.9111 15.1826C29.4078 14.7068 29.9885 14.152 30.6196 13.5485C31.1649 14.1748 31.6912 14.7812 32.2623 15.4381C31.7942 15.8852 31.2069 16.4458 30.5567 17.0664C30.0018 16.4315 29.4727 15.8261 28.9111 15.1826Z" fill="#FF7813"/>
<path d="M32.1236 19.9495C31.7146 20.4195 31.1874 21.0268 30.6306 21.6675C29.9937 21.0592 29.4141 20.5053 28.8926 20.0057C29.4522 19.3803 29.9871 18.7835 30.5696 18.1323C31.1483 18.8083 31.6774 19.427 32.1236 19.9495Z" fill="#FF7813"/>
<path d="M30.6374 12.4559C30.0006 11.8467 29.42 11.2909 28.9004 10.7942C29.4572 10.1649 29.9882 9.56429 30.5555 8.92267C31.1904 9.52806 31.7701 10.0801 32.2916 10.5768C31.7367 11.207 31.198 11.8181 30.6374 12.4559Z" fill="#FF7813"/>
<path d="M32.3064 24.4179C31.7315 25.07 31.2081 25.664 30.6523 26.2942C30.0049 25.6774 29.4253 25.1244 28.8828 24.6067C29.4529 23.9832 30.0011 23.3816 30.5693 22.76C31.2052 23.3664 31.7859 23.9212 32.3074 24.4179H32.3064Z" fill="#FF7813"/>
<path d="M28.79 29.1267C29.4231 28.5223 30.0046 27.9665 30.6005 27.3983C31.2088 27.9808 31.7903 28.5366 32.4062 29.1258C31.7922 29.7131 31.2116 30.2679 30.5986 30.8552C29.9999 30.2832 29.4193 29.7274 28.791 29.1267H28.79Z" fill="#FF7813"/>
<path d="M14.9398 4.82603C14.3535 4.20824 13.8005 3.62572 13.2266 3.02223C13.7957 2.42065 14.3487 1.83718 14.9369 1.21558C15.5252 1.83432 16.0781 2.41683 16.653 3.02128C16.081 3.62381 15.528 4.20633 14.9398 4.82603Z" fill="#FF7813"/>
<path d="M17.7979 3.02412C18.3746 2.41491 18.9181 1.84098 19.5092 1.21747C20.0841 1.82096 20.6361 2.39966 21.2262 3.01936C20.6599 3.61903 20.1098 4.20059 19.5187 4.82601C18.941 4.22061 18.3861 3.64001 17.7979 3.02412Z" fill="#FF7813"/>
<path d="M7.50846 3.02033C6.93643 3.62287 6.38347 4.20538 5.79332 4.82699C5.21462 4.21682 4.66357 3.63526 4.08105 3.02129C4.6569 2.41589 5.2089 1.83433 5.79428 1.21844C6.37775 1.83242 6.93071 2.41303 7.50846 3.02033Z" fill="#FF7813"/>
<path d="M1.24707 1.24512C1.84484 1.87339 2.37492 2.43207 2.9336 3.02031C2.37778 3.60569 1.84293 4.17009 1.24707 4.79836V1.24512Z" fill="#FF7813"/>
<path d="M28.7307 16.3362C29.1035 16.7881 29.4762 17.24 29.8738 17.7224C29.5458 18.0342 29.1178 18.4403 28.6191 18.9141V16.4134C28.6563 16.3877 28.6935 16.3619 28.7307 16.3362Z" fill="#FF7813"/>
<path d="M28.6289 20.9057C29.117 21.3709 29.5394 21.7742 29.8664 22.086C29.4555 22.5427 29.0589 22.9831 28.6289 23.4608V20.9057Z" fill="#FF7813"/>
<path d="M29.704 31.4711C29.439 31.7666 29.0481 32.2042 28.6162 32.6866V30.1201C29.0433 30.6511 29.4123 31.1088 29.704 31.4701V31.4711Z" fill="#FF7813"/>
<path d="M28.6309 7.08936C29.1066 7.5384 29.5261 7.935 29.9255 8.31159C29.5022 8.75872 29.0952 9.1887 28.6309 9.67873V7.08936Z" fill="#FF7813"/>
<path d="M28.626 11.6855C29.1151 12.1537 29.5326 12.5522 29.9969 12.9955C29.5469 13.4236 29.1227 13.8278 28.626 14.2997V11.6855Z" fill="#FF7813"/>
<path d="M28.6201 28.0675V25.5086C29.1082 25.9739 29.5287 26.3743 29.8891 26.7175C29.46 27.1742 29.0596 27.5994 28.6201 28.0675Z" fill="#FF7813"/>
<path d="M31.1973 12.9927C31.6454 12.5655 32.061 12.1689 32.5434 11.7094V14.2702C32.0725 13.824 31.6511 13.4236 31.1973 12.9927Z" fill="#FF7813"/>
<path d="M31.1973 26.8224C31.6597 26.3829 32.0753 25.9882 32.5539 25.5325V28.1114C32.0725 27.6537 31.6568 27.26 31.1973 26.8224Z" fill="#FF7813"/>
<path d="M32.5425 9.66438C32.0686 9.21248 31.651 8.81397 31.2764 8.4555C31.6854 7.99978 32.0724 7.56885 32.5425 7.04449V9.66438Z" fill="#FF7813"/>
<path d="M31.2646 22.2767C31.6756 21.8181 32.0626 21.3862 32.5422 20.8504V23.4894C32.0769 23.0479 31.6546 22.6466 31.2646 22.2767Z" fill="#FF7813"/>
<path d="M32.4377 18.8636C32.064 18.4327 31.6912 18.0017 31.2812 17.5279C31.6397 17.1847 32.064 16.7786 32.5531 16.3114V18.794C32.5149 18.8178 32.4758 18.8407 32.4377 18.8646V18.8636Z" fill="#FF7813"/>
<path d="M32.5493 32.721C32.063 32.2557 31.6464 31.8562 31.2021 31.431C31.6531 31.0001 32.0707 30.6025 32.5493 30.1459V32.721Z" fill="#FF7813"/>
<path d="M15.9502 4.97091C16.4031 4.49422 16.793 4.08331 17.222 3.63141C17.6386 4.06806 18.0371 4.48468 18.5014 4.97091H15.9502Z" fill="#FF7813"/>
<path d="M3.50811 3.62665C3.93904 4.08141 4.32802 4.49232 4.78183 4.96996H2.23535C2.67581 4.50471 3.06956 4.08999 3.50811 3.62665Z" fill="#FF7813"/>
<path d="M3.51111 2.41109C3.09353 1.97444 2.70169 1.56544 2.24121 1.08398H4.76671C4.32625 1.54923 3.93346 1.96491 3.51111 2.41109Z" fill="#FF7813"/>
<path d="M9.35212 1.07062C8.8964 1.55493 8.50838 1.96679 8.08412 2.41679C7.67131 1.98205 7.27375 1.56352 6.80469 1.07062H9.35212Z" fill="#FF7813"/>
<path d="M20.5244 4.96996C20.9725 4.49708 21.3615 4.08713 21.7266 3.70197C22.1642 4.11478 22.5828 4.51043 23.0709 4.96996H20.5254H20.5244Z" fill="#FF7813"/>
<path d="M6.79297 4.98234C7.26203 4.49135 7.65959 4.07472 8.08385 3.62854C8.50715 4.07854 8.90089 4.49612 9.35851 4.98234H6.79297Z" fill="#FF7813"/>
<path d="M12.6546 3.62378C13.0846 4.08045 13.4736 4.49231 13.9255 4.97186H11.3818C11.8261 4.50089 12.2208 4.08426 12.6556 3.62378H12.6546Z" fill="#FF7813"/>
<path d="M12.6556 2.42065C12.2256 1.96493 11.8376 1.55307 11.3848 1.07257H13.9188C13.4784 1.54259 13.0865 1.96207 12.6556 2.42065Z" fill="#FF7813"/>
<path d="M17.2279 2.41965C16.795 1.96107 16.408 1.55017 15.9561 1.07062H18.493C18.0516 1.54063 17.6607 1.95821 17.2279 2.41965Z" fill="#FF7813"/>
<path d="M20.5156 1.06207H23.0831C22.615 1.55306 22.2203 1.96683 21.7979 2.41111C21.3746 1.96588 20.9866 1.55783 20.5156 1.06207Z" fill="#FF7813"/>
<path d="M23.5629 2.03544V4.11571C23.1692 3.75724 22.7792 3.40258 22.415 3.07176C22.8345 2.69232 23.2302 2.33575 23.5629 2.03448V2.03544Z" fill="#FF7813"/>
<path d="M30.5231 7.76527C30.1932 7.41061 29.8414 7.03212 29.4639 6.62598H31.6118C31.3029 6.94917 30.9426 7.32671 30.5231 7.76527Z" fill="#FF7813"/>
<path d="M29.502 33.2014C29.8633 32.7953 30.2075 32.4073 30.564 32.0068C30.9702 32.4273 31.3363 32.8048 31.7205 33.2014H29.502Z" fill="#FF7813"/>
</g>
<defs>
<clipPath id="clip0_2001_407">
<rect width="38.6395" height="40" fill="white" transform="translate(0.680664)"/>
</clipPath>
</defs>
</svg>
