<svg width="71" height="80" viewBox="0 0 71 80" fill="none" xmlns="http://www.w3.org/2000/svg">
<g clip-path="url(#clip0_498_1938)">
<path d="M13.8847 12.7334C11.9558 12.7392 10.9899 13.7129 10.9899 15.669C10.9885 29.3676 10.9899 43.0676 10.9899 56.7661C10.9899 57.0142 11.0157 57.2609 11.0229 57.3951C12.7038 57.2854 14.2903 57.1816 15.9383 57.0748V12.7334C15.216 12.7334 14.5496 12.732 13.8833 12.7334H13.8847Z" fill="#AA9A8D"/>
<path d="M58.9663 35.9485C57.946 32.987 58.1007 30.0961 59.2716 27.2225C59.5997 26.4161 59.4765 26.2589 58.588 26.2574C56.3424 26.2531 54.0982 26.2574 51.8526 26.2574C49.6557 26.2574 47.4573 26.2574 45.2604 26.2574C44.1699 26.2574 44.0996 26.357 44.5052 27.3667C45.5814 30.0499 45.7548 32.7706 44.8936 35.5489C44.6313 36.3957 44.3648 37.2483 44.1957 38.1167C43.7958 40.1695 44.2874 41.1331 46.179 41.9582C47.3814 42.4833 48.7055 42.7689 49.8334 43.4152C51.2521 44.2274 52.453 44.236 53.8818 43.4181C55.1543 42.6882 56.6161 42.2987 57.9789 41.7217C59.2114 41.1994 59.7703 40.2055 59.6069 38.8942C59.4822 37.9003 59.2902 36.8934 58.9649 35.9485H58.9663Z" fill="#FFB27B"/>
<path d="M49.6917 0H21.3083C9.58867 0 0 9.65216 0 21.4494V58.5506C0 70.3478 9.58867 80 21.3083 80H49.6917C61.4113 80 71 70.3478 71 58.5506V21.4494C71 9.65216 61.4113 0 49.6917 0ZM60.0198 59.406C60.0098 61.2121 59.0109 62.2176 57.2182 62.2176C45.8969 62.2205 34.5757 62.2176 23.2544 62.2176C20.1017 62.2176 16.9489 62.2147 13.7962 62.2176C12.1252 62.219 10.9974 63.2389 10.9959 64.7363C10.9945 66.2337 12.1223 67.2608 13.7904 67.2608C28.1928 67.2622 42.5951 67.2608 56.9975 67.2665C57.3987 67.2665 57.8158 67.281 58.1984 67.3877C59.4136 67.7281 60.1273 68.8187 60.0026 70.068C59.8837 71.261 58.8863 72.2188 57.6581 72.3083C57.4446 72.3241 57.2282 72.3169 57.0132 72.3169C42.6353 72.3169 28.2558 72.3169 13.8778 72.3169C9.17738 72.3169 5.96587 69.0813 5.96587 64.3338C5.963 48.105 5.963 31.8762 5.96587 15.646C5.96587 10.9115 9.18741 7.68018 13.8965 7.67874C28.2745 7.67586 42.6539 7.67874 57.0319 7.67874C59.0726 7.67874 60.017 8.62506 60.0213 10.6677C60.0227 11.6299 60.0356 12.5921 60.017 13.5528C59.9883 15.03 58.8891 16.1567 57.5048 16.1538C56.1204 16.1494 55.0442 15.0286 55.0012 13.5427C54.994 13.3062 55.0012 13.0696 55.0012 12.7594H21.0891V57.1167H55.0012C55.0012 56.6623 54.9912 56.1949 55.0026 55.7261C55.0385 54.2287 56.1061 53.1266 57.5119 53.1266C58.9164 53.1266 59.9955 54.2316 60.0184 55.7275C60.037 56.9537 60.0284 58.1798 60.0227 59.406H60.0198ZM64.6587 27.4144C64.4924 27.7606 64.3491 28.1169 64.1872 28.4646C63.2027 30.5635 63.0479 32.6711 63.8891 34.8854C64.5684 36.6742 64.8364 38.5625 64.5612 40.4869C64.1585 43.3128 62.489 45.1795 60.0069 46.3566C58.8433 46.9077 57.6151 47.3174 56.4171 47.7934C55.3939 48.1988 54.4137 48.6359 53.6226 49.4769C52.6653 50.4953 51.152 50.5516 50.2148 49.5649C49.2775 48.5767 48.1081 48.1122 46.9015 47.6506C45.7421 47.2063 44.5513 46.8154 43.455 46.247C39.8322 44.3673 38.3805 41.0235 39.3091 36.8531C39.4811 36.0813 39.6731 35.3052 39.9454 34.5652C40.6992 32.5196 40.4556 30.552 39.6 28.6117C39.3779 28.1068 39.1386 27.6077 38.9351 27.0956C38.5037 26.0036 38.6814 25.0226 39.5155 24.1831C40.2234 23.469 40.9485 22.7694 41.6421 22.0409C42.2096 21.4451 42.886 21.197 43.6972 21.2013C46.42 21.2128 49.1428 21.2056 51.8657 21.2056C54.4695 21.2056 57.0734 21.2345 59.6759 21.1912C60.755 21.1724 61.6277 21.4667 62.3514 22.2875C62.906 22.9151 63.5337 23.4762 64.1155 24.0792C65.1416 25.1424 65.2892 26.1002 64.6572 27.4173L64.6587 27.4144Z" fill="#AA9A8D"/>
</g>
<defs>
<clipPath id="clip0_498_1938">
<rect width="71" height="80" fill="white"/>
</clipPath>
</defs>
</svg>
