<svg width="68" height="80" viewBox="0 0 68 80" fill="none" xmlns="http://www.w3.org/2000/svg">
<g clip-path="url(#clip0_498_1957)">
<path d="M16.2129 74.8687C17.2206 72.6559 18.1997 70.4644 19.2199 68.289C19.4446 67.8103 19.7709 67.3674 20.108 66.9566C21.5883 65.1509 22.9759 64.9563 24.9199 66.2458C27.3704 67.8711 29.8209 69.4946 32.2696 71.1216C33.2951 71.8021 34.3688 71.5324 34.9217 70.3447C35.7064 68.6587 35.8295 66.8566 35.1874 65.1331C34.5828 63.5131 34.8307 62.1754 35.9115 60.9145C36.3948 60.3501 36.8728 59.7786 37.3865 59.2427C40.3542 56.1511 38.84 52.5523 36.311 50.8055C35.4371 50.2018 34.5186 49.6607 33.4967 49.0141C34.4384 48.1926 35.1214 47.3335 36.4698 47.3406C44.5811 47.3799 52.6906 47.3603 60.8019 47.3603C61.1193 47.3603 61.4368 47.3603 61.7525 47.3603C61.7989 47.4406 61.8434 47.5192 61.8898 47.5996C61.3655 48.1247 60.8732 48.6891 60.3096 49.1677C58.8169 50.4394 57.2688 51.6467 55.7867 52.9309C53.8659 54.5919 52.4141 56.5673 51.6508 59.0499C50.6199 62.4022 48.6153 64.9902 45.6529 66.9798C42.1537 69.332 39.8156 72.6148 39.0915 76.878C38.9435 77.7532 38.9328 78.6516 38.8596 79.5267C32.6067 80.8752 23.0098 79.3445 16.2129 74.867V74.8687Z" fill="#AA9A8D"/>
<path d="M7.29883 66.9137C9.93839 64.2882 10.7481 60.9573 11.4758 57.6013C11.9698 55.3241 12.6546 53.1434 13.7996 51.0823C14.3882 50.0232 14.604 48.7551 15.0338 47.4424H31.7719C31.7843 47.4888 31.8289 47.5567 31.8111 47.5942C30.9336 49.416 31.1976 50.3197 32.9418 51.4449C33.7159 51.9432 34.5345 52.3825 35.255 52.9487C36.9154 54.2525 37.1027 55.7724 35.8275 57.446C35.2336 58.2247 34.5398 58.9248 33.9085 59.6749C32.3996 61.4663 32.0412 63.4059 32.8937 65.6563C33.2522 66.6012 33.1612 67.7174 33.2736 68.7551C33.1558 68.8408 33.0381 68.9266 32.9204 69.0123C32.5441 68.8337 32.1321 68.7069 31.8004 68.4676C29.7298 66.978 27.7376 65.3688 25.6046 63.9811C22.9507 62.254 20.4378 62.7791 18.4545 65.2652C16.7406 67.4138 15.79 69.9553 14.777 72.4611C14.6325 72.8166 14.497 73.1755 14.3151 73.6435C11.6095 71.7503 9.35162 69.5213 7.3024 66.9119L7.29883 66.9137Z" fill="#FFB27B"/>
<path d="M41.3025 79.2017C41.2276 77.546 41.4363 76.0726 42.1176 74.6795C43.3571 72.1397 45.0728 69.9965 47.4752 68.4837C50.4803 66.5905 52.5153 63.9168 53.5301 60.5769C54.4736 57.471 56.4354 55.2492 58.8877 53.3221C59.94 52.4951 60.9762 51.6486 61.9945 50.7823C63.0682 49.8679 64.0152 48.8481 64.3969 47.421H67.7891C67.411 55.5082 64.6216 62.5559 59.3247 68.5712C54.5075 74.0436 48.4989 77.5443 41.3007 79.2035L41.3025 79.2017Z" fill="#FFB27B"/>
<path d="M47.1755 7.7889C48.349 9.0409 49.5208 10.2197 50.5998 11.4824C50.919 11.8557 51.1687 12.4915 51.0974 12.9523C50.9868 13.6649 50.2591 13.6685 49.6492 13.6703C45.1922 13.6703 40.7353 13.6703 36.2784 13.6703C35.9235 13.6703 35.5685 13.6703 35.0817 13.6703V14.7616C35.0817 20.5644 35.0817 26.3672 35.0817 32.17C35.0817 32.4379 35.1066 32.7112 35.062 32.972C34.9586 33.5721 34.5823 34.04 33.983 33.8936C33.5871 33.7971 33.2464 33.3435 32.9593 32.9862C32.8416 32.8398 32.9254 32.5255 32.9254 32.2879C32.9254 22.0807 32.9254 11.8753 32.9254 1.66816C32.9254 1.45919 32.9129 1.25023 32.9343 1.04305C33.0039 0.384003 33.3766 -0.0142826 34.0365 5.70482e-06C34.6518 0.014294 35.005 0.403649 35.0727 1.01983C35.0977 1.25201 35.0763 1.49134 35.0763 1.83426C35.4651 1.85212 35.8058 1.88248 36.1464 1.88248C40.4553 1.88606 44.7642 1.88427 49.0713 1.88427C49.28 1.88427 49.4869 1.88784 49.6956 1.88427C50.277 1.87177 50.853 1.88963 51.1277 2.5326C51.4131 3.20236 51.0332 3.66137 50.6069 4.10967C49.6635 5.09913 48.7271 6.09752 47.7908 7.09413C47.5928 7.30488 47.4073 7.52992 47.1791 7.7889H47.1755Z" fill="#FFB27B"/>
<path d="M14.7913 44.9562C14.7913 42.2897 14.6094 39.6392 14.8466 37.028C15.0481 34.808 17.3506 32.7755 19.9045 32.5415C22.4585 32.3076 25.0766 32.2718 27.6217 32.5522C30.3576 32.8541 32.9775 35.0688 32.8527 38.7301C32.7831 40.7769 32.8402 42.8291 32.8402 44.9562H14.7931H14.7913Z" fill="#AA9A8D"/>
<path d="M53.325 44.9902H35.2154C35.1976 44.6705 35.1655 44.3597 35.1637 44.049C35.1584 42.3844 35.1602 40.7198 35.1619 39.0552C35.1619 35.2635 37.1612 32.8309 40.9387 32.4576C43.2269 32.2326 45.5704 32.2987 47.8657 32.5005C50.5731 32.738 53.5515 34.9866 53.3446 38.8338C53.2376 40.8466 53.325 42.8684 53.325 44.9902Z" fill="#AA9A8D"/>
<path d="M0.209961 47.4103H12.5606C12.3181 48.2819 12.2646 49.1552 11.8597 49.8089C10.1618 52.5541 9.54296 55.6421 8.83134 58.7105C8.35159 60.7787 7.7131 62.7844 6.36121 64.4812C6.25064 64.6205 6.16681 64.7777 5.9742 65.0759C2.35015 59.5999 0.475701 53.8096 0.209961 47.4103Z" fill="#AA9A8D"/>
<path d="M12.4782 35.6529V44.9938H0.154297C0.154297 44.3348 0.154297 43.6954 0.154297 43.0577C0.154297 42.0469 0.154297 41.036 0.154297 40.0251C0.159647 37.3353 1.54185 35.2974 4.17963 34.9349C6.4732 34.6187 8.84524 34.8438 11.1798 34.9116C11.7042 34.9277 12.2178 35.2849 12.7368 35.485C12.6494 35.5421 12.5638 35.5993 12.4764 35.6546L12.4782 35.6529Z" fill="#AA9A8D"/>
<path d="M55.5152 35.4045C55.5027 35.4117 55.6989 35.2563 55.9201 35.1991C58.9003 34.4222 61.9215 34.265 64.8446 35.2724C66.8511 35.9636 67.848 37.6067 67.8463 39.7803C67.8445 41.4967 67.8463 43.2149 67.8463 44.9812H55.5152V35.4045Z" fill="#AA9A8D"/>
<path d="M23.7714 30.0142C20.818 30.0214 18.4388 27.6549 18.4316 24.7062C18.4263 21.7503 20.7859 19.3695 23.734 19.357C26.6821 19.3445 29.0612 21.711 29.0737 24.6686C29.0862 27.6263 26.7231 30.0071 23.7714 30.0142Z" fill="#AA9A8D"/>
<path d="M44.2188 30.0125C41.2689 30.0018 38.9147 27.6228 38.9307 24.6669C38.9468 21.711 41.3242 19.3517 44.2705 19.3678C47.2204 19.3838 49.5693 21.7593 49.5603 24.7169C49.5514 27.6639 47.1722 30.0232 44.2188 30.0125Z" fill="#AA9A8D"/>
<path d="M60.3042 32.3523C57.9125 32.3344 56.0024 30.3983 56.0256 28.0211C56.0488 25.6582 58.0195 23.7222 60.3809 23.7436C62.7529 23.765 64.672 25.7225 64.6506 28.0979C64.6292 30.5001 62.7173 32.3701 60.3042 32.3523Z" fill="#AA9A8D"/>
<path d="M7.6522 32.3522C5.23914 32.3504 3.34329 30.459 3.34864 28.0586C3.35399 25.6796 5.2873 23.7435 7.65755 23.7471C10.0171 23.7489 11.9718 25.7064 11.9665 28.0639C11.9629 30.4554 10.051 32.3558 7.6522 32.3522Z" fill="#AA9A8D"/>
</g>
<defs>
<clipPath id="clip0_498_1957">
<rect width="67.6923" height="80" fill="white" transform="translate(0.154297)"/>
</clipPath>
</defs>
</svg>
