<svg width="77" height="80" viewBox="0 0 77 80" fill="none" xmlns="http://www.w3.org/2000/svg">
<g clip-path="url(#clip0_498_1948)">
<path d="M64.8683 37.6707C53.9364 37.2532 47.2141 45.7474 46.2505 52.8641C45.0709 61.585 50.2906 69.9615 59.0401 72.5454C58.892 72.7435 58.7796 72.9344 58.6297 73.0879C54.2986 77.501 49.0379 79.8584 42.8582 79.9351C35.87 80.0225 28.8783 80.019 21.8902 79.9404C9.9839 79.8048 0.144106 69.9829 0.0441732 58.0909C-0.0396989 48.0387 0.0209745 37.9848 0.0245435 27.9309C0.0245435 26.6924 0.590233 26.1142 1.80727 26.0893C2.69953 26.0696 3.59356 26.0518 4.48404 26.0982C7.14653 26.2392 9.09164 28.1896 9.23262 30.8539C9.27723 31.714 9.24689 32.5777 9.25582 33.4414C9.27366 35.0832 10.182 36.1253 11.59 36.1253C12.9944 36.1253 13.9259 35.0707 13.9277 33.445C13.933 26.0982 13.9241 18.7514 13.9348 11.4045C13.9384 8.96688 15.3642 7.13776 17.5823 6.66486C20.2948 6.08846 22.8591 7.95685 23.1215 10.7121C23.1643 11.1547 23.1661 11.6026 23.1661 12.0487C23.1679 18.8888 23.1679 25.7306 23.1679 32.5706C23.1679 32.8383 23.1679 33.106 23.1679 33.3736C23.1839 35.0814 24.094 36.1432 25.5288 36.1236C26.9332 36.1039 27.8129 35.0707 27.8147 33.3986C27.8201 23.9104 27.8129 14.4221 27.8219 4.93389C27.8237 2.39274 29.1567 0.663551 31.4837 0.115706C34.0569 -0.489243 36.698 1.3488 37.0032 3.9756C37.0603 4.47527 37.0585 4.98564 37.0585 5.49065C37.0621 14.6809 37.0585 23.8729 37.0656 33.0631C37.0656 33.536 37.0781 34.025 37.1977 34.4765C37.4761 35.5275 38.4915 36.1985 39.5657 36.1182C40.7043 36.0326 41.559 35.2081 41.675 34.0625C41.7071 33.7377 41.6964 33.4093 41.6964 33.081C41.6964 26.8048 41.6857 20.5287 41.7036 14.2526C41.7125 11.3706 43.7807 9.29344 46.4914 9.37553C48.9451 9.45048 50.8813 11.3421 50.9438 13.8332C51.0027 16.2405 50.9652 18.6514 50.9652 21.0605C50.9652 25.1952 50.9598 29.3299 50.9688 33.4629C50.9723 34.9993 51.7611 35.9719 53.0656 36.1057C54.4932 36.2521 55.5799 35.2206 55.5853 33.6538C55.5996 29.7868 55.5817 25.9197 55.596 22.0545C55.6049 19.7096 56.9611 17.8823 59.0669 17.3202C61.9524 16.5493 64.8201 18.6853 64.8558 21.7243C64.9076 26.0072 64.8719 30.29 64.8737 34.5728C64.8737 35.5811 64.8737 36.5911 64.8737 37.669L64.8683 37.6707ZM26.628 53.9776C24.5223 55.7514 23.266 58.0249 23.1215 60.8051C22.9751 63.6282 23.9548 66.0819 26.0159 68.0199C29.7616 71.5425 35.3846 71.4587 38.9858 67.9289C42.3514 64.6311 43.2258 58.2693 38.2702 53.933C40.624 49.7287 40.2367 46.0294 37.1781 43.4954C34.4638 41.2469 30.5218 41.2166 27.7862 43.4258C24.6615 45.9473 24.2457 49.6002 26.628 53.9776ZM18.4032 56.2439C18.4032 52.318 18.4086 48.3921 18.3997 44.4679C18.3961 42.8351 17.5288 41.8304 16.0423 41.7965C14.3185 41.7573 12.5929 41.7591 10.869 41.7965C9.53599 41.8269 8.60983 42.7834 8.58127 44.0539C8.55094 45.3566 9.4878 46.3649 10.8333 46.4434C11.4865 46.4809 12.1449 46.5023 12.7945 46.4487C13.5279 46.3881 13.7564 46.6343 13.7528 47.3874C13.7224 53.0372 13.7367 58.6887 13.7367 64.3385C13.7367 65.6465 13.7153 66.9563 13.7474 68.2644C13.7778 69.5474 14.5862 70.4433 15.7746 70.5914C17.2397 70.7734 18.3889 69.6724 18.3961 68.0199C18.4121 64.094 18.4014 60.1681 18.4014 56.2439H18.4032Z" fill="#AA9A8D"/>
<path d="M63.7567 42.3979C70.9251 42.3676 76.7836 48.1673 76.8176 55.3285C76.8515 62.6111 71.0286 68.4857 63.7906 68.4732C56.6294 68.4607 50.769 62.6325 50.7423 55.4945C50.7155 48.3047 56.5562 42.4283 63.7567 42.3979ZM66.1533 53.0283C66.1533 51.7024 66.1819 50.4889 66.1462 49.279C66.1051 47.8603 65.1112 46.8771 63.796 46.886C62.479 46.8949 61.5189 47.8871 61.4815 49.3147C61.4565 50.2659 61.4404 51.2188 61.4868 52.1681C61.5189 52.8195 61.3244 53.0729 60.6392 53.0408C59.572 52.9908 58.4978 52.9979 57.4288 53.0408C56.26 53.0889 55.3856 53.8955 55.2143 54.9984C55.0429 56.0905 55.6586 57.1808 56.7293 57.5359C57.1683 57.6805 57.6626 57.6858 58.1337 57.6948C59.2223 57.7162 60.3108 57.7019 61.4743 57.7019C61.4743 58.885 61.4743 59.9218 61.4743 60.9586C61.4761 62.8734 62.3594 64.0209 63.821 64.0119C65.286 64.003 66.1551 62.8609 66.1569 60.9444C66.1569 59.8862 66.1569 58.8297 66.1569 57.7019C67.4649 57.7019 68.6213 57.7198 69.7759 57.6966C71.2463 57.668 72.301 56.6865 72.3134 55.3749C72.3259 54.0294 71.2445 53.0461 69.7152 53.0301C68.5892 53.0194 67.4614 53.0283 66.1515 53.0283H66.1533Z" fill="#FFB27B"/>
<path d="M32.4436 65.9105C29.84 65.9141 27.7878 63.8672 27.7949 61.2779C27.8021 58.7046 29.8935 56.64 32.4686 56.6632C35.0401 56.6864 37.0423 58.6886 37.0637 61.2583C37.0851 63.8601 35.0525 65.9069 32.4418 65.9087L32.4436 65.9105Z" fill="#AA9A8D"/>
<path d="M32.4453 51.954C30.9035 51.9593 29.6615 50.7119 29.6829 49.1773C29.7025 47.6854 30.9374 46.4684 32.431 46.4684C33.9354 46.4684 35.1667 47.6711 35.1899 49.1612C35.2131 50.7012 33.9871 51.9486 32.4453 51.954Z" fill="#AA9A8D"/>
</g>
<defs>
<clipPath id="clip0_498_1948">
<rect width="76.8179" height="80" fill="white"/>
</clipPath>
</defs>
</svg>
