<svg width="80" height="80" viewBox="0 0 80 80" fill="none" xmlns="http://www.w3.org/2000/svg">
<path d="M62.8721 53.4117C62.8721 57.4906 62.8932 61.5676 62.8645 65.6464C62.8453 68.36 63.4231 70.888 64.927 73.177C65.6847 74.3282 65.9487 75.5769 65.5355 76.9117C64.7012 79.6175 61.5328 80.9159 59.2196 79.2733C56.9025 77.6268 54.5415 77.3859 51.8112 77.7569C43.4595 78.8889 35.0906 78.7857 26.7447 77.5905C24.7012 77.2979 22.9199 77.8066 21.263 79.0056C18.7011 80.8624 15.4388 79.868 14.4937 76.9748C14.0957 75.7547 14.2047 74.5557 14.9127 73.4906C16.6615 70.8612 17.18 67.9622 17.1551 64.8548C17.0939 57.1445 17.134 49.4342 17.136 41.7258C17.136 36.62 18.4868 31.9732 21.8466 28.0263C23.7714 25.766 26.2243 24.3604 28.9737 23.2341C32.9745 21.5934 37.0843 21.4729 41.3089 21.3371C45.3613 21.209 49.0062 22.3602 52.5535 23.8862C58.1902 26.311 61.1233 31.0037 62.367 36.8246C62.7171 38.4615 62.8204 40.1711 62.8511 41.8501C62.9199 45.7033 62.8721 49.5604 62.8721 53.4155V53.4117ZM38.5002 62.7168C37.6946 62.2522 36.9638 61.9443 36.3687 61.4643C35.0064 60.3666 34.3521 58.8885 34.2621 57.1387C34.2143 56.2247 33.5982 55.6529 32.8157 55.6835C32.0235 55.7122 31.4649 56.3279 31.44 57.219C31.4323 57.504 31.4476 57.7946 31.4916 58.0757C32.0637 61.6746 34.0345 64.13 37.5263 65.2449C38.326 65.4992 38.6532 65.7918 38.6016 66.6676C38.5308 67.8723 39.1182 68.5263 40.0327 68.5072C40.9071 68.49 41.4639 67.8494 41.4084 66.7039C41.3682 65.8721 41.5959 65.5068 42.4454 65.2525C46.2051 64.13 48.6217 60.7988 48.5719 56.9685C48.5241 53.1822 45.9564 49.8778 42.1929 48.8567C41.55 48.6827 41.4161 48.3996 41.4199 47.8049C41.4429 44.5885 41.4295 41.3701 41.4352 38.1537C41.4352 37.9146 41.4888 37.6756 41.5175 37.4289C43.8383 37.9299 45.5202 40.0105 45.7268 42.5615C45.8186 43.7088 46.3525 44.2902 47.2517 44.2271C48.1376 44.1639 48.6389 43.4813 48.5585 42.3607C48.3863 39.9225 47.4354 37.8133 45.4934 36.3294C44.3301 35.4402 42.9276 34.8626 41.4237 34.0308C41.284 33.22 41.8829 31.476 40.0059 31.4684C38.106 31.4626 38.7508 33.2296 38.5059 34.3444C38.2495 34.4267 38.0103 34.507 37.7693 34.5796C33.9216 35.7346 31.4362 38.9721 31.4342 42.8273C31.4342 46.7111 33.956 49.9849 37.8649 51.0864C38.4657 51.2566 38.5863 51.5396 38.5843 52.0865C38.5671 55.3355 38.5767 58.5844 38.5729 61.8334C38.5729 62.0456 38.5384 62.2579 38.5002 62.7149V62.7168Z" fill="#FFB27B"/>
<path d="M77.038 16.1167C76.8122 18.0882 75.9991 19.4861 74.7879 20.6736C72.5513 22.8651 69.9396 24.4771 67.0447 25.6627C66.6046 25.8425 66.0613 26.1771 65.9197 26.5672C65.7666 26.9918 65.8527 27.7682 66.1493 28.0244C66.5243 28.3457 67.3279 28.5464 67.7565 28.361C69.5033 27.6037 71.1813 26.682 72.8804 25.8138C73.1788 25.6608 73.4601 25.4792 73.7988 25.2803C73.1425 28.6115 69.0288 32.2065 64.4483 33.4533C62.5044 27.6898 58.7638 23.4885 52.9971 20.9299C53.772 20.3447 54.4034 19.7691 55.1247 19.3465C57.0705 18.203 58.9781 16.9504 61.0369 16.0478C68.3228 12.8582 74.3517 8.10997 79.2345 1.8664C79.3838 1.67517 79.556 1.50115 79.82 1.20093C80.3634 5.44809 79.753 9.21718 76.7721 12.3208C74.1948 15.0037 71.1603 17.0078 67.6608 18.2967C67.3623 18.4076 67.0562 18.4994 66.7654 18.6275C65.891 19.008 65.5351 19.7691 65.8508 20.5493C66.1455 21.276 66.9012 21.5762 67.7641 21.2836C70.5308 20.3485 73.0966 19.0252 75.4576 17.3061C75.9168 16.9715 76.3645 16.6234 77.0361 16.1186L77.038 16.1167Z" fill="#AA9A8D"/>
<path d="M26.9492 20.9508C21.3221 23.4769 17.5375 27.596 15.5993 33.3577C11.6636 32.7113 7.13857 28.9824 6.15321 25.2554C6.87645 25.6799 7.49445 26.0834 8.1469 26.4161C9.44987 27.0816 10.7567 27.749 12.096 28.336C13.068 28.7625 13.8677 28.4374 14.1624 27.6285C14.4628 26.7986 14.0954 26.0891 13.1062 25.699C10.1348 24.5268 7.46384 22.8841 5.18507 20.641C3.98541 19.4593 3.17799 18.0633 2.97326 16.1721C3.97393 16.8777 4.77179 17.5738 5.68253 18.0556C7.78719 19.1686 9.93394 20.2127 12.0941 21.2147C13.0393 21.6526 13.862 21.3065 14.1643 20.5167C14.4762 19.7021 14.1069 18.9296 13.1196 18.5873C10.7241 17.7535 8.4779 16.6348 6.44212 15.1241C3.79599 13.1602 1.44643 10.9477 0.493592 7.63184C-0.0995387 5.56084 -0.0861454 3.46308 0.15876 1.34619C2.05487 3.38468 3.82087 5.43463 5.75141 7.31822C9.40969 10.8904 13.6305 13.6708 18.3239 15.7131C21.2015 16.9656 23.9146 18.4916 26.3732 20.4479C26.5435 20.5837 26.7004 20.7328 26.9472 20.9508H26.9492Z" fill="#AA9A8D"/>
<path d="M40.0042 12.8371C38.6668 12.8371 37.3274 12.8084 35.9919 12.8505C35.3988 12.8696 35.0812 12.6727 34.8286 12.1296C33.8031 9.94003 32.7297 7.77343 31.6755 5.59726C31.465 5.16126 31.1991 4.70423 31.8151 4.36958C32.349 4.07891 33.5965 4.29117 33.7859 4.71187C34.0097 5.20333 34.1628 5.72729 34.3943 6.21492C34.7751 7.01234 35.5672 7.32213 36.2942 6.99513C36.9677 6.69299 37.2892 5.93191 36.9964 5.14214C36.52 3.86091 35.9824 2.60072 35.4887 1.32524C35.0869 0.286872 35.2859 0.00767974 36.4167 0.00576746C38.8045 3.0638e-05 41.1943 3.0638e-05 43.5821 0.00576746C44.7129 0.00959201 44.9157 0.290696 44.5139 1.32524C44.0432 2.54144 43.5324 3.74235 43.0655 4.96047C42.7001 5.91852 43.0062 6.74271 43.7926 7.02955C44.5981 7.32404 45.3156 6.93011 45.725 5.95868C45.8245 5.72347 45.9087 5.48443 46.0006 5.24731C46.3564 4.3256 47.1792 3.92784 48.0784 4.36384C48.3042 4.47284 48.5223 5.08859 48.4171 5.32189C47.3284 7.6912 46.19 10.0395 45.0094 12.3667C44.8851 12.6134 44.4201 12.8065 44.1064 12.818C42.7383 12.8658 41.3684 12.839 39.9984 12.839L40.0042 12.8371Z" fill="#FFB27B"/>
<path d="M39.9944 18.5586C38.2131 18.5586 36.4318 18.5643 34.6505 18.5567C33.537 18.5509 32.8769 18.0136 32.8692 17.1416C32.8616 16.2658 33.5312 15.6921 34.618 15.6902C38.2131 15.6825 41.8083 15.6825 45.4034 15.6902C46.4883 15.6921 47.1541 16.2773 47.1369 17.1569C47.1197 18.0021 46.4768 18.549 45.434 18.5567C43.6202 18.5701 41.8064 18.5605 39.9944 18.5605V18.5586Z" fill="#FFB27B"/>
<path d="M38.5072 37.4117V48.2218C36.2188 47.803 34.3629 45.4968 34.2787 43.0472C34.1888 40.4217 35.9242 38.0619 38.5072 37.4117Z" fill="#FFB27B"/>
<path d="M41.4902 51.6505C44.1765 52.4097 45.8641 54.7752 45.7225 57.4351C45.5943 59.8695 43.7288 62.1183 41.4902 62.4759V51.6505Z" fill="#FFB27B"/>
</svg>
